/* XPM */
static char * about_xpm[] = {
"31 32 620 2",
"  	c None",
". 	c #882524",
"+ 	c #A72021",
"@ 	c #656565",
"# 	c #D1D0CF",
"$ 	c #B8B1B1",
"% 	c #8E2020",
"& 	c #A20E0E",
"* 	c #C72F2F",
"= 	c #C45656",
"- 	c #774A4A",
"; 	c #414040",
"> 	c #5A595A",
", 	c #9D9C9D",
"' 	c #838383",
") 	c #434343",
"! 	c #565656",
"~ 	c #A2A2A2",
"{ 	c #C2C2C2",
"] 	c #B6B6B5",
"^ 	c #969696",
"/ 	c #8C8C8C",
"( 	c #AAAAAA",
"_ 	c #A2A1A2",
": 	c #989898",
"< 	c #7C7D7C",
"[ 	c #777777",
"} 	c #787877",
"| 	c #696867",
"1 	c #878788",
"2 	c #AFAFAF",
"3 	c #B1B2B1",
"4 	c #B2B2B2",
"5 	c #6A6969",
"6 	c #8A8989",
"7 	c #E8E8E8",
"8 	c #E7E7E7",
"9 	c #877979",
"0 	c #942222",
"a 	c #E34242",
"b 	c #E73C3C",
"c 	c #DF2B2B",
"d 	c #BA1717",
"e 	c #AD5555",
"f 	c #B6A5A5",
"g 	c #9C9E9F",
"h 	c #6E6D6D",
"i 	c #9A9999",
"j 	c #E8E7E7",
"k 	c #E9EAEA",
"l 	c #E9E9E9",
"m 	c #DFDEDE",
"n 	c #DBDBDB",
"o 	c #D8D8D8",
"p 	c #909090",
"q 	c #929292",
"r 	c #D9D9DA",
"s 	c #F6F6F6",
"t 	c #F7F8F7",
"u 	c #8F8F8F",
"v 	c #DFDFDF",
"w 	c #EDEDEC",
"x 	c #919191",
"y 	c #636363",
"z 	c #EEEDED",
"A 	c #DEDDDD",
"B 	c #7E7E7E",
"C 	c #615B5B",
"D 	c #AC5252",
"E 	c #EB3D3D",
"F 	c #D51D1D",
"G 	c #C80505",
"H 	c #D70B0B",
"I 	c #EA2525",
"J 	c #C23F3F",
"K 	c #A37A7A",
"L 	c #D2D5D5",
"M 	c #D1D1D2",
"N 	c #EBEBEB",
"O 	c #ECECEC",
"P 	c #959595",
"Q 	c #969797",
"R 	c #D4D4D4",
"S 	c #F5F5F4",
"T 	c #FAF9F9",
"U 	c #F9F8F9",
"V 	c #F9F9F9",
"W 	c #F6F7F7",
"X 	c #DDDDDD",
"Y 	c #6E6E6F",
"Z 	c #CACACA",
"` 	c #454545",
" .	c #858685",
"..	c #959594",
"+.	c #767676",
"@.	c #656363",
"#.	c #653A3A",
"$.	c #A91717",
"%.	c #CD0606",
"&.	c #D30505",
"*.	c #DB0505",
"=.	c #E40505",
"-.	c #F00F0F",
";.	c #E63A3A",
">.	c #B97878",
",.	c #ACA9A9",
"'.	c #D6D7D7",
").	c #F0F0EF",
"!.	c #A0A0A0",
"~.	c #9D9D9D",
"{.	c #DAD9D9",
"].	c #C6C5C5",
"^.	c #A1A2A1",
"/.	c #FAFAFA",
"(.	c #F8F8F8",
"_.	c #F7F8F8",
":.	c #FCFBFB",
"<.	c #999A99",
"[.	c #B5B5B5",
"}.	c #7A7A7A",
"|.	c #414141",
"1.	c #8C8D8C",
"2.	c #9A9B9B",
"3.	c #848483",
"4.	c #6F6E6F",
"5.	c #737574",
"6.	c #5C5757",
"7.	c #682E2E",
"8.	c #AA1212",
"9.	c #DF0A0A",
"0.	c #EA0A0A",
"a.	c #F20A0A",
"b.	c #F40303",
"c.	c #F50202",
"d.	c #EA2625",
"e.	c #D17C7C",
"f.	c #9B9191",
"g.	c #CCCDCF",
"h.	c #CBCBCC",
"i.	c #CFCECE",
"j.	c #D5D5D5",
"k.	c #C7C7C7",
"l.	c #F1F1F1",
"m.	c #F8F7F7",
"n.	c #DDDDDF",
"o.	c #8B8B8B",
"p.	c #858585",
"q.	c #6D6D6D",
"r.	c #ECEBEB",
"s.	c #939293",
"t.	c #878687",
"u.	c #CECECE",
"v.	c #A8A8A8",
"w.	c #515252",
"x.	c #7B7A7A",
"y.	c #DABBBC",
"z.	c #EA7172",
"A.	c #EC1B1B",
"B.	c #F60202",
"C.	c #F90303",
"D.	c #F70202",
"E.	c #F50000",
"F.	c #EF2020",
"G.	c #EDAEAE",
"H.	c #535858",
"I.	c #000000",
"J.	c #504F4F",
"K.	c #E1E1E1",
"L.	c #F7F7F7",
"M.	c #F5F5F5",
"N.	c #F7F7F6",
"O.	c #757575",
"P.	c #8D8C8C",
"Q.	c #828282",
"R.	c #EAEAEA",
"S.	c #F4F3F3",
"T.	c #908E90",
"U.	c #908886",
"V.	c #E2D2D2",
"W.	c #E4D6D6",
"X.	c #C1B8B8",
"Y.	c #5E5D5D",
"Z.	c #F0F1F1",
"`.	c #D87474",
" +	c #F70404",
".+	c #F70303",
"++	c #F80000",
"@+	c #FC7F7F",
"#+	c #615A5A",
"$+	c #000202",
"%+	c #626161",
"&+	c #DCDBDB",
"*+	c #BABABA",
"=+	c #747474",
"-+	c #3A3A3A",
";+	c #A9A9A9",
">+	c #A19595",
",+	c #AD3636",
"'+	c #CD2222",
")+	c #D62525",
"!+	c #E62C2C",
"~+	c #DE1A1A",
"{+	c #DE1515",
"]+	c #E81C1C",
"^+	c #F32525",
"/+	c #F51919",
"(+	c #F70A0A",
"_+	c #F80606",
":+	c #F80505",
"<+	c #F80202",
"[+	c #F90000",
"}+	c #FB7979",
"|+	c #E7DDDD",
"1+	c #C0C2C2",
"2+	c #EDEDED",
"3+	c #ADADAD",
"4+	c #FBFAFA",
"5+	c #C9C9C9",
"6+	c #767677",
"7+	c #808080",
"8+	c #313030",
"9+	c #474747",
"0+	c #4C4C4C",
"a+	c #5C5B5B",
"b+	c #674E4E",
"c+	c #853B3B",
"d+	c #A52D2D",
"e+	c #C71F1F",
"f+	c #EA1818",
"g+	c #EF1616",
"h+	c #F20D0D",
"i+	c #F50808",
"j+	c #F70707",
"k+	c #F70606",
"l+	c #F98181",
"m+	c #F9F5F5",
"n+	c #F0F0F0",
"o+	c #F9F8F8",
"p+	c #F8F7F8",
"q+	c #F9F9F8",
"r+	c #FAFBFB",
"s+	c #818080",
"t+	c #80807F",
"u+	c #363636",
"v+	c #A1A1A1",
"w+	c #8E8E8E",
"x+	c #5A5A5A",
"y+	c #6E6E6E",
"z+	c #BBBBBB",
"A+	c #969595",
"B+	c #AC9D9D",
"C+	c #BD8484",
"D+	c #D87675",
"E+	c #E55C5C",
"F+	c #DD2B2B",
"G+	c #ED1717",
"H+	c #F30B0B",
"I+	c #F30808",
"J+	c #F60404",
"K+	c #F81616",
"L+	c #F9AFAF",
"M+	c #FAFFFF",
"N+	c #FBFBFB",
"O+	c #BEBDBD",
"P+	c #898A89",
"Q+	c #E4E4E4",
"R+	c #898988",
"S+	c #818181",
"T+	c #EFEFEF",
"U+	c #7A7B7B",
"V+	c #6F6F6F",
"W+	c #E6E6E6",
"X+	c #EAE9E9",
"Y+	c #D8D8D7",
"Z+	c #C4C4C3",
"`+	c #F3F2F2",
" @	c #C5C5C5",
".@	c #C3C2C1",
"+@	c #DAC8C7",
"@@	c #D7A7A7",
"#@	c #BF8383",
"$@	c #E0C5C6",
"%@	c #F8F9F9",
"&@	c #D7D8D8",
"*@	c #828382",
"=@	c #CCCBCD",
"-@	c #999999",
";@	c #6D6C6C",
">@	c #FCFCFC",
",@	c #EDECEC",
"'@	c #727272",
")@	c #707070",
"!@	c #E3E3E3",
"~@	c #F7F6F6",
"{@	c #C6C6C6",
"]@	c #CBCACA",
"^@	c #FEFCFC",
"/@	c #BBBABB",
"(@	c #BABBBA",
"_@	c #F4F2F2",
":@	c #FDFCFB",
"<@	c #D6D6D6",
"[@	c #676767",
"}@	c #969698",
"|@	c #EFEEEF",
"1@	c #9C9B9B",
"2@	c #3E3D3D",
"3@	c #696969",
"4@	c #818081",
"5@	c #CAC9C9",
"6@	c #D7D7D7",
"7@	c #BEBDBE",
"8@	c #F0EFF0",
"9@	c #DCDCDC",
"0@	c #B3B3B4",
"a@	c #B5B6B7",
"b@	c #DADBDB",
"c@	c #BCBCBC",
"d@	c #CCCCCC",
"e@	c #FDFDFD",
"f@	c #A9AAAA",
"g@	c #797A7A",
"h@	c #AEAEAD",
"i@	c #B3B3B3",
"j@	c #E5E5E5",
"k@	c #929291",
"l@	c #3E3E3E",
"m@	c #727271",
"n@	c #595959",
"o@	c #E0DFDF",
"p@	c #E0E1E0",
"q@	c #DEDEDE",
"r@	c #B5B6B6",
"s@	c #B0B1B0",
"t@	c #FAFAF9",
"u@	c #DADBDA",
"v@	c #676868",
"w@	c #B2B2B1",
"x@	c #ECEDED",
"y@	c #DBDCDC",
"z@	c #CACBCB",
"A@	c #AEAEAE",
"B@	c #8C8B8C",
"C@	c #E6E5E5",
"D@	c #CFCFCF",
"E@	c #535353",
"F@	c #616060",
"G@	c #EFEEEE",
"H@	c #E2E2E2",
"I@	c #E0E1E1",
"J@	c #E4E3E3",
"K@	c #EAE9E8",
"L@	c #E3E2E2",
"M@	c #EEEFEE",
"N@	c #F7F6F7",
"O@	c #FAFBFA",
"P@	c #D5D6D4",
"Q@	c #99999A",
"R@	c #D2D2D2",
"S@	c #DADADA",
"T@	c #777676",
"U@	c #8C8B8B",
"V@	c #EAE9EA",
"W@	c #A2A1A1",
"X@	c #DEDEDF",
"Y@	c #BFBEBE",
"Z@	c #D0D0D0",
"`@	c #C4C3C3",
" #	c #F2F1F0",
".#	c #F6F6F7",
"+#	c #999898",
"@#	c #C2C1C2",
"##	c #E7E8E8",
"$#	c #BEBFC1",
"%#	c #979899",
"&#	c #DADAD8",
"*#	c #EBECEC",
"=#	c #F5F4F4",
"-#	c #393939",
";#	c #3F3E3E",
">#	c #424242",
",#	c #444343",
"'#	c #4A4949",
")#	c #555555",
"!#	c #5E5E5E",
"~#	c #545353",
"{#	c #494848",
"]#	c #353535",
"^#	c #2E2F2F",
"/#	c #2C2D2D",
"(#	c #2F2F2F",
"_#	c #303030",
":#	c #323332",
"<#	c #2D2E2D",
"[#	c #323232",
"}#	c #363535",
"|#	c #373737",
"1#	c #3C3B3B",
"2#	c #383838",
"3#	c #403F3F",
"4#	c #3C3C3C",
"5#	c #4E4D4D",
"6#	c #555454",
"7#	c #5B5B5B",
"8#	c #515151",
"9#	c #464646",
"0#	c #3A3B3B",
"a#	c #2A2A2A",
"b#	c #232323",
"c#	c #212121",
"d#	c #202120",
"e#	c #252525",
"f#	c #272726",
"g#	c #2B2A2A",
"h#	c #373636",
"i#	c #3B3B3B",
"j#	c #444444",
"k#	c #4E4E4E",
"l#	c #4B4B4B",
"m#	c #525252",
"n#	c #2B2B2B",
"o#	c #1F1F1F",
"p#	c #1E1E1E",
"q#	c #1D1D1C",
"r#	c #20201F",
"s#	c #242424",
"t#	c #262727",
"u#	c #2A2929",
"v#	c #2A2B2B",
"w#	c #2E2D2D",
"x#	c #343535",
"y#	c #343434",
"z#	c #333333",
"A#	c #373838",
"B#	c #424141",
"C#	c #282828",
"D#	c #1A1A1A",
"E#	c #191A1A",
"F#	c #191818",
"G#	c #1B1B1B",
"H#	c #222323",
"I#	c #262626",
"J#	c #252424",
"K#	c #252626",
"L#	c #2C2C2C",
"M#	c #2E2E2E",
"N#	c #77777A",
"O#	c #494949",
"P#	c #3D3C3C",
"Q#	c #7F7F84",
"R#	c #79797E",
"S#	c #5F5E61",
"T#	c #94939B",
"U#	c #97979E",
"V#	c #9A9AA0",
"W#	c #78787C",
"X#	c #313231",
"Y#	c #646466",
"Z#	c #8A8A8E",
"`#	c #404141",
" $	c #8D8C8D",
".$	c #605F60",
"+$	c #0B0B0B",
"@$	c #6B696A",
"#$	c #ABACAB",
"$$	c #B9B9B9",
"%$	c #4A4A49",
"&$	c #171716",
"*$	c #8E8E8D",
"=$	c #A4A3A2",
"-$	c #272727",
";$	c #B6B6B6",
">$	c #8E858C",
",$	c #484949",
"'$	c #3D3D3E",
")$	c #A49DB7",
"!$	c #9A94A8",
"~$	c #373736",
"{$	c #5F5C66",
"]$	c #C4BADC",
"^$	c #BEB5D3",
"/$	c #BFB6D6",
"($	c #938EA0",
"_$	c #272724",
":$	c #696674",
"<$	c #ACA6BC",
"[$	c #484748",
"}$	c #373837",
"|$	c #BCBBBA",
"1$	c #797878",
"2$	c #040303",
"3$	c #EEECEC",
"4$	c #FFFFFF",
"5$	c #585858",
"6$	c #BAB9B9",
"7$	c #D8D7D7",
"8$	c #3F3F3F",
"9$	c #A09F9F",
"0$	c #B0A5A5",
"a$	c #4C4D4D",
"b$	c #3A3939",
"c$	c #C1C0C0",
"d$	c #737374",
"e$	c #FFFFF7",
"f$	c #EBEAAE",
"g$	c #F3F3D1",
"h$	c #B7B6BA",
"i$	c #141515",
"j$	c #DDDCDB",
"k$	c #4D4D4C",
"l$	c #393938",
"m$	c #C8C8C8",
"n$	c #7D7E7E",
"o$	c #979797",
"p$	c #5A5A5B",
"q$	c #060707",
"r$	c #B8B8B7",
"s$	c #A4A3A3",
"t$	c #B3A7A7",
"u$	c #4E4F4F",
"v$	c #393838",
"w$	c #BEBEBD",
"x$	c #6C6B6A",
"y$	c #EAE9D5",
"z$	c #F3F2E2",
"A$	c #B4B3B5",
"B$	c #0D0D0D",
"C$	c #787878",
"D$	c #484747",
"E$	c #353434",
"F$	c #C8C8C7",
"G$	c #7D7E7D",
"H$	c #F4F4F4",
"I$	c #050505",
"J$	c #B8B7B7",
"K$	c #D9D8D8",
"L$	c #353636",
"M$	c #ACA3A3",
"N$	c #BCBBBB",
"O$	c #FDFCFC",
"P$	c #070808",
"Q$	c #757676",
"R$	c #D9D9D9",
"S$	c #464545",
"T$	c #CACACB",
"U$	c #7F7F7F",
"V$	c #939292",
"W$	c #585757",
"X$	c #030303",
"Y$	c #B7B7B7",
"Z$	c #1D1D1D",
"`$	c #A1A0A0",
" %	c #B1B0B0",
".%	c #9A9A9B",
"+%	c #1F2020",
"@%	c #DDDDDE",
"#%	c #9B9B9B",
"$%	c #080808",
"%%	c #6A6B6B",
"&%	c #C3C3C3",
"*%	c #31302F",
"=%	c #C2C1C0",
"-%	c #8F9090",
";%	c #EEF0F0",
">%	c #F3F3F3",
",%	c #B7B6B6",
"'%	c #1C1C1C",
")%	c #333434",
"!%	c #9D9B9B",
"~%	c #A09A9A",
"{%	c #2D2E2E",
"]%	c #A8A7A7",
"^%	c #1E1D1D",
"/%	c #5B5C5B",
"(%	c #E9E8E9",
"_%	c #080707",
":%	c #6C6B6B",
"<%	c #2F2E2C",
"[%	c #BEBBBA",
"}%	c #797979",
"|%	c #8F8E8E",
"1%	c #F3F2F1",
"2%	c #989999",
"3%	c #A6A6A6",
"4%	c #C8C7C8",
"5%	c #C1C1C1",
"6%	c #C4C4C4",
"7%	c #D0CFCF",
"8%	c #C2C1C1",
"9%	c #C5C6C6",
"0%	c #B1B1B1",
"a%	c #F8F3F3",
"b%	c #D3D2D1",
"c%	c #C0C1C0",
"d%	c #C7C6C6",
"e%	c #C8C9C9",
"f%	c #9D9C9E",
"g%	c #AFAEAE",
"h%	c #E1E1E0",
"i%	c #F2F3F2",
"j%	c #FBF9F9",
"k%	c #F3F3F2",
"l%	c #F2F2F2",
"m%	c #F9F8F7",
"n%	c #9C9C9B",
"o%	c #A5A4A4",
"p%	c #F1F0F0",
"q%	c #F6F5F5",
"r%	c #F2F1F1",
"s%	c #F0EFEF",
"t%	c #F1F2F2",
"u%	c #909191",
"v%	c #DDDEDD",
"w%	c #D2D1D1",
"x%	c #D8D8D9",
"y%	c #DFE0E1",
"z%	c #E2E3E3",
"A%	c #E3E3E2",
"B%	c #EBEAEB",
"C%	c #F8F8F7",
"    . +                                                       ",
"@ # $ % & * = - ; > , ' ) ! ~ { ] ^ / ( _ : < [ } | 1 2 3 4 5 ",
"6 7 8 9 0 a b c d e f g h i j k l m n o p q r s t t { u v w x ",
"y z A B C D E F G H I J K L M m N O N P Q R S T U V W X Y Z p ",
"`  ...x +.@.#.$.%.&.*.=.-.;.>.,.'.).!.~.{.].^.8 /.(._.:.<.[.}.",
"|.1.x 2.3.4.5.6.7.8.9.0.a.b.c.d.e.f.g.h. .i.j.k.l.(.m.m.n.o.p.",
"q./.r.s.t.u.N v.w.x.y.z.A.B.C.D.E.F.G.H.I.J.K.[.l L.M.N.L.O.P.",
"Q.R.S.T.U.V.W.X.Y.^ Z.7 `.E. +.+B.++@+#+$+%+&+*+l (.L.V W =+p.",
"-+;+>+,+'+)+!+~+{+]+^+/+(+_+:+.+<+[+}+|+1+2+3+m (.(.V 4+5+6+7+",
"8+9+0+a+b+c+d+e+{+f+g+h+i+j+j+k+ +++l+m+V T m n+o+p+q+r+s+t+x.",
"u+v+w+x+y+: z+A+B+C+D+E+F+G+H+I+J+K+L+M+T m.(.(.L.m.N+O+P+Q+R+",
"S+T+z U+V+W+z X+Y+Z+`+m  @.@+@@@#@$@o+o+T V %@V o+(.&@*@=@s -@",
";@>@,@'@)@R s !@R v ~@W+{@]@w ^@/@(@_@o+(.(.o+T :@<@[@}@|@s 1@",
"2@S++.y 3@4@5@6@7@8@!@K.9@0@a@b@c@d@T m.o+o+o+e@f@g@~ h@i@j@k@",
"l@m@3@n@3@^ o@!@*+i@p@8 l.q@5+r@s@m T L.L.o+t@u@v@w@x@y@z@A@B@",
"x+C@D@E@F@6@G@H@I@c@J@K@L@H@M@c@ @N+M.~@N@O@P@Q@v.w@R@j ,@S@T@",
"U@K.V@)@W@o L@j@9@j.X@u@Y@Z@5+`@ #(.(.~@L..#+#@###$#%#&#*#=#_ ",
"-#l@;#>#,#'#J.)#n@!#x+n@~#{#|.-+]#^#/#(#_#:#<#[#}#|#1#2#3#4#4#",
"2#4#l@9+9+0+5#6#7#7#n@!#8#9#0#_#a#b#c#d#e#f#g#/#(#h#-#|#2@i#-#",
"u+i#` j#k#l#E@k#8#m#! )#0+>#|#n#e#o#p#q#r#s#b#t#u#v#w#x#y#-+z#",
"-+A#i#) '#l#k#l#k#{#9+'#B#4#z#C#o#D#E#D#F#G#o#c#H#I#J#K#L#M#(#",
"N#O#P#Q#R#-#S#T#U#V#W#X#Y#Z#`#y# $.$+$@$#$3+$$%$&$*$=$-$-+;$}.",
">$,$'$)$!$~${$]$^$/$($_$:$<$[$}$|$1$2$p 3$G@4$5$+$6$7$I#8$`+9$",
"0$a$b$j.c$y#d$e$f$g$h$i$}.j$k$l$m$n$I.o$4+4+4$p$q$r$7$o#i#~@s$",
"t$u$v$<@w$I#x$4$y$z$A$B$C${.D$E$F$G$I.s.H$o+4$5$I$J$K$p#L$~@!.",
"M$a$]#R@N$K#5 4$~@O$2 P$Q$R$S$y#T$U$I.V$=#T 4$W$X$Y$o Z$y#~@`$",
"u >#(# %.%+%)#o 7$@%#%$%%%&%3#*%=%}.I.-%;%>%4$)#X$,%o '%)%=#!%",
"~%>#{%O+]%^%/%(%X o@~._%:%].8$<%[%}%I.|%2+T+4$)#X$,%o G#z#1%2%",
"3%4%5%N ,@k.{.O$T :.X+6%9@=#7%8%9@9%0%q@S =#a%b%c%R.1%d%e%m.f%",
"g%>%h%i%4+/.4+/./.T V j%j%4+m.l.k%,@N S >%l%~@o+L.(.(.N@m%4+n%",
"o%p%W+S.~@l.q%L.r%H$o+N.s T s%l >%T+2+M.S.t%~@T L.o+/.(.(.4+~.",
"u%r h.v%u@{@S@o@w%x%7 y%H@O z%A%M@R.B%l.n+T+H$~@s V 4+C%o+o+2%"};
