/* XPM */ 
static const char * devmidifile_xpm[] = {
"32 32 5 1",
" 	c None",
"!	c black",
"#	c #808080",
"$	c white",
"%	c #00FFFF",
"                                ",
" !!!!!!!!!!!!!!!!!!!!!!!!!!     ",
" !########################!     ",
" !########################!     ",
" !##$$$$$$$$$$$$$$$$$$$$##!     ",
" !##$$$$$$$$$$$$$$$$$$$$##!     ",
" !##$$$$$$$$$$$$$$$$$$$$##!     ",
" !##$$$$$$$$$$$$$$$$$$!!##!     ",
" !##$$$$$$$$$$$$$$$$$$!!!#!     ",
" !##$$$$$$$$$$$$$$$$$$!!!!!     ",
" !##$$$$$$$$$$$$$$$$$$!!!!!     ",
" !##$$$$$$$$$$$$$$$$$$!!!!!     ",
" !####################!!#!!     ",
" !####################!!#!!!    ",
" !####################!!##!!    ",
" !####################!!##!!!   ",
" !####################!!##!!!!  ",
" !####################!!##! !!  ",
" !####################!!##!  !! ",
" !#####%%%%%%%%%%%%%%#!!##!   ! ",
" !#####%%%%%%%%%%%%%%#!!##!     ",
" !#####%%###%%%%%%%%%#!!##!     ",
" !#####%%###%%%%%%%%%#!!##!     ",
" !#####%%###%%%%%%%%%#!!##!     ",
" !#####%%###%%%%%!!!!!!!##!     ",
"  !####%%%%%%%%%!!!!!!!!##!     ",
"   !###%%%%%%%%!!!!!!!!!##!     ",
"    !!!!!!!!!!!!!!!!!!!!!!!     ",
"               !!!!!!!!!        ",
"                !!!!!!!         ",
"                 !!!!!          ",
"                                "};
