/* XPM */ 
static const char * keytextbox_xpm[] = {
"32 32 3 1",
" 	c None",
"!	c black",
"#	c white",
"!!!!!!!!!!!!!!!!!!!!!!!!!!!!!!! ",
"!!!!!!!!!!!!!!!!!!!!!!!!!!!!!!! ",
"!!!!!!!!!!!!!!!!!!!!!!!!!!!!!!! ",
"!!!!!!!!!!!!!!!!!!!!!!!!!!!!!!! ",
"!!!!!!!!!!!!!!!!!!!!!!!!!!!!!!! ",
"!!!!!!!!!!!!!!!!!!!!!!!!!!!!!!! ",
"!!!!!!!!!!!!!!!!!!!!!!!!!!!!!!! ",
"!!!!!!!!!!!!!!!!!!!!!!!!!!!!!!! ",
"!!!!!!!!!!!!!!!!!!!!!!!!!!!!!!! ",
"!###!!!!!####!!!!!####!!!!!###! ",
"!###!!!!!####!!!!!####!!!!!###! ",
"!###!!!!!####!!!!!####!!!!!###! ",
"!###!!!!!####!!!!!####!!!!!###! ",
"!###!!!!!####!!!!!####!!!!!###! ",
"!###!!!!!####!!!!!####!!!!!###! ",
"!###!!!!!####!!!!!####!!!!!###! ",
"!###!!!!!####!!!!!####!!!!!###! ",
"!###!!!!!####!!!!!####!!!!!###! ",
"!###!!!!!####!!!!!####!!!!!###! ",
"!###!!!!!####!!!!!####!!!!!###! ",
"!###!!!!!####!!!!!####!!!!!###! ",
"!###!!!!!####!!!!!####!!!!!###! ",
"!###!!!!!####!!!!!####!!!!!###! ",
"!###!!!!!####!!!!!####!!!!!###! ",
"!###!!!!!####!!!!!####!!!!!###! ",
"!###!!!!!####!!!!!####!!!!!###! ",
"!###!!!!!####!!!!!####!!!!!###! ",
"!#############################! ",
"!#############################! ",
"!#############################! ",
"!#############################! ",
"!!!!!!!!!!!!!!!!!!!!!!!!!!!!!!! "};
