/* XPM */ 
static const char * route_xpm[] = {
"32 32 4 1",
" 	c None",
"!	c black",
"#	c #FF0000",
"$	c #FFFF00",
"                                ",
"                                ",
"                      #         ",
"                     #$#        ",
"                     #$$#       ",
"   ###################$$$#      ",
"  #$$$$$$$$$$$$$$$$$$$$$$$#     ",
"  #$$$$$$$$$$$$$$$$$$$$$$$$#    ",
"  #$$$$$$$$$$$$$$$$$$$$$$$$$#   ",
"  #$$$$$$$$$$$$$$$$$$$$$$$$#    ",
"  #$$$$$$$$$$$$$$$$$$$$$$$#     ",
"  #$$$$$$$$###########$$$#      ",
"  #$$$$$$$$$#        #$$#       ",
"   ###$$$$$$$#       #$#        ",
"      #$$$$$$#        #         ",
"       #$$$$$$#                 ",
"        #$$$$$#                 ",
"        #$$$$$$#      #         ",
"         #$$$$$#     #$#        ",
"         #$$$$$$##   #$$#       ",
"         #$$$$$$$$####$$$#      ",
"         #$$$$$$$$$$$$$$$$#     ",
"          #$$$$$$$$$$$$$$$$#    ",
"          #$$$$$$$$$$$$$$$$$#   ",
"           #$$$$$$$$$$$$$$$#    ",
"            ##$$$$$$$$$$$$#     ",
"              ########$$$#      ",
"                     #$$#       ",
"                     #$#        ",
"                      #         ",
"                                ",
"                                "};
