/* XPM */
static const char * AddPause_xpm[] = {
"14 14 4 1",
" 	c #000000",
"&	c #C0C0C0",
"z	c #808080",
"G	c #FFFFFF",
"GGGGGGGGGGGGGz",
"G&&&&&&&&&&&&z",
"G&&&&&&&&&&&&z",
"G&&   &&   &&z",
"G&&   &&   &&z",
"G&&   &&   &&z",
"G&&   &&   &&z",
"G&&   &&   &&z",
"G&&   &&   &&z",
"G&&   &&   &&z",
"G&&   &&   &&z",
"G&&&&&&&&&&&&z",
"G&&&&&&&&&&&&z",
"zzzzzzzzzzzzzz"};
