/* XPM */ 
static const char * devgmn_xpm[] = {
"32 32 4 1",
" 	c None",
"!	c black",
"#	c white",
"$	c #808080",
"!!!!!!!!!!!!!!!!!!!!!!!!!!!!!!  ",
"!############################!$ ",
"!############################!$$",
"!############################!$$",
"!#########!########!#########!$$",
"!#!#######!#######!##########!$$",
"!#!####!!#!###!!##!!#########!$$",
"!##!##!###!##!##!#!##########!$$",
"!##!##!###!##!!!!#!##########!$$",
"!###!#!###!##!####!##########!$$",
"!###!##!!#!!##!!##!#!##!##!##!$$",
"!############################!$$",
"!############################!$$",
"!############################!$$",
"!############################!$$",
"!############################!$$",
"!############################!$$",
"!############################!$$",
"!############################!$$",
"!############################!$$",
"!############################!$$",
"!############################!$$",
"!############################!$$",
"!############################!$$",
"!############################!$$",
"!############################!$$",
"!############################!$$",
"!############################!$$",
"!############################!$$",
"!!!!!!!!!!!!!!!!!!!!!!!!!!!!!!$$",
" $$$$$$$$$$$$$$$$$$$$$$$$$$$$$$$",
"  $$$$$$$$$$$$$$$$$$$$$$$$$$$$$$"};
