/* XPM */ 
static char * logic_xpm[] = {
"32 32 4 1",
" 	c None",
"!	c black",
"#	c #FFFF00",
"$	c #808080",
"  !!!!!!!!!!                    ",
" !##########!                   ",
"!############!                  ",
"!############!$                 ",
"!#!!!!!!!!!!!!!!!!!!!!!!!!!!!   ",
"!!###########################!  ",
"!#############################! ",
"!#############################!$",
"!#############################!$",
"!#############################!$",
"!#############################!$",
"!#############################!$",
"!#############################!$",
"!#############################!$",
"!#############################!$",
"!#############################!$",
"!#############################!$",
"!#############################!$",
"!#############################!$",
"!#############################!$",
"!#############################!$",
"!#############################!$",
"!#############################!$",
"!#############################!$",
"!#############################!$",
"!#############################!$",
"!#############################!$",
"!#############################!$",
"!#############################!$",
" !###########################!$ ",
"  !!!!!!!!!!!!!!!!!!!!!!!!!!!$  ",
"   $$$$$$$$$$$$$$$$$$$$$$$$$$   "};