/* XPM */ 
static char * mutabor_xpm[] = {
"32 32 5 1",
" 	c None",
"!	c black",
"#	c #FF0000",
"$	c white",
"%	c #808080",
"   ##                 !!!!      ",
"    ###              !$$$$!!    ",
"     ######         !!!!$$$$!   ",
"       #######     !!$$!!$$$!   ",
"         #######   !$$$$!$$$$!  ",
"           ####### !!!$$!$$$$!  ",
"             #######!!$$!$$$$!  ",
"   #################$$$!!$$$$!  ",
"      ##############$$$!$$$$!   ",
"          ##########$$$$$$$$!   ",
"               ##$$$$$$$$$$$!   ",
"                !$$$$$$$$$$!    ",
"               !$$$$$$$$$$$!    ",
"               !$$$$$$$$$$!     ",
"               !$$$$$$$$$!      ",
"              !$$$$$$$$$$!      ",
"              !$$$$$$$$$!       ",
"!!!!!!!!!!!!!!!!!!!!!!!!!!!!!!!!",
"!!!!!!!!!!!!!!!!!!!!!!!!!!!!!!!!",
"!!!!!!!!!!!!!!!!!!!!!!!!!!!!!!!!",
"!!!!!!!!!!!!!!!!!!!!!!!!!!!!!!!!",
"%!!$$!!$$$$!!$$!!$$!!$$$$!!$$!!%",
"%!!$$!!$$$$!!$$!!$$!!$$$$!!$$!!%",
"%!!$$!!$$$$!!$$!!$$!!$$$$!!$$!!%",
"%!!$$!!$$$$!!$$!!$$!!$$$$!!$$!!%",
"%!!$$!!$$$$!!$$!!$$!!$$$$!!$$!!%",
"%!!$$!!$$$$!!$$!!$$!!$$$$!!$$!!%",
"%!!$$!!$$$$!!$$!!$$!!$$$$!!$$!!%",
"%$$$$$$$$$$$$$$$$$$$$$$$$$$$$$$%",
"%$$$$$$$$$$$$$$$$$$$$$$$$$$$$$$%",
"%$$$$$$$$$$$$$$$$$$$$$$$$$$$$$$%",
"%%%%%%%%%%%%%%%%%%%%%%%%%%%%%%%%"};