/* XPM */ 
static char * playplop_xpm[] = {
"32 32 5 1",
" 	c None",
"!	c black",
"#	c #808080",
"$	c #C0C0C0",
"%	c #0000FF",
"       #####                    ",
"     ##$$$$$##                  ",
"   ##$$$$$$$$$##                ",
"  #$$$$$$$$$$$$$#               ",
"  #$$$%$$$$$$$$$#               ",
" #$$$$%%%$$$$$$$$#              ",
" #$$$$%%%%%$$$$$$#              ",
"#$$$$$%%%%%%$$$$$$#             ",
"#$$$$$%%%%%%%%$$$$#             ",
"#$$$$$%%%%%%%%%$$$#             ",
"#$$$$$%%%%%%%%$$$$#             ",
"#$$$$$%%%%%%$$$$$$#             ",
"##$$$$%%%%$$$$$$$##             ",
"##$$$$%%%$$$$$$$$##             ",
" ##$$$%$$$$$$$$$##              ",
" ##$$$$$$$$$$$$$##              ",
"  ###$$$$$$$$$###               ",
"  #####$$$$$#####               ",
"   #############                ",
"     #########                  ",
"       #####                    ",
"                                ",
"                                ",
"                                ",
"                                ",
"                                ",
"                                ",
"                                ",
"                                ",
"                                ",
"                                ",
"                                "};
