/* XPM */ 
static char * tstextbox_xpm[] = {
"32 32 3 1",
" 	c None",
"!	c black",
"#	c white",
"!!!!!!!!!!!!!!!!!!!!!!!!!!!!!!!!",
"!!!!!!!!!!!!!!!!!!!!!!!!!!!!!!!!",
"!!############################!!",
"!!############################!!",
"!!#####################!!!####!!",
"!!#################!!!!!!!####!!",
"!!#############!!!!!!!!!!!####!!",
"!!##########!!!!!!!!!!!!!!####!!",
"!!##########!!!!!!!!!!##!!####!!",
"!!##########!!!!!!!#####!!####!!",
"!!##########!!!!########!!####!!",
"!!##########!!##########!!####!!",
"!!##########!!##########!!####!!",
"!!##########!!##########!!####!!",
"!!##########!!##########!!####!!",
"!!##########!!##########!!####!!",
"!!##########!!##########!!####!!",
"!!##########!!##########!!####!!",
"!!##########!!#####!!!!#!!####!!",
"!!##########!!####!!!!!!!!####!!",
"!!##########!!###!!!!!!!!!####!!",
"!!#####!!!!#!!###!!!!!!!!#####!!",
"!!####!!!!!!!!####!!!!!!!#####!!",
"!!###!!!!!!!!!#####!!!!!######!!",
"!!###!!!!!!!!#################!!",
"!!####!!!!!!!#################!!",
"!!#####!!!!!##################!!",
"!!############################!!",
"!!############################!!",
"!!############################!!",
"!!!!!!!!!!!!!!!!!!!!!!!!!!!!!!!!",
"!!!!!!!!!!!!!!!!!!!!!!!!!!!!!!!!"};