/* XPM */ 
static const char * acttextbox_xpm[] = {
"32 32 5 1",
" 	c None",
"!	c black",
"#	c #FFFF00",
"$	c #808080",
"%	c white",
"  !!!!!!                        ",
" !######!                       ",
"!########!                      ",
"!#########!!!!!!!!!!!!!!!!      ",
"!#########################!     ",
"!##########################!    ",
"!##########################!    ",
"!#######!!!!!!!!!!!!!!!!!!!!!!!!",
"!#######!$$$$$$$$$$$$$$$$$$$$$$!",
"!#######!$%%%%%%%%%%%%%%%%%%%%$!",
"!#######!$%%%%%!!!!!!!!!!%%%%%$!",
"!#######!$%%%%%!!!!!!!!!!%%%%%$!",
"!#######!$%%%%%!!!!!!!!!!%%%%%$!",
"!#######!$%%%%!!!!!!!!!!!!%%%%$!",
"!#######!$%%%%!!!!%%%%!!!!%%%%$!",
"!#######!$%%%%!!!!%%%%!!!!%%%%$!",
"!#######!$%%%%!!!!%%%%!!!!%%%%$!",
"!#######!$%%%%!!!!%%%%!!!!%%%%$!",
"!#######!$%%%%!!!!!!!!!!!!%%%%$!",
"!#######!$%%%!!!!!!!!!!!!!!%%%$!",
"!#######!$%%%!!!!!!!!!!!!!!%%%$!",
"!#######!$%%%!!!!!!!!!!!!!!%%%$!",
"!#######!$%%%!!!!%%%%%%!!!!%%%$!",
"!#######!$%%%!!!!%%%%%%!!!!%%%$!",
"!#######!$%%%!!!!%%%%%%!!!!%%%$!",
"!#######!$%%!!!!%%%%%%%%!!!!%%$!",
" !######!$%%!!!!%%%%%%%%!!!!%%$!",
"  !!!!!!!$%%!!!!%%%%%%%%!!!!%%$!",
"        !$%%%%%%%%%%%%%%%%%%%%$!",
"        !$%%%%%%%%%%%%%%%%%%%%$!",
"        !$$$$$$$$$$$$$$$$$$$$$$!",
"        !!!!!!!!!!!!!!!!!!!!!!!!"};
