<?xml version="1.0" encoding="UTF-8" standalone="no"?>
<!-- Created with Inkscape (http://www.inkscape.org/) -->

<svg
   xmlns:dc="http://purl.org/dc/elements/1.1/"
   xmlns:cc="http://creativecommons.org/ns#"
   xmlns:rdf="http://www.w3.org/1999/02/22-rdf-syntax-ns#"
   xmlns:svg="http://www.w3.org/2000/svg"
   xmlns="http://www.w3.org/2000/svg"
   xmlns:sodipodi="http://sodipodi.sourceforge.net/DTD/sodipodi-0.dtd"
   xmlns:inkscape="http://www.inkscape.org/namespaces/inkscape"
   id="svg3039"
   version="1.1"
   inkscape:version="0.48.0 r9654"
   width="20"
   height="20"
   sodipodi:docname="ActivateMutabor.png">
  <metadata
     id="metadata3045">
    <rdf:RDF>
      <cc:Work
         rdf:about="">
        <dc:format>image/svg+xml</dc:format>
        <dc:type
           rdf:resource="http://purl.org/dc/dcmitype/StillImage" />
        <dc:title></dc:title>
      </cc:Work>
    </rdf:RDF>
  </metadata>
  <defs
     id="defs3043" />
  <sodipodi:namedview
     pagecolor="#ffffff"
     bordercolor="#666666"
     borderopacity="1"
     objecttolerance="10"
     gridtolerance="10"
     guidetolerance="10"
     inkscape:pageopacity="0"
     inkscape:pageshadow="2"
     inkscape:window-width="1211"
     inkscape:window-height="673"
     id="namedview3041"
     showgrid="false"
     inkscape:zoom="14.7"
     inkscape:cx="-6.4965986"
     inkscape:cy="10.034014"
     inkscape:window-x="0"
     inkscape:window-y="22"
     inkscape:window-maximized="0"
     inkscape:current-layer="svg3039" />
  <rect
     style="fill:#000000;fill-rule:evenodd;stroke:none"
     id="rect3049"
     width="7"
     height="18"
     x="1"
     y="1" />
  <path
     sodipodi:type="arc"
     style="fill:#00ff00;stroke:none"
     id="path3051"
     sodipodi:cx="4.4557824"
     sodipodi:cy="15.612245"
     sodipodi:rx="2.6190476"
     sodipodi:ry="2.6190476"
     d="m 7.0748301,15.612245 a 2.6190476,2.6190476 0 1 1 -5.2380953,0 2.6190476,2.6190476 0 1 1 5.2380953,0 z"
     transform="matrix(0.95454545,0,0,0.95454545,0.24675321,0.59740301)" />
  <path
     sodipodi:type="arc"
     style="fill:#800000;stroke:none;fill-opacity:1"
     id="path3051-7"
     sodipodi:cx="4.4557824"
     sodipodi:cy="15.612245"
     sodipodi:rx="2.6190476"
     sodipodi:ry="2.6190476"
     d="m 7.0748301,15.612245 a 2.6190476,2.6190476 0 1 1 -5.2380953,0 2.6190476,2.6190476 0 1 1 5.2380953,0 z"
     transform="matrix(0.95454545,0,0,0.95454545,0.24675318,-10.402597)" />
  <path
     style="fill:#000000;stroke:none"
     d="M 16 2 L 16 13.75 C 15.363987 13.282255 14.484975 13 13.5 13 C 11.567003 13 10 14.119288 10 15.5 C 10 16.880712 11.567003 18 13.5 18 C 15.191372 18 16.611138 17.139208 16.9375 16 L 17 16 L 17 15.5 L 17 2 L 16 2 z "
     id="path3071" />
</svg>
