<?xml version="1.0" encoding="UTF-8" standalone="no"?>
<!-- Created with Inkscape (http://www.inkscape.org/) -->
<svg
   xmlns:dc="http://purl.org/dc/elements/1.1/"
   xmlns:cc="http://creativecommons.org/ns#"
   xmlns:rdf="http://www.w3.org/1999/02/22-rdf-syntax-ns#"
   xmlns:svg="http://www.w3.org/2000/svg"
   xmlns="http://www.w3.org/2000/svg"
   xmlns:xlink="http://www.w3.org/1999/xlink"
   xmlns:sodipodi="http://sodipodi.sourceforge.net/DTD/sodipodi-0.dtd"
   xmlns:inkscape="http://www.inkscape.org/namespaces/inkscape"
   width="48.000000px"
   height="48.000000px"
   id="svg249"
   sodipodi:version="0.32"
   inkscape:version="0.46"
   sodipodi:docbase="/home/jimmac/src/cvs/tango-icon-theme/scalable/actions"
   sodipodi:docname="GuidoFile.svg"
   inkscape:export-filename="/Users/schlemme/Entwicklung/mutabor/Icons/png/GuidoFile.png"
   inkscape:export-xdpi="120"
   inkscape:export-ydpi="120"
   inkscape:output_extension="org.inkscape.output.svg.inkscape">
  <defs
     id="defs3">
    <radialGradient
       inkscape:collect="always"
       xlink:href="#linearGradient5060"
       id="radialGradient5031"
       gradientUnits="userSpaceOnUse"
       gradientTransform="matrix(-2.774389,0,0,1.969706,112.7623,-872.8854)"
       cx="605.71429"
       cy="486.64789"
       fx="605.71429"
       fy="486.64789"
       r="117.14286" />
    <linearGradient
       inkscape:collect="always"
       id="linearGradient5060">
      <stop
         style="stop-color:black;stop-opacity:1;"
         offset="0"
         id="stop5062" />
      <stop
         style="stop-color:black;stop-opacity:0;"
         offset="1"
         id="stop5064" />
    </linearGradient>
    <radialGradient
       inkscape:collect="always"
       xlink:href="#linearGradient5060"
       id="radialGradient5029"
       gradientUnits="userSpaceOnUse"
       gradientTransform="matrix(2.774389,0,0,1.969706,-1891.633,-872.8854)"
       cx="605.71429"
       cy="486.64789"
       fx="605.71429"
       fy="486.64789"
       r="117.14286" />
    <linearGradient
       id="linearGradient5048">
      <stop
         style="stop-color:black;stop-opacity:0;"
         offset="0"
         id="stop5050" />
      <stop
         id="stop5056"
         offset="0.5"
         style="stop-color:black;stop-opacity:1;" />
      <stop
         style="stop-color:black;stop-opacity:0;"
         offset="1"
         id="stop5052" />
    </linearGradient>
    <linearGradient
       inkscape:collect="always"
       xlink:href="#linearGradient5048"
       id="linearGradient5027"
       gradientUnits="userSpaceOnUse"
       gradientTransform="matrix(2.774389,0,0,1.969706,-1892.179,-872.8854)"
       x1="302.85715"
       y1="366.64789"
       x2="302.85715"
       y2="609.50507" />
    <linearGradient
       id="linearGradient15662">
      <stop
         style="stop-color:#ffffff;stop-opacity:1.0000000;"
         offset="0.0000000"
         id="stop15664" />
      <stop
         style="stop-color:#f8f8f8;stop-opacity:1.0000000;"
         offset="1.0000000"
         id="stop15666" />
    </linearGradient>
    <radialGradient
       gradientUnits="userSpaceOnUse"
       fy="64.5679"
       fx="20.8921"
       r="5.257"
       cy="64.5679"
       cx="20.8921"
       id="aigrd3">
      <stop
         id="stop15573"
         style="stop-color:#F0F0F0"
         offset="0" />
      <stop
         id="stop15575"
         style="stop-color:#9a9a9a;stop-opacity:1.0000000;"
         offset="1.0000000" />
    </radialGradient>
    <radialGradient
       gradientUnits="userSpaceOnUse"
       fy="114.5684"
       fx="20.8921"
       r="5.256"
       cy="114.5684"
       cx="20.8921"
       id="aigrd2">
      <stop
         id="stop15566"
         style="stop-color:#F0F0F0"
         offset="0" />
      <stop
         id="stop15568"
         style="stop-color:#9a9a9a;stop-opacity:1.0000000;"
         offset="1.0000000" />
    </radialGradient>
    <linearGradient
       id="linearGradient269">
      <stop
         style="stop-color:#a3a3a3;stop-opacity:1.0000000;"
         offset="0.0000000"
         id="stop270" />
      <stop
         style="stop-color:#4c4c4c;stop-opacity:1.0000000;"
         offset="1.0000000"
         id="stop271" />
    </linearGradient>
    <linearGradient
       id="linearGradient259">
      <stop
         style="stop-color:#fafafa;stop-opacity:1.0000000;"
         offset="0.0000000"
         id="stop260" />
      <stop
         style="stop-color:#bbbbbb;stop-opacity:1.0000000;"
         offset="1.0000000"
         id="stop261" />
    </linearGradient>
    <linearGradient
       id="linearGradient12512">
      <stop
         style="stop-color:#ffffff;stop-opacity:1.0000000;"
         offset="0.0000000"
         id="stop12513" />
      <stop
         style="stop-color:#fff520;stop-opacity:0.89108908;"
         offset="0.50000000"
         id="stop12517" />
      <stop
         style="stop-color:#fff300;stop-opacity:0.0000000;"
         offset="1.0000000"
         id="stop12514" />
    </linearGradient>
    <radialGradient
       inkscape:collect="always"
       xlink:href="#linearGradient12512"
       id="radialGradient278"
       gradientUnits="userSpaceOnUse"
       cx="55.000000"
       cy="125.00000"
       fx="55.000000"
       fy="125.00000"
       r="14.375000" />
    <radialGradient
       r="37.751713"
       fy="3.7561285"
       fx="8.8244190"
       cy="3.7561285"
       cx="8.8244190"
       gradientTransform="matrix(0.968273,0.000000,0.000000,1.032767,3.353553,0.646447)"
       gradientUnits="userSpaceOnUse"
       id="radialGradient15656"
       xlink:href="#linearGradient269"
       inkscape:collect="always" />
    <radialGradient
       r="86.708450"
       fy="35.736916"
       fx="33.966679"
       cy="35.736916"
       cx="33.966679"
       gradientTransform="scale(0.960493,1.041132)"
       gradientUnits="userSpaceOnUse"
       id="radialGradient15658"
       xlink:href="#linearGradient259"
       inkscape:collect="always" />
    <radialGradient
       r="38.158695"
       fy="7.2678967"
       fx="8.1435566"
       cy="7.2678967"
       cx="8.1435566"
       gradientTransform="matrix(0.968273,0.000000,0.000000,1.032767,3.353553,0.646447)"
       gradientUnits="userSpaceOnUse"
       id="radialGradient15668"
       xlink:href="#linearGradient15662"
       inkscape:collect="always" />
    <radialGradient
       inkscape:collect="always"
       xlink:href="#aigrd2"
       id="radialGradient2283"
       gradientUnits="userSpaceOnUse"
       gradientTransform="matrix(0.229703,0.000000,0.000000,0.229703,4.613529,3.979808)"
       cx="20.8921"
       cy="114.5684"
       fx="20.8921"
       fy="114.5684"
       r="5.256" />
    <radialGradient
       inkscape:collect="always"
       xlink:href="#aigrd3"
       id="radialGradient2285"
       gradientUnits="userSpaceOnUse"
       gradientTransform="matrix(0.229703,0.000000,0.000000,0.229703,4.613529,3.979808)"
       cx="20.8921"
       cy="64.5679"
       fx="20.8921"
       fy="64.5679"
       r="5.257" />
  </defs>
  <sodipodi:namedview
     id="base"
     pagecolor="#ffffff"
     bordercolor="#666666"
     borderopacity="0.32941176"
     inkscape:pageopacity="0.0"
     inkscape:pageshadow="2"
     inkscape:zoom="1.5219031"
     inkscape:cx="24.093514"
     inkscape:cy="14.636414"
     inkscape:current-layer="layer1"
     showgrid="false"
     inkscape:grid-bbox="true"
     inkscape:document-units="px"
     inkscape:window-width="1280"
     inkscape:window-height="1002"
     inkscape:window-x="0"
     inkscape:window-y="0"
     inkscape:showpageshadow="false" />
  <metadata
     id="metadata4">
    <rdf:RDF>
      <cc:Work
         rdf:about="">
        <dc:format>image/svg+xml</dc:format>
        <dc:type
           rdf:resource="http://purl.org/dc/dcmitype/StillImage" />
        <dc:title>New Document</dc:title>
        <dc:creator>
          <cc:Agent>
            <dc:title>Jakub Steiner</dc:title>
          </cc:Agent>
        </dc:creator>
        <dc:source>http://jimmac.musichall.cz</dc:source>
        <cc:license
           rdf:resource="http://creativecommons.org/licenses/by-sa/2.0/" />
      </cc:Work>
      <cc:License
         rdf:about="http://creativecommons.org/licenses/by-sa/2.0/">
        <cc:permits
           rdf:resource="http://web.resource.org/cc/Reproduction" />
        <cc:permits
           rdf:resource="http://web.resource.org/cc/Distribution" />
        <cc:requires
           rdf:resource="http://web.resource.org/cc/Notice" />
        <cc:requires
           rdf:resource="http://web.resource.org/cc/Attribution" />
        <cc:permits
           rdf:resource="http://web.resource.org/cc/DerivativeWorks" />
        <cc:requires
           rdf:resource="http://web.resource.org/cc/ShareAlike" />
      </cc:License>
    </rdf:RDF>
  </metadata>
  <g
     inkscape:label="Shadow"
     id="layer6"
     inkscape:groupmode="layer"
     style="display:inline">
    <g
       style="display:inline"
       id="g5022"
       transform="matrix(2.165152e-2,0,0,1.485743e-2,43.0076,42.68539)">
      <rect
         y="-150.69685"
         x="-1559.2523"
         height="478.35718"
         width="1339.6335"
         id="rect4173"
         style="opacity:0.40206185;fill:url(#linearGradient5027);fill-opacity:1;fill-rule:nonzero;stroke:none;stroke-width:1;stroke-linecap:round;stroke-linejoin:miter;marker:none;marker-start:none;marker-mid:none;marker-end:none;stroke-miterlimit:4;stroke-dasharray:none;stroke-dashoffset:0;stroke-opacity:1;visibility:visible;display:inline;overflow:visible" />
      <path
         sodipodi:nodetypes="cccc"
         id="path5058"
         d="M -219.61876,-150.68038 C -219.61876,-150.68038 -219.61876,327.65041 -219.61876,327.65041 C -76.744594,328.55086 125.78146,220.48075 125.78138,88.454235 C 125.78138,-43.572302 -33.655436,-150.68036 -219.61876,-150.68038 z"
         style="opacity:0.40206185;fill:url(#radialGradient5029);fill-opacity:1;fill-rule:nonzero;stroke:none;stroke-width:1;stroke-linecap:round;stroke-linejoin:miter;marker:none;marker-start:none;marker-mid:none;marker-end:none;stroke-miterlimit:4;stroke-dasharray:none;stroke-dashoffset:0;stroke-opacity:1;visibility:visible;display:inline;overflow:visible" />
      <path
         style="opacity:0.40206185;fill:url(#radialGradient5031);fill-opacity:1;fill-rule:nonzero;stroke:none;stroke-width:1;stroke-linecap:round;stroke-linejoin:miter;marker:none;marker-start:none;marker-mid:none;marker-end:none;stroke-miterlimit:4;stroke-dasharray:none;stroke-dashoffset:0;stroke-opacity:1;visibility:visible;display:inline;overflow:visible"
         d="M -1559.2523,-150.68038 C -1559.2523,-150.68038 -1559.2523,327.65041 -1559.2523,327.65041 C -1702.1265,328.55086 -1904.6525,220.48075 -1904.6525,88.454235 C -1904.6525,-43.572302 -1745.2157,-150.68036 -1559.2523,-150.68038 z"
         id="path5018"
         sodipodi:nodetypes="cccc" />
    </g>
  </g>
  <g
     id="layer1"
     inkscape:label="Base"
     inkscape:groupmode="layer"
     style="display:inline">
    <rect
       ry="1.1490486"
       y="3.6464462"
       x="6.6035528"
       height="40.920494"
       width="34.875000"
       id="rect15391"
       style="color:#000000;fill:url(#radialGradient15658);fill-opacity:1.0000000;fill-rule:nonzero;stroke:url(#radialGradient15656);stroke-width:1.0000000;stroke-linecap:round;stroke-linejoin:round;stroke-miterlimit:4.0000000;stroke-dashoffset:0.0000000;stroke-opacity:1.0000000;marker:none;marker-start:none;marker-mid:none;marker-end:none;visibility:visible;display:block;overflow:visible" />
    <rect
       rx="0.14904857"
       ry="0.14904857"
       y="4.5839462"
       x="7.6660538"
       height="38.946384"
       width="32.775887"
       id="rect15660"
       style="color:#000000;fill:none;fill-opacity:1.0000000;fill-rule:nonzero;stroke:url(#radialGradient15668);stroke-width:1.0000000;stroke-linecap:round;stroke-linejoin:round;stroke-miterlimit:4.0000000;stroke-dashoffset:0.0000000;stroke-opacity:1.0000000;marker:none;marker-start:none;marker-mid:none;marker-end:none;visibility:visible;display:block;overflow:visible" />
    <g
       id="g2270"
       transform="translate(0.646447,-3.798933e-2)">
      <g
         transform="matrix(0.229703,0.000000,0.000000,0.229703,4.967081,4.244972)"
         style="fill:#ffffff;fill-opacity:1.0000000;fill-rule:nonzero;stroke:#000000;stroke-miterlimit:4.0000000"
         id="g1440">
        <radialGradient
           gradientUnits="userSpaceOnUse"
           fy="114.56840"
           fx="20.892099"
           r="5.2560000"
           cy="114.56840"
           cx="20.892099"
           id="radialGradient1442">
          <stop
             id="stop1444"
             style="stop-color:#F0F0F0"
             offset="0" />
          <stop
             id="stop1446"
             style="stop-color:#474747"
             offset="1" />
        </radialGradient>
        <path
           id="path1448"
           d="M 23.428000,113.07000 C 23.428000,115.04300 21.828000,116.64200 19.855000,116.64200 C 17.881000,116.64200 16.282000,115.04200 16.282000,113.07000 C 16.282000,111.09600 17.882000,109.49700 19.855000,109.49700 C 21.828000,109.49700 23.428000,111.09700 23.428000,113.07000 z "
           style="stroke:none" />
        <radialGradient
           gradientUnits="userSpaceOnUse"
           fy="64.567902"
           fx="20.892099"
           r="5.2570000"
           cy="64.567902"
           cx="20.892099"
           id="radialGradient1450">
          <stop
             id="stop1452"
             style="stop-color:#F0F0F0"
             offset="0" />
          <stop
             id="stop1454"
             style="stop-color:#474747"
             offset="1" />
        </radialGradient>
        <path
           id="path1456"
           d="M 23.428000,63.070000 C 23.428000,65.043000 21.828000,66.643000 19.855000,66.643000 C 17.881000,66.643000 16.282000,65.043000 16.282000,63.070000 C 16.282000,61.096000 17.882000,59.497000 19.855000,59.497000 C 21.828000,59.497000 23.428000,61.097000 23.428000,63.070000 z "
           style="stroke:none" />
      </g>
      <path
         id="path15570"
         d="M 9.9950109,29.952326 C 9.9950109,30.405530 9.6274861,30.772825 9.1742821,30.772825 C 8.7208483,30.772825 8.3535532,30.405301 8.3535532,29.952326 C 8.3535532,29.498892 8.7210780,29.131597 9.1742821,29.131597 C 9.6274861,29.131597 9.9950109,29.499122 9.9950109,29.952326 z "
         style="fill:url(#radialGradient2283);fill-rule:nonzero;stroke:none;stroke-miterlimit:4.0000000" />
      <path
         id="path15577"
         d="M 9.9950109,18.467176 C 9.9950109,18.920380 9.6274861,19.287905 9.1742821,19.287905 C 8.7208483,19.287905 8.3535532,18.920380 8.3535532,18.467176 C 8.3535532,18.013742 8.7210780,17.646447 9.1742821,17.646447 C 9.6274861,17.646447 9.9950109,18.013972 9.9950109,18.467176 z "
         style="fill:url(#radialGradient2285);fill-rule:nonzero;stroke:none;stroke-miterlimit:4.0000000" />
    </g>
    <path
       sodipodi:nodetypes="cc"
       id="path15672"
       d="M 11.505723,5.4942766 L 11.505723,43.400869"
       style="fill:none;fill-opacity:0.75000000;fill-rule:evenodd;stroke:#000000;stroke-width:0.98855311;stroke-linecap:butt;stroke-linejoin:miter;stroke-miterlimit:4.0000000;stroke-opacity:0.017543854" />
    <path
       sodipodi:nodetypes="cc"
       id="path15674"
       d="M 12.500000,5.0205154 L 12.500000,43.038228"
       style="fill:none;fill-opacity:0.75000000;fill-rule:evenodd;stroke:#ffffff;stroke-width:1.0000000;stroke-linecap:butt;stroke-linejoin:miter;stroke-miterlimit:4.0000000;stroke-opacity:0.20467831" />
    <g
       id="g7717"
       transform="matrix(0.8447641,0,0,0.8447641,4.5613636,3.8989824)">
      <g
         transform="matrix(1.4646323e-3,0,0,1.4646323e-3,11.888927,7.1932765)"
         id="g6448">
        <g
           style="visibility:visible"
           id="g5221"
           transform="matrix(0.7638141,0,0,1,-657.03771,7621.4579)">
          <desc
             id="desc5223">Drawing</desc>
          <g
             id="g5225">
            <g
               id="g5227"
               style="fill:#c0c0c0;stroke:none">
              <path
                 id="path5229"
                 d="M 89,1 L 26449,1 L 26537,88 L 26537,174 L 26449,261 L 89,261 L 1,174 L 1,88 L 89,1 z" />
            </g>
            <g
               id="g5231"
               style="fill:none;stroke:#c0c0c0;stroke-width:32.76807404">
              <path
                 id="path5233"
                 d="M 89,1 L 26449,1 L 26537,88 L 26537,174 L 26449,261 L 89,261 L 1,174 L 1,88 L 89,1"
                 style="fill:none;stroke-width:32.76807404" />
            </g>
            <g
               id="g5237" />
          </g>
        </g>
        <g
           style="visibility:visible"
           id="g6384"
           transform="matrix(0.7638141,0,0,1,-657.0377,2259.2355)">
          <desc
             id="desc6386">Drawing</desc>
          <g
             id="g6388">
            <g
               id="g6390"
               style="fill:#c0c0c0;stroke:none">
              <path
                 id="path6392"
                 d="M 89,1 L 26449,1 L 26537,88 L 26537,174 L 26449,261 L 89,261 L 1,174 L 1,88 L 89,1 z" />
            </g>
            <g
               id="g6394"
               style="fill:none;stroke:#c0c0c0;stroke-width:32.76807404">
              <path
                 id="path6396"
                 d="M 89,1 L 26449,1 L 26537,88 L 26537,174 L 26449,261 L 89,261 L 1,174 L 1,88 L 89,1"
                 style="fill:none;stroke-width:32.76807404" />
            </g>
            <g
               id="g6398" />
          </g>
        </g>
        <g
           style="visibility:visible"
           id="g6400"
           transform="matrix(0.7638141,0,0,1,-657.0377,4996.7912)">
          <desc
             id="desc6402">Drawing</desc>
          <g
             id="g6404">
            <g
               id="g6406"
               style="fill:#c0c0c0;stroke:none">
              <path
                 id="path6408"
                 d="M 89,1 L 26449,1 L 26537,88 L 26537,174 L 26449,261 L 89,261 L 1,174 L 1,88 L 89,1 z" />
            </g>
            <g
               id="g6410"
               style="fill:none;stroke:#c0c0c0;stroke-width:32.76807404">
              <path
                 id="path6412"
                 d="M 89,1 L 26449,1 L 26537,88 L 26537,174 L 26449,261 L 89,261 L 1,174 L 1,88 L 89,1"
                 style="fill:none;stroke-width:32.76807404" />
            </g>
            <g
               id="g6414" />
          </g>
        </g>
        <g
           style="visibility:visible"
           id="g6416"
           transform="matrix(0.7638141,0,0,1,-657.0377,6309.1245)">
          <desc
             id="desc6418">Drawing</desc>
          <g
             id="g6420">
            <g
               id="g6422"
               style="fill:#c0c0c0;stroke:none">
              <path
                 id="path6424"
                 d="M 89,1 L 26449,1 L 26537,88 L 26537,174 L 26449,261 L 89,261 L 1,174 L 1,88 L 89,1 z" />
            </g>
            <g
               id="g6426"
               style="fill:none;stroke:#c0c0c0;stroke-width:32.76807404">
              <path
                 id="path6428"
                 d="M 89,1 L 26449,1 L 26537,88 L 26537,174 L 26449,261 L 89,261 L 1,174 L 1,88 L 89,1"
                 style="fill:none;stroke-width:32.76807404" />
            </g>
            <g
               id="g6430" />
          </g>
        </g>
        <g
           style="visibility:visible"
           id="g6432"
           transform="matrix(0.7638141,0,0,1,-657.0377,3628.0133)">
          <desc
             id="desc6434">Drawing</desc>
          <g
             id="g6436">
            <g
               id="g6438"
               style="fill:#c0c0c0;stroke:none">
              <path
                 id="path6440"
                 d="M 89,1 L 26449,1 L 26537,88 L 26537,174 L 26449,261 L 89,261 L 1,174 L 1,88 L 89,1 z" />
            </g>
            <g
               id="g6442"
               style="fill:none;stroke:#c0c0c0;stroke-width:32.76807404">
              <path
                 id="path6444"
                 d="M 89,1 L 26449,1 L 26537,88 L 26537,174 L 26449,261 L 89,261 L 1,174 L 1,88 L 89,1"
                 style="fill:none;stroke-width:32.76807404" />
            </g>
            <g
               id="g6446" />
          </g>
        </g>
      </g>
      <text
         id="text2820"
         y="17.295547"
         x="27.497974"
         style="font-size:8px;font-style:normal;font-variant:normal;font-weight:bold;font-stretch:normal;fill:#000000;fill-opacity:1;stroke:none;stroke-width:1px;stroke-linecap:butt;stroke-linejoin:miter;stroke-opacity:1;font-family:Times New Roman;-inkscape-font-specification:Times New Roman Bold"
         xml:space="preserve"><tspan
           y="17.295547"
           x="27.497974"
           id="tspan2822"
           sodipodi:role="line">DO</tspan></text>
      <text
         id="text2824"
         y="17.48988"
         x="17.392712"
         style="font-size:8px;font-style:normal;font-variant:normal;font-weight:bold;font-stretch:normal;fill:#000000;fill-opacity:1;stroke:none;stroke-width:1px;stroke-linecap:butt;stroke-linejoin:miter;stroke-opacity:1;font-family:Times New Roman;-inkscape-font-specification:Times New Roman Bold"
         xml:space="preserve"><tspan
           y="17.48988"
           x="17.392712"
           id="tspan2826"
           sodipodi:role="line">U</tspan></text>
      <path
         d="M 14.945879,7.240501 C 15.184816,7.1414935 15.268151,7.100257 15.379167,7.1459937 C 15.490184,7.1917305 15.65738,7.3566638 15.764366,7.5282627 C 15.871352,7.6998618 15.965448,8.0805069 16.022141,8.2913361 C 16.078834,8.5021656 16.118483,8.6034317 16.151029,8.9284511 C 16.183575,9.2534706 16.248853,9.890797 16.151029,10.456063 C 16.053204,11.021328 15.607993,12.211697 15.379167,12.619325 C 15.150342,13.026953 15.018715,13.026436 14.863617,13.25644 L 14.863617,13.511286 L 14.992505,14.146936 L 15.121392,14.401782 C 15.121392,14.401782 15.490238,14.311276 15.764366,14.401782 C 16.038493,14.492289 16.590453,14.763154 16.794002,15.164856 C 16.994532,15.393905 17.115371,15.654616 17.180665,15.927929 C 17.24596,16.201243 17.229532,16.694779 17.180665,16.945849 C 17.131798,17.196918 17.087082,17.42033 16.92289,17.582964 C 16.92289,17.582964 16.319339,18.211468 16.151029,18.347502 C 15.982718,18.483534 15.85275,18.54243 15.85275,18.54243 C 15.85275,18.54243 15.872374,18.835314 15.941135,19.110575 C 16.009896,19.385837 16.206328,20.088327 16.19891,20.383341 C 16.191153,20.691847 16.173828,20.94838 16.070022,21.147879 C 15.966217,21.347378 15.793993,21.543125 15.635478,21.656106 C 15.476963,21.769088 15.336742,21.860504 15.121392,21.910952 C 14.906042,21.9614 14.414343,21.942046 14.220644,21.910952 C 14.026943,21.879858 13.996021,21.870711 13.833981,21.783529 C 13.671941,21.696347 13.312869,21.481174 13.191007,21.275302 C 13.069146,21.069429 12.99205,20.767344 13.06212,20.510764 C 13.132188,20.254184 13.358673,19.835154 13.705093,19.74769 C 14.051514,19.660227 14.682159,19.928858 14.816991,20.28292 C 14.951824,20.636981 14.690102,21.144977 14.478419,21.275302 C 14.266736,21.405626 13.962869,21.275302 13.962869,21.275302 C 13.962869,21.275302 14.148622,21.484987 14.349532,21.530148 C 14.550439,21.575308 15.024804,21.530687 15.25028,21.402725 C 15.475755,21.274761 15.691653,20.971514 15.764366,20.76561 C 15.837078,20.559706 15.794281,20.443583 15.764366,20.128495 C 15.73445,19.813405 15.487176,18.681889 15.487176,18.681889 L 15.25028,18.728306 L 14.091756,18.728306 C 13.765777,18.728306 13.469775,18.538392 13.191007,18.347502 C 12.912238,18.156612 12.633715,17.901277 12.419146,17.582964 C 12.204577,17.264651 11.98952,16.84064 11.903596,16.437621 C 11.81767,16.034603 11.81767,15.567874 11.903596,15.164856 C 11.98952,14.761837 12.204577,14.380058 12.419146,14.019513 C 12.633715,13.658969 12.888186,13.300968 13.191007,13.001594 L 14.091756,12.111098 C 14.091756,12.111098 14.012568,12.007428 13.962869,11.856252 C 13.913168,11.705075 13.862793,11.43595 13.833981,11.091713 C 13.805167,10.747477 13.770993,9.9881204 13.833981,9.564102 C 13.896967,9.1400822 14.093925,8.5755762 14.220644,8.2913361 C 14.347361,8.0070963 14.488426,7.7849268 14.619343,7.586716 M 15.25028,8.2913361 C 14.998868,8.2913361 14.949941,8.5361972 14.823114,8.8204429 C 14.696287,9.1046889 14.538374,9.7961349 14.478419,10.201217 C 14.418463,10.606299 14.478419,11.601406 14.478419,11.601406 L 14.605842,11.601406 C 14.605842,11.601406 15.091424,11.196644 15.25028,10.96429 C 15.409135,10.731935 15.567274,10.403259 15.635478,10.073794 C 15.703682,9.7443294 15.699312,9.0700499 15.635478,8.8010281 C 15.571645,8.5320066 15.586142,8.2913361 15.379167,8.2913361 L 15.25028,8.2913361 z M 14.478419,13.638709 C 14.478419,13.638709 13.566734,14.428824 13.319895,14.784052 C 13.073055,15.139279 12.872009,15.613121 12.804344,15.927929 C 12.736678,16.242737 12.804344,16.81989 12.804344,16.81989 C 12.804344,17.052332 12.944905,17.279518 13.06212,17.455541 C 13.179334,17.631563 13.576206,17.965233 13.576206,17.965233 C 13.811935,18.198947 14.220919,18.295201 14.478419,18.347502 C 14.735919,18.399802 15.25028,18.347502 15.25028,18.347502 L 15.379167,18.220079 L 15.311662,17.683385 L 14.9385,15.646081 C 14.763312,15.645513 14.639169,15.688834 14.478419,15.800506 C 14.317668,15.912177 13.915195,16.155374 13.962869,16.437621 C 13.926451,16.735949 14.000625,17.025317 14.091756,17.200695 C 14.182886,17.376073 14.385299,17.544703 14.478419,17.582964 C 14.571537,17.621223 14.563016,17.565368 14.605842,17.582964 C 14.648667,17.60056 14.734729,17.656014 14.734729,17.710387 C 14.734729,17.76476 14.66655,17.812866 14.605842,17.83781 C 14.545133,17.862753 14.42897,17.856371 14.349532,17.83781 C 14.270091,17.819247 14.23737,17.814332 14.091756,17.710387 C 13.946142,17.606442 13.583322,17.351067 13.448783,17.073272 C 13.314243,16.795475 13.319895,16.125808 13.319895,15.927929 C 13.319895,15.730049 13.667183,15.224159 13.833981,15.037433 C 14.000778,14.850705 14.146299,14.723857 14.349532,14.656629 L 14.734729,14.529205 L 14.734729,14.274359 L 14.605842,13.638709 L 14.478419,13.638709 z M 15.371789,15.572662 L 15.379167,15.673083 L 15.764366,17.965233 L 15.893253,17.965233 C 16.155152,17.766093 16.334913,17.442434 16.408804,17.200695 C 16.482695,16.958956 16.499528,16.686019 16.408804,16.437621 C 16.31808,16.189223 16.091062,15.756652 15.764366,15.673083 L 15.371789,15.572662 z"
         style="fill:#000000;stroke:#000000;stroke-width:0;stroke-miterlimit:4;stroke-dasharray:none;visibility:visible"
         id="path7713" />
      <path
         d="M 26.051795,9.7708143 C 25.915126,9.7761251 25.781774,9.7973711 25.674612,9.8186082 C 25.460287,9.8610826 25.235503,9.9642073 25.064918,10.07437 C 24.894332,10.184532 24.751792,10.277305 24.623148,10.425719 C 24.494505,10.574136 24.388054,10.780738 24.388054,10.964368 C 24.388054,13.298015 24.388054,17.905447 24.388054,17.965514 C 24.388054,18.025582 24.451735,18.070867 24.515935,18.092104 C 24.580134,18.113341 24.708544,18.113341 24.772988,18.092104 C 24.837432,18.070867 24.888895,18.024454 24.90216,17.965514 L 25.160505,16.819754 C 25.194191,16.670083 25.22318,16.649776 25.416267,16.437405 C 25.609354,16.225033 26.124803,15.758241 26.31789,15.546114 C 26.510978,15.333987 26.510744,15.270755 26.574943,15.165057 C 26.639142,15.059358 26.661154,15.01782 26.704116,14.911877 C 26.747078,14.805936 26.810514,14.762892 26.831996,14.529528 C 26.853478,14.296163 26.917677,13.893431 26.831996,13.511649 C 26.746315,13.129868 26.573707,12.61737 26.31789,12.238008 L 26.060837,11.855658 L 26.31789,11.729069 C 26.64253,11.568593 26.961698,11.197732 27.090341,10.964368 C 27.218984,10.731002 27.197747,10.519731 27.090341,10.328841 C 26.982935,10.137949 26.681822,9.9035569 26.445771,9.8186082 C 26.327746,9.7761339 26.188464,9.765505 26.051795,9.7708143 z M 24.772988,11.983538 L 25.802492,11.983538 L 25.931665,12.11142 C 26.161793,12.338933 26.232209,12.768053 26.31789,13.001418 C 26.403572,13.234781 26.424534,13.299522 26.445771,13.511649 C 26.467008,13.723776 26.467008,14.082876 26.445771,14.273766 C 26.424534,14.464656 26.38209,14.528937 26.31789,14.656116 C 26.253691,14.783294 26.168243,14.91024 26.060837,15.037175 C 25.953431,15.16411 25.836719,15.337949 25.674612,15.418234 L 24.90216,15.800584 L 24.772988,15.800584 L 24.772988,11.983538 z"
         style="fill:#000000;stroke:#000000;stroke-width:0;stroke-miterlimit:4;stroke-dasharray:none;visibility:visible"
         id="path7705" />
    </g>
  </g>
  <g
     inkscape:groupmode="layer"
     id="layer4"
     inkscape:label="new"
     style="display:none">
    <path
       sodipodi:type="arc"
       style="fill:url(#radialGradient278);fill-opacity:1;fill-rule:nonzero;stroke:none;stroke-width:1.25000024;stroke-linecap:butt;stroke-linejoin:round;marker:none;marker-start:none;marker-mid:none;marker-end:none;stroke-miterlimit:4;stroke-dashoffset:0;stroke-opacity:1;visibility:visible;display:block"
       id="path12511"
       sodipodi:cx="55"
       sodipodi:cy="125"
       sodipodi:rx="14.375"
       sodipodi:ry="14.375"
       d="M 69.375,125 A 14.375,14.375 0 1 1 40.625,125 A 14.375,14.375 0 1 1 69.375,125 z"
       transform="matrix(0.783292,0,0,0.783292,-6.340883,-86.65168)"
       inkscape:export-filename="/home/jimmac/ximian_art/icons/nautilus/suse93/stock_new-16.png"
       inkscape:export-xdpi="33.852203"
       inkscape:export-ydpi="33.852203" />
  </g>
</svg>
