<?xml version="1.0" encoding="UTF-8" standalone="no"?>
<svg
   xmlns:dc="http://purl.org/dc/elements/1.1/"
   xmlns:cc="http://creativecommons.org/ns#"
   xmlns:rdf="http://www.w3.org/1999/02/22-rdf-syntax-ns#"
   xmlns:svg="http://www.w3.org/2000/svg"
   xmlns="http://www.w3.org/2000/svg"
   xmlns:sodipodi="http://sodipodi.sourceforge.net/DTD/sodipodi-0.dtd"
   xmlns:inkscape="http://www.inkscape.org/namespaces/inkscape"
   version="1.0"
   viewBox="0 0 20989 29701"
   preserveAspectRatio="xMidYMid"
   id="svg3593"
   sodipodi:version="0.32"
   inkscape:version="0.46"
   width="739.20496"
   height="739.20001"
   sodipodi:docname="Logo_ts.svg"
   inkscape:output_extension="org.inkscape.output.svg.inkscape"
   style="fill-rule:evenodd">
  <metadata
     id="metadata4596">
    <rdf:RDF>
      <cc:Work
         rdf:about="">
        <dc:format>image/svg+xml</dc:format>
        <dc:type
           rdf:resource="http://purl.org/dc/dcmitype/StillImage" />
      </cc:Work>
    </rdf:RDF>
  </metadata>
  <defs
     id="defs4594">
    <inkscape:perspective
       sodipodi:type="inkscape:persp3d"
       inkscape:vp_x="0 : 526.18109 : 1"
       inkscape:vp_y="0 : 1000 : 0"
       inkscape:vp_z="744.09448 : 526.18109 : 1"
       inkscape:persp3d-origin="372.04724 : 350.78739 : 1"
       id="perspective4598" />
  </defs>
  <sodipodi:namedview
     inkscape:window-height="701"
     inkscape:window-width="640"
     inkscape:pageshadow="2"
     inkscape:pageopacity="0.0"
     guidetolerance="10.0"
     gridtolerance="10.0"
     objecttolerance="10.0"
     borderopacity="1.0"
     bordercolor="#666666"
     pagecolor="#ffffff"
     id="base"
     showgrid="false"
     inkscape:zoom="0.46942014"
     inkscape:cx="372.04724"
     inkscape:cy="440.96958"
     inkscape:window-x="414"
     inkscape:window-y="192"
     inkscape:current-layer="svg3593" />
  <g
     visibility="visible"
     id="Standard"
     style="visibility:visible"
     transform="translate(-39.149179,-8473.7575)">
    <desc
       id="desc3596">Master slide</desc>
  </g>
  <g
     visibility="visible"
     id="page1"
     transform="matrix(1.6581983,0,0,1.6581983,-7348.4426,-6910.26)"
     style="visibility:visible">
    <desc
       id="desc3599">Slide</desc>
    <g
       id="g3601">
      <desc
         id="desc3603">Drawing</desc>
      <g
         id="g3605">
        <g
           style="fill:#ffffff;stroke:none"
           id="g3607">
          <path
             d="M 15955,4659 L 16384,4685 L 16768,4760 L 17111,4878 L 17413,5033 L 17677,5218 L 17907,5430 L 18104,5660 L 18270,5905 L 18409,6157 L 18522,6411 L 18612,6661 L 18681,6902 L 18732,7127 L 18766,7331 L 18788,7507 L 18798,7651 L 18797,7781 L 18783,7919 L 18757,8063 L 18720,8213 L 18619,8525 L 18485,8843 L 18327,9156 L 18154,9455 L 17971,9729 L 17788,9968 L 17535,10246 L 17167,10619 L 16252,11511 L 15382,12355 L 15069,12669 L 14961,12783 L 14893,12863 L 14851,12922 L 14816,12976 L 14789,13026 L 14768,13072 L 14752,13115 L 14741,13156 L 14733,13194 L 14729,13231 L 14723,13369 L 14721,13404 L 14717,13440 L 14710,13477 L 14700,13517 L 10260,13732 L 10274,13696 L 10295,13650 L 10362,13527 L 10571,13185 L 11153,12272 L 11450,11795 L 11699,11366 L 11794,11183 L 11862,11031 L 11885,10967 L 11900,10913 L 11905,10869 L 11904,10851 L 11901,10836 L 11862,10727 L 11814,10619 L 11786,10565 L 11754,10511 L 11718,10457 L 11678,10403 L 11632,10349 L 11581,10294 L 11524,10240 L 11460,10186 L 11311,10077 L 11129,9968 L 11104,9948 L 11082,9926 L 11064,9902 L 11048,9875 L 11036,9847 L 11026,9816 L 11019,9784 L 11015,9749 L 11013,9675 L 11019,9594 L 11033,9507 L 11052,9415 L 11285,8535 L 11417,7649 L 11438,7562 L 11464,7484 L 11495,7416 L 11512,7385 L 11532,7358 L 11553,7334 L 11576,7313 L 11601,7295 L 11628,7281 L 11657,7270 L 11689,7263 L 11723,7259 L 11760,7260 L 11833,7248 L 11908,7223 L 11985,7184 L 12064,7134 L 12228,7001 L 12403,6833 L 13243,5941 L 13497,5701 L 13772,5469 L 14069,5252 L 14391,5058 L 14738,4895 L 15114,4769 L 15519,4688 L 15955,4659 z"
             id="path3609" />
        </g>
        <g
           style="fill:#000000;stroke:none"
           id="g3611">
          <path
             d="M 15961,4559 L 16390,4585 L 16384,4685 L 16378,4785 L 15949,4759 L 15955,4659 L 15961,4559 z"
             id="path3613" />
          <path
             d="M 16384,4685 L 16390,4585 L 16403,4587 L 16384,4685 z"
             id="path3615" />
          <path
             d="M 16403,4587 L 16788,4662 L 16768,4760 L 16749,4858 L 16365,4783 L 16384,4685 L 16403,4587 z"
             id="path3617" />
          <path
             d="M 16768,4760 L 16788,4662 L 16801,4666 L 16768,4760 z"
             id="path3619" />
          <path
             d="M 16801,4666 L 17143,4783 L 17111,4878 L 17078,4972 L 16736,4855 L 16768,4760 L 16801,4666 z"
             id="path3621" />
          <path
             d="M 17111,4878 L 17143,4783 L 17156,4789 L 17111,4878 z"
             id="path3623" />
          <path
             d="M 17156,4789 L 17458,4944 L 17413,5033 L 17367,5122 L 17065,4967 L 17111,4878 L 17156,4789 z"
             id="path3625" />
          <path
             d="M 17413,5033 L 17458,4944 L 17470,4951 L 17413,5033 z"
             id="path3627" />
          <path
             d="M 17470,4951 L 17735,5137 L 17677,5218 L 17620,5300 L 17355,5114 L 17413,5033 L 17470,4951 z"
             id="path3629" />
          <path
             d="M 17677,5218 L 17735,5137 L 17745,5145 L 17677,5218 z"
             id="path3631" />
          <path
             d="M 17745,5145 L 17975,5356 L 17907,5430 L 17839,5503 L 17610,5292 L 17677,5218 L 17745,5145 z"
             id="path3633" />
          <path
             d="M 17907,5430 L 17975,5356 L 17983,5365 L 17907,5430 z"
             id="path3635" />
          <path
             d="M 17983,5365 L 18180,5595 L 18104,5660 L 18028,5725 L 17831,5494 L 17907,5430 L 17983,5365 z"
             id="path3637" />
          <path
             d="M 18104,5660 L 18180,5595 L 18186,5604 L 18104,5660 z"
             id="path3639" />
          <path
             d="M 18186,5604 L 18353,5848 L 18270,5905 L 18187,5961 L 18021,5717 L 18104,5660 L 18186,5604 z"
             id="path3641" />
          <path
             d="M 18270,5905 L 18353,5848 L 18358,5856 L 18270,5905 z"
             id="path3643" />
          <path
             d="M 18358,5856 L 18496,6108 L 18409,6157 L 18321,6205 L 18182,5953 L 18270,5905 L 18358,5856 z"
             id="path3645" />
          <path
             d="M 18409,6157 L 18496,6108 L 18500,6116 L 18409,6157 z"
             id="path3647" />
          <path
             d="M 18500,6116 L 18613,6370 L 18522,6411 L 18430,6451 L 18317,6197 L 18409,6157 L 18500,6116 z"
             id="path3649" />
          <path
             d="M 18522,6411 L 18613,6370 L 18616,6377 L 18522,6411 z"
             id="path3651" />
          <path
             d="M 18616,6377 L 18706,6627 L 18612,6661 L 18517,6695 L 18428,6445 L 18522,6411 L 18616,6377 z"
             id="path3653" />
          <path
             d="M 18612,6661 L 18706,6627 L 18708,6633 L 18612,6661 z"
             id="path3655" />
          <path
             d="M 18708,6633 L 18777,6874 L 18681,6902 L 18585,6929 L 18515,6689 L 18612,6661 L 18708,6633 z"
             id="path3657" />
          <path
             d="M 18681,6902 L 18777,6874 L 18778,6880 L 18681,6902 z"
             id="path3659" />
          <path
             d="M 18778,6880 L 18829,7105 L 18732,7127 L 18634,7149 L 18583,6924 L 18681,6902 L 18778,6880 z"
             id="path3661" />
          <path
             d="M 18732,7127 L 18829,7105 L 18830,7110 L 18732,7127 z"
             id="path3663" />
          <path
             d="M 18830,7110 L 18865,7314 L 18766,7331 L 18668,7348 L 18633,7144 L 18732,7127 L 18830,7110 z"
             id="path3665" />
          <path
             d="M 18766,7331 L 18865,7314 L 18866,7319 L 18766,7331 z"
             id="path3667" />
          <path
             d="M 18866,7319 L 18887,7495 L 18788,7507 L 18689,7519 L 18667,7343 L 18766,7331 L 18866,7319 z"
             id="path3669" />
          <path
             d="M 18788,7507 L 18887,7495 L 18888,7500 L 18788,7507 z"
             id="path3671" />
          <path
             d="M 18888,7500 L 18898,7644 L 18798,7651 L 18698,7658 L 18688,7514 L 18788,7507 L 18888,7500 z"
             id="path3673" />
          <path
             d="M 18798,7651 L 18898,7644 L 18898,7652 L 18798,7651 z"
             id="path3675" />
          <path
             d="M 18898,7652 L 18897,7782 L 18797,7781 L 18697,7780 L 18698,7650 L 18798,7651 L 18898,7652 z"
             id="path3677" />
          <path
             d="M 18797,7781 L 18897,7782 L 18896,7791 L 18797,7781 z"
             id="path3679" />
          <path
             d="M 18896,7791 L 18882,7929 L 18783,7919 L 18683,7908 L 18697,7771 L 18797,7781 L 18896,7791 z"
             id="path3681" />
          <path
             d="M 18783,7919 L 18882,7929 L 18881,7936 L 18783,7919 z"
             id="path3683" />
          <path
             d="M 18881,7936 L 18855,8081 L 18757,8063 L 18659,8046 L 18684,7901 L 18783,7919 L 18881,7936 z"
             id="path3685" />
          <path
             d="M 18757,8063 L 18855,8081 L 18854,8087 L 18757,8063 z"
             id="path3687" />
          <path
             d="M 18854,8087 L 18817,8237 L 18720,8213 L 18623,8190 L 18660,8039 L 18757,8063 L 18854,8087 z"
             id="path3689" />
          <path
             d="M 18720,8213 L 18817,8237 L 18815,8244 L 18720,8213 z"
             id="path3691" />
          <path
             d="M 18815,8244 L 18714,8556 L 18619,8525 L 18523,8494 L 18625,8182 L 18720,8213 L 18815,8244 z"
             id="path3693" />
          <path
             d="M 18619,8525 L 18714,8556 L 18711,8563 L 18619,8525 z"
             id="path3695" />
          <path
             d="M 18711,8563 L 18577,8881 L 18485,8843 L 18393,8804 L 18526,8486 L 18619,8525 L 18711,8563 z"
             id="path3697" />
          <path
             d="M 18485,8843 L 18577,8881 L 18574,8887 L 18485,8843 z"
             id="path3699" />
          <path
             d="M 18574,8887 L 18417,9201 L 18327,9156 L 18238,9111 L 18396,8798 L 18485,8843 L 18574,8887 z"
             id="path3701" />
          <path
             d="M 18327,9156 L 18417,9201 L 18414,9206 L 18327,9156 z"
             id="path3703" />
          <path
             d="M 18414,9206 L 18240,9505 L 18154,9455 L 18067,9405 L 18241,9106 L 18327,9156 L 18414,9206 z"
             id="path3705" />
          <path
             d="M 18154,9455 L 18240,9505 L 18237,9511 L 18154,9455 z"
             id="path3707" />
          <path
             d="M 18237,9511 L 18055,9785 L 17971,9729 L 17888,9674 L 18070,9400 L 18154,9455 L 18237,9511 z"
             id="path3709" />
          <path
             d="M 17971,9729 L 18055,9785 L 18051,9790 L 17971,9729 z"
             id="path3711" />
          <path
             d="M 18051,9790 L 17867,10029 L 17788,9968 L 17709,9907 L 17892,9668 L 17971,9729 L 18051,9790 z"
             id="path3713" />
          <path
             d="M 17788,9968 L 17867,10029 L 17862,10035 L 17788,9968 z"
             id="path3715" />
          <path
             d="M 17862,10035 L 17609,10313 L 17535,10246 L 17461,10178 L 17714,9901 L 17788,9968 L 17862,10035 z"
             id="path3717" />
          <path
             d="M 17535,10246 L 17609,10313 L 17606,10316 L 17535,10246 z"
             id="path3719" />
          <path
             d="M 17606,10316 L 17238,10689 L 17167,10619 L 17095,10549 L 17464,10175 L 17535,10246 L 17606,10316 z"
             id="path3721" />
          <path
             d="M 17167,10619 L 17238,10689 L 17236,10691 L 17167,10619 z"
             id="path3723" />
          <path
             d="M 17236,10691 L 16322,11582 L 16252,11511 L 16182,11439 L 17097,10548 L 17167,10619 L 17236,10691 z"
             id="path3725" />
          <path
             d="M 16252,11511 L 16322,11582 L 16322,11583 L 16252,11511 z"
             id="path3727" />
          <path
             d="M 16322,11583 L 15451,12426 L 15382,12355 L 15312,12283 L 16182,11439 L 16252,11511 L 16322,11583 z"
             id="path3729" />
          <path
             d="M 15382,12355 L 15311,12284 L 15312,12283 L 15382,12355 z"
             id="path3731" />
          <path
             d="M 15452,12425 L 15139,12739 L 15069,12669 L 14998,12598 L 15311,12284 L 15382,12355 L 15452,12425 z"
             id="path3733" />
          <path
             d="M 15069,12669 L 14996,12600 L 14998,12598 L 15069,12669 z"
             id="path3735" />
          <path
             d="M 15141,12737 L 15034,12852 L 14961,12783 L 14888,12715 L 14996,12600 L 15069,12669 L 15141,12737 z"
             id="path3737" />
          <path
             d="M 14961,12783 L 14885,12718 L 14888,12715 L 14961,12783 z"
             id="path3739" />
          <path
             d="M 15037,12848 L 14969,12928 L 14893,12863 L 14817,12798 L 14885,12718 L 14961,12783 L 15037,12848 z"
             id="path3741" />
          <path
             d="M 14893,12863 L 14812,12805 L 14817,12798 L 14893,12863 z"
             id="path3743" />
          <path
             d="M 14974,12921 L 14932,12980 L 14851,12922 L 14770,12863 L 14812,12805 L 14893,12863 L 14974,12921 z"
             id="path3745" />
          <path
             d="M 14851,12922 L 14766,12868 L 14770,12863 L 14851,12922 z"
             id="path3747" />
          <path
             d="M 14935,12975 L 14901,13029 L 14816,12976 L 14732,12922 L 14766,12868 L 14851,12922 L 14935,12975 z"
             id="path3749" />
          <path
             d="M 14816,12976 L 14729,12928 L 14732,12922 L 14816,12976 z"
             id="path3751" />
          <path
             d="M 14904,13024 L 14877,13074 L 14789,13026 L 14701,12978 L 14729,12928 L 14816,12976 L 14904,13024 z"
             id="path3753" />
          <path
             d="M 14789,13026 L 14698,12984 L 14701,12978 L 14789,13026 z"
             id="path3755" />
          <path
             d="M 14880,13067 L 14859,13114 L 14768,13072 L 14677,13030 L 14698,12984 L 14789,13026 L 14880,13067 z"
             id="path3757" />
          <path
             d="M 14768,13072 L 14674,13038 L 14677,13030 L 14768,13072 z"
             id="path3759" />
          <path
             d="M 14862,13107 L 14846,13150 L 14752,13115 L 14658,13081 L 14674,13038 L 14768,13072 L 14862,13107 z"
             id="path3761" />
          <path
             d="M 14752,13115 L 14656,13088 L 14658,13081 L 14752,13115 z"
             id="path3763" />
          <path
             d="M 14848,13142 L 14837,13183 L 14741,13156 L 14644,13129 L 14656,13088 L 14752,13115 L 14848,13142 z"
             id="path3765" />
          <path
             d="M 14741,13156 L 14643,13136 L 14644,13129 L 14741,13156 z"
             id="path3767" />
          <path
             d="M 14839,13175 L 14831,13213 L 14733,13194 L 14635,13175 L 14643,13136 L 14741,13156 L 14839,13175 z"
             id="path3769" />
          <path
             d="M 14733,13194 L 14634,13181 L 14635,13175 L 14733,13194 z"
             id="path3771" />
          <path
             d="M 14832,13207 L 14828,13243 L 14729,13231 L 14629,13218 L 14634,13181 L 14733,13194 L 14832,13207 z"
             id="path3773" />
          <path
             d="M 14729,13231 L 14629,13227 L 14629,13218 L 14729,13231 z"
             id="path3775" />
          <path
             d="M 14829,13234 L 14823,13373 L 14723,13369 L 14623,13365 L 14629,13227 L 14729,13231 L 14829,13234 z"
             id="path3777" />
          <path
             d="M 14723,13369 L 14823,13373 L 14823,13375 L 14723,13369 z"
             id="path3779" />
          <path
             d="M 14823,13375 L 14821,13410 L 14721,13404 L 14621,13398 L 14623,13363 L 14723,13369 L 14823,13375 z"
             id="path3781" />
          <path
             d="M 14721,13404 L 14821,13410 L 14821,13415 L 14721,13404 z"
             id="path3783" />
          <path
             d="M 14821,13415 L 14816,13451 L 14717,13440 L 14618,13429 L 14622,13392 L 14721,13404 L 14821,13415 z"
             id="path3785" />
          <path
             d="M 14717,13440 L 14816,13451 L 14816,13457 L 14717,13440 z"
             id="path3787" />
          <path
             d="M 14816,13457 L 14809,13495 L 14710,13477 L 14612,13460 L 14619,13422 L 14717,13440 L 14816,13457 z"
             id="path3789" />
          <path
             d="M 14710,13477 L 14809,13495 L 14807,13503 L 14710,13477 z"
             id="path3791" />
          <path
             d="M 14807,13503 L 14797,13542 L 14700,13517 L 14603,13492 L 14614,13452 L 14710,13477 L 14807,13503 z"
             id="path3793" />
          <path
             d="M 14700,13517 L 14797,13542 L 14791,13559 L 14782,13574 L 14771,13587 L 14758,13599 L 14743,13607 L 14727,13613 L 14709,13617 L 14705,13617 L 14700,13517 z"
             id="path3795" />
          <path
             d="M 14705,13617 L 10265,13832 L 10260,13732 L 10255,13632 L 14695,13417 L 14700,13517 L 14705,13617 z"
             id="path3797" />
          <path
             d="M 10260,13732 L 10265,13832 L 10247,13831 L 10230,13828 L 10214,13821 L 10200,13812 L 10187,13800 L 10176,13786 L 10168,13771 L 10162,13754 L 10160,13737 L 10161,13719 L 10164,13702 L 10166,13697 L 10260,13732 z"
             id="path3799" />
          <path
             d="M 10166,13697 L 10180,13661 L 10274,13696 L 10367,13732 L 10354,13767 L 10260,13732 L 10166,13697 z"
             id="path3801" />
          <path
             d="M 10274,13696 L 10180,13661 L 10183,13654 L 10274,13696 z"
             id="path3803" />
          <path
             d="M 10183,13654 L 10205,13607 L 10295,13650 L 10386,13692 L 10364,13739 L 10274,13696 L 10183,13654 z"
             id="path3805" />
          <path
             d="M 10295,13650 L 10205,13607 L 10208,13602 L 10295,13650 z"
             id="path3807" />
          <path
             d="M 10208,13602 L 10275,13479 L 10362,13527 L 10450,13575 L 10383,13698 L 10295,13650 L 10208,13602 z"
             id="path3809" />
          <path
             d="M 10362,13527 L 10275,13479 L 10277,13475 L 10362,13527 z"
             id="path3811" />
          <path
             d="M 10277,13475 L 10486,13133 L 10571,13185 L 10656,13237 L 10448,13579 L 10362,13527 L 10277,13475 z"
             id="path3813" />
          <path
             d="M 10571,13185 L 10486,13133 L 10487,13131 L 10571,13185 z"
             id="path3815" />
          <path
             d="M 10487,13131 L 11069,12219 L 11153,12272 L 11238,12326 L 10655,13239 L 10571,13185 L 10487,13131 z"
             id="path3817" />
          <path
             d="M 11153,12272 L 11238,12325 L 11238,12326 L 11153,12272 z"
             id="path3819" />
          <path
             d="M 11068,12220 L 11365,11742 L 11450,11795 L 11535,11848 L 11238,12325 L 11153,12272 L 11068,12220 z"
             id="path3821" />
          <path
             d="M 11450,11795 L 11536,11845 L 11535,11848 L 11450,11795 z"
             id="path3823" />
          <path
             d="M 11363,11745 L 11613,11316 L 11699,11366 L 11786,11416 L 11536,11845 L 11450,11795 L 11363,11745 z"
             id="path3825" />
          <path
             d="M 11699,11366 L 11788,11412 L 11786,11416 L 11699,11366 z"
             id="path3827" />
          <path
             d="M 11610,11320 L 11705,11137 L 11794,11183 L 11883,11230 L 11788,11412 L 11699,11366 L 11610,11320 z"
             id="path3829" />
          <path
             d="M 11794,11183 L 11885,11224 L 11883,11230 L 11794,11183 z"
             id="path3831" />
          <path
             d="M 11703,11143 L 11771,10990 L 11862,11031 L 11954,11071 L 11885,11224 L 11794,11183 L 11703,11143 z"
             id="path3833" />
          <path
             d="M 11862,11031 L 11956,11064 L 11954,11071 L 11862,11031 z"
             id="path3835" />
          <path
             d="M 11768,10997 L 11791,10933 L 11885,10967 L 11979,11001 L 11956,11064 L 11862,11031 L 11768,10997 z"
             id="path3837" />
          <path
             d="M 11885,10967 L 11982,10993 L 11979,11001 L 11885,10967 z"
             id="path3839" />
          <path
             d="M 11789,10941 L 11803,10887 L 11900,10913 L 11996,10939 L 11982,10993 L 11885,10967 L 11789,10941 z"
             id="path3841" />
          <path
             d="M 11900,10913 L 11999,10925 L 11996,10939 L 11900,10913 z"
             id="path3843" />
          <path
             d="M 11800,10900 L 11806,10857 L 11905,10869 L 12004,10881 L 11999,10925 L 11900,10913 L 11800,10900 z"
             id="path3845" />
          <path
             d="M 11905,10869 L 12005,10864 L 12004,10881 L 11905,10869 z"
             id="path3847" />
          <path
             d="M 11805,10873 L 11804,10856 L 11904,10851 L 12004,10846 L 12005,10864 L 11905,10869 L 11805,10873 z"
             id="path3849" />
          <path
             d="M 11904,10851 L 12002,10830 L 12004,10846 L 11904,10851 z"
             id="path3851" />
          <path
             d="M 11807,10872 L 11803,10857 L 11901,10836 L 11999,10815 L 12002,10830 L 11904,10851 L 11807,10872 z"
             id="path3853" />
          <path
             d="M 11901,10836 L 11995,10802 L 11999,10815 L 11901,10836 z"
             id="path3855" />
          <path
             d="M 11807,10870 L 11768,10761 L 11862,10727 L 11956,10693 L 11995,10802 L 11901,10836 L 11807,10870 z"
             id="path3857" />
          <path
             d="M 11862,10727 L 11953,10687 L 11956,10693 L 11862,10727 z"
             id="path3859" />
          <path
             d="M 11770,10768 L 11723,10659 L 11814,10619 L 11906,10579 L 11953,10687 L 11862,10727 L 11770,10768 z"
             id="path3861" />
          <path
             d="M 11814,10619 L 11903,10573 L 11906,10579 L 11814,10619 z"
             id="path3863" />
          <path
             d="M 11725,10665 L 11697,10611 L 11786,10565 L 11875,10519 L 11903,10573 L 11814,10619 L 11725,10665 z"
             id="path3865" />
          <path
             d="M 11786,10565 L 11872,10514 L 11875,10519 L 11786,10565 z"
             id="path3867" />
          <path
             d="M 11700,10616 L 11668,10562 L 11754,10511 L 11840,10460 L 11872,10514 L 11786,10565 L 11700,10616 z"
             id="path3869" />
          <path
             d="M 11754,10511 L 11837,10456 L 11840,10460 L 11754,10511 z"
             id="path3871" />
          <path
             d="M 11671,10566 L 11635,10512 L 11718,10457 L 11802,10402 L 11837,10456 L 11754,10511 L 11671,10566 z"
             id="path3873" />
          <path
             d="M 11718,10457 L 11798,10397 L 11802,10402 L 11718,10457 z"
             id="path3875" />
          <path
             d="M 11638,10517 L 11598,10463 L 11678,10403 L 11758,10343 L 11798,10397 L 11718,10457 L 11638,10517 z"
             id="path3877" />
          <path
             d="M 11678,10403 L 11754,10338 L 11758,10343 L 11678,10403 z"
             id="path3879" />
          <path
             d="M 11601,10467 L 11556,10413 L 11632,10349 L 11709,10284 L 11754,10338 L 11678,10403 L 11601,10467 z"
             id="path3881" />
          <path
             d="M 11632,10349 L 11705,10280 L 11709,10284 L 11632,10349 z"
             id="path3883" />
          <path
             d="M 11559,10417 L 11508,10363 L 11581,10294 L 11654,10226 L 11705,10280 L 11632,10349 L 11559,10417 z"
             id="path3885" />
          <path
             d="M 11581,10294 L 11650,10222 L 11654,10226 L 11581,10294 z"
             id="path3887" />
          <path
             d="M 11512,10367 L 11455,10313 L 11524,10240 L 11593,10168 L 11650,10222 L 11581,10294 L 11512,10367 z"
             id="path3889" />
          <path
             d="M 11524,10240 L 11589,10164 L 11593,10168 L 11524,10240 z"
             id="path3891" />
          <path
             d="M 11459,10316 L 11395,10262 L 11460,10186 L 11525,10110 L 11589,10164 L 11524,10240 L 11459,10316 z"
             id="path3893" />
          <path
             d="M 11460,10186 L 11519,10105 L 11525,10110 L 11460,10186 z"
             id="path3895" />
          <path
             d="M 11401,10267 L 11252,10158 L 11311,10077 L 11370,9996 L 11519,10105 L 11460,10186 L 11401,10267 z"
             id="path3897" />
          <path
             d="M 11311,10077 L 11362,9992 L 11370,9996 L 11311,10077 z"
             id="path3899" />
          <path
             d="M 11259,10163 L 11077,10054 L 11129,9968 L 11181,9882 L 11362,9992 L 11311,10077 L 11259,10163 z"
             id="path3901" />
          <path
             d="M 11129,9968 L 11077,10054 L 11067,10046 L 11129,9968 z"
             id="path3903" />
          <path
             d="M 11067,10046 L 11042,10027 L 11104,9948 L 11166,9870 L 11191,9890 L 11129,9968 L 11067,10046 z"
             id="path3905" />
          <path
             d="M 11104,9948 L 11042,10027 L 11033,10018 L 11104,9948 z"
             id="path3907" />
          <path
             d="M 11033,10018 L 11011,9996 L 11082,9926 L 11154,9856 L 11175,9878 L 11104,9948 L 11033,10018 z"
             id="path3909" />
          <path
             d="M 11082,9926 L 11011,9996 L 11003,9987 L 11082,9926 z"
             id="path3911" />
          <path
             d="M 11003,9987 L 10984,9962 L 11064,9902 L 11143,9841 L 11162,9866 L 11082,9926 L 11003,9987 z"
             id="path3913" />
          <path
             d="M 11064,9902 L 10984,9962 L 10977,9952 L 11064,9902 z"
             id="path3915" />
          <path
             d="M 10977,9952 L 10962,9926 L 11048,9875 L 11135,9825 L 11150,9852 L 11064,9902 L 10977,9952 z"
             id="path3917" />
          <path
             d="M 11048,9875 L 10962,9926 L 10957,9915 L 11048,9875 z"
             id="path3919" />
          <path
             d="M 10957,9915 L 10944,9887 L 11036,9847 L 11128,9807 L 11140,9835 L 11048,9875 L 10957,9915 z"
             id="path3921" />
          <path
             d="M 11036,9847 L 10944,9887 L 10941,9877 L 11036,9847 z"
             id="path3923" />
          <path
             d="M 10941,9877 L 10931,9846 L 11026,9816 L 11122,9786 L 11131,9817 L 11036,9847 L 10941,9877 z"
             id="path3925" />
          <path
             d="M 11026,9816 L 10931,9846 L 10929,9837 L 11026,9816 z"
             id="path3927" />
          <path
             d="M 10929,9837 L 10922,9805 L 11019,9784 L 11117,9763 L 11124,9795 L 11026,9816 L 10929,9837 z"
             id="path3929" />
          <path
             d="M 11019,9784 L 10922,9805 L 10920,9797 L 11019,9784 z"
             id="path3931" />
          <path
             d="M 10920,9797 L 10916,9762 L 11015,9749 L 11114,9736 L 11118,9771 L 11019,9784 L 10920,9797 z"
             id="path3933" />
          <path
             d="M 11015,9749 L 10916,9762 L 10915,9752 L 11015,9749 z"
             id="path3935" />
          <path
             d="M 10915,9752 L 10913,9678 L 11013,9675 L 11113,9672 L 11115,9747 L 11015,9749 L 10915,9752 z"
             id="path3937" />
          <path
             d="M 11013,9675 L 10913,9678 L 10913,9667 L 11013,9675 z"
             id="path3939" />
          <path
             d="M 10913,9667 L 10919,9587 L 11019,9594 L 11119,9602 L 11113,9683 L 11013,9675 L 10913,9667 z"
             id="path3941" />
          <path
             d="M 11019,9594 L 10919,9587 L 10920,9579 L 11019,9594 z"
             id="path3943" />
          <path
             d="M 10920,9579 L 10934,9492 L 11033,9507 L 11131,9523 L 11118,9610 L 11019,9594 L 10920,9579 z"
             id="path3945" />
          <path
             d="M 11033,9507 L 10934,9492 L 10935,9487 L 11033,9507 z"
             id="path3947" />
          <path
             d="M 10935,9487 L 10954,9394 L 11052,9415 L 11150,9435 L 11131,9528 L 11033,9507 L 10935,9487 z"
             id="path3949" />
          <path
             d="M 11052,9415 L 10954,9394 L 10955,9389 L 11052,9415 z"
             id="path3951" />
          <path
             d="M 10955,9389 L 11188,8509 L 11285,8535 L 11382,8561 L 11149,9440 L 11052,9415 L 10955,9389 z"
             id="path3953" />
          <path
             d="M 11285,8535 L 11384,8550 L 11382,8561 L 11285,8535 z"
             id="path3955" />
          <path
             d="M 11186,8520 L 11318,7634 L 11417,7649 L 11516,7664 L 11384,8550 L 11285,8535 L 11186,8520 z"
             id="path3957" />
          <path
             d="M 11417,7649 L 11318,7634 L 11320,7626 L 11417,7649 z"
             id="path3959" />
          <path
             d="M 11320,7626 L 11341,7538 L 11438,7562 L 11536,7586 L 11514,7673 L 11417,7649 L 11320,7626 z"
             id="path3961" />
          <path
             d="M 11438,7562 L 11341,7538 L 11343,7531 L 11438,7562 z"
             id="path3963" />
          <path
             d="M 11343,7531 L 11369,7453 L 11464,7484 L 11559,7515 L 11533,7593 L 11438,7562 L 11343,7531 z"
             id="path3965" />
          <path
             d="M 11464,7484 L 11369,7453 L 11373,7443 L 11464,7484 z"
             id="path3967" />
          <path
             d="M 11373,7443 L 11403,7375 L 11495,7416 L 11586,7457 L 11555,7525 L 11464,7484 L 11373,7443 z"
             id="path3969" />
          <path
             d="M 11495,7416 L 11403,7375 L 11408,7365 L 11495,7416 z"
             id="path3971" />
          <path
             d="M 11408,7365 L 11426,7335 L 11512,7385 L 11599,7436 L 11581,7466 L 11495,7416 L 11408,7365 z"
             id="path3973" />
          <path
             d="M 11512,7385 L 11426,7335 L 11431,7328 L 11512,7385 z"
             id="path3975" />
          <path
             d="M 11431,7328 L 11450,7300 L 11532,7358 L 11613,7416 L 11594,7443 L 11512,7385 L 11431,7328 z"
             id="path3977" />
          <path
             d="M 11532,7358 L 11450,7300 L 11456,7293 L 11532,7358 z"
             id="path3979" />
          <path
             d="M 11456,7293 L 11477,7268 L 11553,7334 L 11628,7400 L 11607,7424 L 11532,7358 L 11456,7293 z"
             id="path3981" />
          <path
             d="M 11553,7334 L 11477,7268 L 11485,7260 L 11553,7334 z"
             id="path3983" />
          <path
             d="M 11485,7260 L 11508,7239 L 11576,7313 L 11643,7387 L 11620,7408 L 11553,7334 L 11485,7260 z"
             id="path3985" />
          <path
             d="M 11576,7313 L 11508,7239 L 11518,7231 L 11576,7313 z"
             id="path3987" />
          <path
             d="M 11518,7231 L 11542,7214 L 11601,7295 L 11659,7377 L 11634,7394 L 11576,7313 L 11518,7231 z"
             id="path3989" />
          <path
             d="M 11601,7295 L 11542,7214 L 11554,7207 L 11601,7295 z"
             id="path3991" />
          <path
             d="M 11554,7207 L 11581,7192 L 11628,7281 L 11675,7369 L 11647,7383 L 11601,7295 L 11554,7207 z"
             id="path3993" />
          <path
             d="M 11628,7281 L 11581,7192 L 11593,7187 L 11628,7281 z"
             id="path3995" />
          <path
             d="M 11593,7187 L 11622,7176 L 11657,7270 L 11692,7364 L 11662,7375 L 11628,7281 L 11593,7187 z"
             id="path3997" />
          <path
             d="M 11657,7270 L 11622,7176 L 11635,7172 L 11657,7270 z"
             id="path3999" />
          <path
             d="M 11635,7172 L 11667,7165 L 11689,7263 L 11711,7360 L 11679,7367 L 11657,7270 L 11635,7172 z"
             id="path4001" />
          <path
             d="M 11689,7263 L 11667,7165 L 11679,7163 L 11689,7263 z"
             id="path4003" />
          <path
             d="M 11679,7163 L 11713,7160 L 11723,7259 L 11733,7359 L 11699,7362 L 11689,7263 L 11679,7163 z"
             id="path4005" />
          <path
             d="M 11723,7259 L 11713,7160 L 11725,7159 L 11723,7259 z"
             id="path4007" />
          <path
             d="M 11725,7159 L 11762,7160 L 11760,7260 L 11758,7360 L 11721,7359 L 11723,7259 L 11725,7159 z"
             id="path4009" />
          <path
             d="M 11760,7260 L 11776,7359 L 11759,7360 L 11758,7360 L 11760,7260 z"
             id="path4011" />
          <path
             d="M 11744,7161 L 11817,7149 L 11833,7248 L 11849,7347 L 11776,7359 L 11760,7260 L 11744,7161 z"
             id="path4013" />
          <path
             d="M 11833,7248 L 11866,7343 L 11849,7347 L 11833,7248 z"
             id="path4015" />
          <path
             d="M 11801,7154 L 11876,7128 L 11908,7223 L 11941,7317 L 11866,7343 L 11833,7248 L 11801,7154 z"
             id="path4017" />
          <path
             d="M 11908,7223 L 11953,7312 L 11941,7317 L 11908,7223 z"
             id="path4019" />
          <path
             d="M 11864,7133 L 11940,7095 L 11985,7184 L 12030,7274 L 11953,7312 L 11908,7223 L 11864,7133 z"
             id="path4021" />
          <path
             d="M 11985,7184 L 12039,7268 L 12030,7274 L 11985,7184 z"
             id="path4023" />
          <path
             d="M 11931,7100 L 12010,7050 L 12064,7134 L 12118,7218 L 12039,7268 L 11985,7184 L 11931,7100 z"
             id="path4025" />
          <path
             d="M 12064,7134 L 12127,7212 L 12118,7218 L 12064,7134 z"
             id="path4027" />
          <path
             d="M 12001,7056 L 12165,6924 L 12228,7001 L 12291,7079 L 12127,7212 L 12064,7134 L 12001,7056 z"
             id="path4029" />
          <path
             d="M 12228,7001 L 12298,7073 L 12291,7079 L 12228,7001 z"
             id="path4031" />
          <path
             d="M 12159,6929 L 12334,6761 L 12403,6833 L 12473,6904 L 12298,7073 L 12228,7001 L 12159,6929 z"
             id="path4033" />
          <path
             d="M 12403,6833 L 12476,6901 L 12473,6904 L 12403,6833 z"
             id="path4035" />
          <path
             d="M 12330,6764 L 13170,5872 L 13243,5941 L 13316,6009 L 12476,6901 L 12403,6833 L 12330,6764 z"
             id="path4037" />
          <path
             d="M 13243,5941 L 13170,5872 L 13175,5868 L 13243,5941 z"
             id="path4039" />
          <path
             d="M 13175,5868 L 13428,5628 L 13497,5701 L 13566,5773 L 13312,6013 L 13243,5941 L 13175,5868 z"
             id="path4041" />
          <path
             d="M 13497,5701 L 13428,5628 L 13432,5624 L 13497,5701 z"
             id="path4043" />
          <path
             d="M 13432,5624 L 13707,5392 L 13772,5469 L 13836,5545 L 13562,5777 L 13497,5701 L 13432,5624 z"
             id="path4045" />
          <path
             d="M 13772,5469 L 13707,5392 L 13713,5388 L 13772,5469 z"
             id="path4047" />
          <path
             d="M 13713,5388 L 14010,5171 L 14069,5252 L 14128,5333 L 13831,5550 L 13772,5469 L 13713,5388 z"
             id="path4049" />
          <path
             d="M 14069,5252 L 14010,5171 L 14017,5167 L 14069,5252 z"
             id="path4051" />
          <path
             d="M 14017,5167 L 14339,4973 L 14391,5058 L 14442,5144 L 14121,5338 L 14069,5252 L 14017,5167 z"
             id="path4053" />
          <path
             d="M 14391,5058 L 14339,4973 L 14348,4968 L 14391,5058 z"
             id="path4055" />
          <path
             d="M 14348,4968 L 14696,4804 L 14738,4895 L 14781,4985 L 14433,5149 L 14391,5058 L 14348,4968 z"
             id="path4057" />
          <path
             d="M 14738,4895 L 14696,4804 L 14706,4800 L 14738,4895 z"
             id="path4059" />
          <path
             d="M 14706,4800 L 15082,4674 L 15114,4769 L 15146,4864 L 14770,4990 L 14738,4895 L 14706,4800 z"
             id="path4061" />
          <path
             d="M 15114,4769 L 15082,4674 L 15094,4671 L 15114,4769 z"
             id="path4063" />
          <path
             d="M 15094,4671 L 15499,4590 L 15519,4688 L 15538,4786 L 15133,4867 L 15114,4769 L 15094,4671 z"
             id="path4065" />
          <path
             d="M 15519,4688 L 15499,4590 L 15512,4588 L 15519,4688 z"
             id="path4067" />
          <path
             d="M 15512,4588 L 15948,4559 L 15955,4659 L 15962,4759 L 15525,4787 L 15519,4688 L 15512,4588 z"
             id="path4069" />
          <path
             d="M 15955,4659 L 15948,4559 L 15961,4559 L 15955,4659 z"
             id="path4071" />
        </g>
        <g
           id="g4073" />
      </g>
    </g>
    <g
       id="g4075">
      <desc
         id="desc4077">Drawing</desc>
      <g
         id="g4079">
        <g
           style="fill:#000000;stroke:none"
           id="g4081">
          <path
             d="M 14645,7653 L 14513,7380 L 14603,7336 L 14693,7293 L 14825,7567 L 14735,7610 L 14645,7653 z"
             id="path4083" />
          <path
             d="M 14603,7336 L 14690,7287 L 14693,7293 L 14603,7336 z"
             id="path4085" />
          <path
             d="M 14516,7386 L 14449,7268 L 14536,7218 L 14622,7169 L 14690,7287 L 14603,7336 L 14516,7386 z"
             id="path4087" />
          <path
             d="M 14536,7218 L 14619,7164 L 14622,7169 L 14536,7218 z"
             id="path4089" />
          <path
             d="M 14452,7273 L 14383,7167 L 14467,7112 L 14550,7058 L 14619,7164 L 14536,7218 L 14452,7273 z"
             id="path4091" />
          <path
             d="M 14467,7112 L 14547,7052 L 14550,7058 L 14467,7112 z"
             id="path4093" />
          <path
             d="M 14387,7172 L 14316,7078 L 14395,7018 L 14475,6958 L 14547,7052 L 14467,7112 L 14387,7172 z"
             id="path4095" />
          <path
             d="M 14395,7018 L 14470,6952 L 14475,6958 L 14395,7018 z"
             id="path4097" />
          <path
             d="M 14321,7084 L 14247,7000 L 14321,6934 L 14396,6868 L 14470,6952 L 14395,7018 L 14321,7084 z"
             id="path4099" />
          <path
             d="M 14321,6934 L 14390,6862 L 14396,6868 L 14321,6934 z"
             id="path4101" />
          <path
             d="M 14253,7007 L 14175,6933 L 14244,6861 L 14313,6788 L 14390,6862 L 14321,6934 L 14253,7007 z"
             id="path4103" />
          <path
             d="M 14244,6861 L 14306,6782 L 14313,6788 L 14244,6861 z"
             id="path4105" />
          <path
             d="M 14183,6940 L 14102,6876 L 14163,6798 L 14225,6719 L 14306,6782 L 14244,6861 L 14183,6940 z"
             id="path4107" />
          <path
             d="M 14163,6798 L 14217,6713 L 14225,6719 L 14163,6798 z"
             id="path4109" />
          <path
             d="M 14110,6882 L 14024,6828 L 14078,6744 L 14131,6659 L 14217,6713 L 14163,6798 L 14110,6882 z"
             id="path4111" />
          <path
             d="M 14078,6744 L 14122,6654 L 14131,6659 L 14078,6744 z"
             id="path4113" />
          <path
             d="M 14033,6833 L 13943,6788 L 13987,6698 L 14032,6609 L 14122,6654 L 14078,6744 L 14033,6833 z"
             id="path4115" />
          <path
             d="M 13987,6698 L 14023,6605 L 14032,6609 L 13987,6698 z"
             id="path4117" />
          <path
             d="M 13951,6792 L 13855,6755 L 13891,6662 L 13927,6568 L 14023,6605 L 13987,6698 L 13951,6792 z"
             id="path4119" />
          <path
             d="M 13891,6662 L 13919,6565 L 13927,6568 L 13891,6662 z"
             id="path4121" />
          <path
             d="M 13864,6758 L 13762,6729 L 13789,6633 L 13817,6536 L 13919,6565 L 13891,6662 L 13864,6758 z"
             id="path4123" />
          <path
             d="M 13789,6633 L 13809,6535 L 13817,6536 L 13789,6633 z"
             id="path4125" />
          <path
             d="M 13770,6731 L 13661,6709 L 13681,6611 L 13700,6513 L 13809,6535 L 13789,6633 L 13770,6731 z"
             id="path4127" />
          <path
             d="M 13681,6611 L 13693,6512 L 13700,6513 L 13681,6611 z"
             id="path4129" />
          <path
             d="M 13668,6710 L 13552,6695 L 13565,6596 L 13578,6497 L 13693,6512 L 13681,6611 L 13668,6710 z"
             id="path4131" />
          <path
             d="M 13565,6596 L 13569,6496 L 13578,6497 L 13565,6596 z"
             id="path4133" />
          <path
             d="M 13561,6696 L 13306,6685 L 13310,6585 L 13314,6485 L 13569,6496 L 13565,6596 L 13561,6696 z"
             id="path4135" />
        </g>
        <g
           id="g4137" />
      </g>
    </g>
    <g
       id="g4139">
      <desc
         id="desc4141">Drawing</desc>
      <g
         id="g4143">
        <g
           style="fill:#ffffff;stroke:none"
           id="g4145">
          <path
             d="M 1984,14890 L 19622,14890 L 19622,21838 L 1984,21838 L 1984,14890 z"
             id="path4147" />
        </g>
        <g
           style="fill:none;stroke:#000000"
           id="g4149">
          <path
             style="fill:none"
             d="M 10803,21838 L 1984,21838 L 1984,14890 L 19622,14890 L 19622,21838 L 10803,21838"
             id="path4151" />
        </g>
        <g
           id="g4153" />
      </g>
    </g>
    <g
       id="g4155">
      <desc
         id="desc4157">Drawing</desc>
      <g
         id="g4159">
        <g
           style="fill:#000000;stroke:none"
           id="g4161">
          <path
             d="M 2491,15662 L 2491,19522 L 3649,19522 L 3649,15662 L 4518,15662 L 4518,19522 L 5676,19522 L 5676,15662 L 7971,15662 L 7971,19522 L 9129,19522 L 9129,15662 L 9950,15662 L 9950,19522 L 11108,19522 L 11108,15662 L 11928,15662 L 11928,19522 L 13086,19522 L 13086,15662 L 15327,15662 L 15327,19522 L 16485,19522 L 16485,15662 L 17381,15662 L 17381,19522 L 18512,19522 L 18512,15662 L 19649,15662 L 19634,13276 L 1864,13276 L 1864,15662 L 2491,15662 z"
             id="path4163" />
        </g>
        <g
           style="fill:none;stroke:#000000"
           id="g4165">
          <path
             style="fill:none"
             d="M 2491,15662 L 2491,19522 L 3649,19522 L 3649,15662 L 4518,15662 L 4518,19522 L 5676,19522 L 5676,15662 L 7971,15662 L 7971,19522 L 9129,19522 L 9129,15662 L 9950,15662 L 9950,19522 L 11108,19522 L 11108,15662 L 11928,15662 L 11928,19522 L 13086,19522 L 13086,15662 L 15327,15662 L 15327,19522 L 16485,19522 L 16485,15662 L 17381,15662 L 17381,19522 L 18512,19522 L 18512,15662 L 19649,15662 L 19634,13276 L 1864,13276 L 1864,15662 L 2491,15662"
             id="path4167" />
        </g>
        <g
           id="g4169" />
      </g>
    </g>
    <g
       id="g4171">
      <desc
         id="desc4173">Drawing</desc>
      <g
         id="g4175">
        <g
           style="fill:#000000;stroke:none"
           id="g4177">
          <path
             d="M 2346,4198 L 19211,4198 L 19211,4298 L 19211,4398 L 2346,4398 L 2346,4298 L 2346,4198 z"
             id="path4179" />
          <path
             d="M 19211,4298 L 19211,4198 L 19218,4198 L 19211,4298 z"
             id="path4181" />
          <path
             d="M 19218,4198 L 19254,4201 L 19247,4300 L 19240,4400 L 19204,4398 L 19211,4298 L 19218,4198 z"
             id="path4183" />
          <path
             d="M 19247,4300 L 19254,4201 L 19266,4202 L 19247,4300 z"
             id="path4185" />
          <path
             d="M 19266,4202 L 19303,4209 L 19283,4308 L 19264,4406 L 19228,4399 L 19247,4300 L 19266,4202 z"
             id="path4187" />
          <path
             d="M 19283,4308 L 19303,4209 L 19314,4212 L 19283,4308 z"
             id="path4189" />
          <path
             d="M 19314,4212 L 19350,4224 L 19320,4319 L 19290,4414 L 19253,4403 L 19283,4308 L 19314,4212 z"
             id="path4191" />
          <path
             d="M 19320,4319 L 19350,4224 L 19359,4227 L 19320,4319 z"
             id="path4193" />
          <path
             d="M 19359,4227 L 19395,4243 L 19356,4335 L 19316,4426 L 19280,4411 L 19320,4319 L 19359,4227 z"
             id="path4195" />
          <path
             d="M 19356,4335 L 19395,4243 L 19404,4247 L 19356,4335 z"
             id="path4197" />
          <path
             d="M 19404,4247 L 19439,4266 L 19391,4354 L 19343,4442 L 19308,4422 L 19356,4335 L 19404,4247 z"
             id="path4199" />
          <path
             d="M 19391,4354 L 19439,4266 L 19446,4270 L 19391,4354 z"
             id="path4201" />
          <path
             d="M 19446,4270 L 19480,4293 L 19425,4376 L 19370,4460 L 19336,4437 L 19391,4354 L 19446,4270 z"
             id="path4203" />
          <path
             d="M 19425,4376 L 19480,4293 L 19487,4298 L 19425,4376 z"
             id="path4205" />
          <path
             d="M 19487,4298 L 19519,4323 L 19457,4402 L 19396,4480 L 19363,4455 L 19425,4376 L 19487,4298 z"
             id="path4207" />
          <path
             d="M 19457,4402 L 19519,4323 L 19525,4328 L 19457,4402 z"
             id="path4209" />
          <path
             d="M 19525,4328 L 19556,4356 L 19488,4430 L 19421,4504 L 19390,4475 L 19457,4402 L 19525,4328 z"
             id="path4211" />
          <path
             d="M 19488,4430 L 19556,4356 L 19561,4362 L 19488,4430 z"
             id="path4213" />
          <path
             d="M 19561,4362 L 19590,4392 L 19517,4460 L 19443,4529 L 19415,4498 L 19488,4430 L 19561,4362 z"
             id="path4215" />
          <path
             d="M 19517,4460 L 19590,4392 L 19595,4398 L 19517,4460 z"
             id="path4217" />
          <path
             d="M 19595,4398 L 19620,4430 L 19542,4493 L 19464,4555 L 19438,4523 L 19517,4460 L 19595,4398 z"
             id="path4219" />
          <path
             d="M 19542,4493 L 19620,4430 L 19625,4437 L 19542,4493 z"
             id="path4221" />
          <path
             d="M 19625,4437 L 19648,4471 L 19565,4526 L 19482,4582 L 19459,4548 L 19542,4493 L 19625,4437 z"
             id="path4223" />
          <path
             d="M 19565,4526 L 19648,4471 L 19653,4478 L 19565,4526 z"
             id="path4225" />
          <path
             d="M 19653,4478 L 19672,4513 L 19585,4562 L 19497,4610 L 19478,4575 L 19565,4526 L 19653,4478 z"
             id="path4227" />
          <path
             d="M 19585,4562 L 19672,4513 L 19676,4522 L 19585,4562 z"
             id="path4229" />
          <path
             d="M 19676,4522 L 19692,4558 L 19600,4598 L 19509,4638 L 19493,4602 L 19585,4562 L 19676,4522 z"
             id="path4231" />
          <path
             d="M 19600,4598 L 19692,4558 L 19696,4567 L 19600,4598 z"
             id="path4233" />
          <path
             d="M 19696,4567 L 19707,4604 L 19612,4634 L 19517,4665 L 19505,4628 L 19600,4598 L 19696,4567 z"
             id="path4235" />
          <path
             d="M 19612,4634 L 19707,4604 L 19710,4615 L 19612,4634 z"
             id="path4237" />
          <path
             d="M 19710,4615 L 19718,4652 L 19619,4671 L 19521,4691 L 19514,4654 L 19612,4634 L 19710,4615 z"
             id="path4239" />
          <path
             d="M 19619,4671 L 19718,4652 L 19719,4664 L 19619,4671 z"
             id="path4241" />
          <path
             d="M 19719,4664 L 19722,4701 L 19622,4708 L 19522,4715 L 19520,4678 L 19619,4671 L 19719,4664 z"
             id="path4243" />
          <path
             d="M 19622,4708 L 19722,4701 L 19722,4708 L 19622,4708 z"
             id="path4245" />
          <path
             d="M 19722,4708 L 19722,21526 L 19622,21526 L 19522,21526 L 19522,4708 L 19622,4708 L 19722,4708 z"
             id="path4247" />
          <path
             d="M 19622,21526 L 19722,21526 L 19722,21533 L 19622,21526 z"
             id="path4249" />
          <path
             d="M 19722,21533 L 19719,21569 L 19620,21562 L 19520,21555 L 19522,21519 L 19622,21526 L 19722,21533 z"
             id="path4251" />
          <path
             d="M 19620,21562 L 19719,21569 L 19718,21581 L 19620,21562 z"
             id="path4253" />
          <path
             d="M 19718,21581 L 19710,21618 L 19612,21598 L 19514,21579 L 19521,21543 L 19620,21562 L 19718,21581 z"
             id="path4255" />
          <path
             d="M 19612,21598 L 19710,21618 L 19708,21629 L 19612,21598 z"
             id="path4257" />
          <path
             d="M 19708,21629 L 19696,21665 L 19601,21635 L 19506,21604 L 19517,21568 L 19612,21598 L 19708,21629 z"
             id="path4259" />
          <path
             d="M 19601,21635 L 19696,21665 L 19692,21675 L 19601,21635 z"
             id="path4261" />
          <path
             d="M 19692,21675 L 19677,21710 L 19585,21670 L 19494,21631 L 19509,21595 L 19601,21635 L 19692,21675 z"
             id="path4263" />
          <path
             d="M 19585,21670 L 19677,21710 L 19673,21719 L 19585,21670 z"
             id="path4265" />
          <path
             d="M 19673,21719 L 19654,21754 L 19566,21705 L 19478,21657 L 19498,21622 L 19585,21670 L 19673,21719 z"
             id="path4267" />
          <path
             d="M 19566,21705 L 19654,21754 L 19649,21761 L 19566,21705 z"
             id="path4269" />
          <path
             d="M 19649,21761 L 19627,21795 L 19543,21739 L 19460,21684 L 19483,21650 L 19566,21705 L 19649,21761 z"
             id="path4271" />
          <path
             d="M 19543,21739 L 19627,21795 L 19622,21801 L 19543,21739 z"
             id="path4273" />
          <path
             d="M 19622,21801 L 19596,21834 L 19518,21772 L 19439,21710 L 19465,21677 L 19543,21739 L 19622,21801 z"
             id="path4275" />
          <path
             d="M 19518,21772 L 19596,21834 L 19591,21840 L 19518,21772 z"
             id="path4277" />
          <path
             d="M 19591,21840 L 19563,21870 L 19490,21802 L 19416,21734 L 19444,21704 L 19518,21772 L 19591,21840 z"
             id="path4279" />
          <path
             d="M 19490,21802 L 19563,21870 L 19558,21876 L 19490,21802 z"
             id="path4281" />
          <path
             d="M 19558,21876 L 19527,21904 L 19459,21830 L 19391,21757 L 19422,21729 L 19490,21802 L 19558,21876 z"
             id="path4283" />
          <path
             d="M 19459,21830 L 19527,21904 L 19521,21909 L 19459,21830 z"
             id="path4285" />
          <path
             d="M 19521,21909 L 19489,21934 L 19427,21856 L 19365,21777 L 19397,21752 L 19459,21830 L 19521,21909 z"
             id="path4287" />
          <path
             d="M 19427,21856 L 19489,21934 L 19482,21939 L 19427,21856 z"
             id="path4289" />
          <path
             d="M 19482,21939 L 19448,21962 L 19393,21879 L 19337,21795 L 19371,21773 L 19427,21856 L 19482,21939 z"
             id="path4291" />
          <path
             d="M 19393,21879 L 19448,21962 L 19441,21966 L 19393,21879 z"
             id="path4293" />
          <path
             d="M 19441,21966 L 19406,21986 L 19357,21898 L 19309,21810 L 19345,21791 L 19393,21879 L 19441,21966 z"
             id="path4295" />
          <path
             d="M 19357,21898 L 19406,21986 L 19397,21990 L 19357,21898 z"
             id="path4297" />
          <path
             d="M 19397,21990 L 19361,22005 L 19321,21914 L 19282,21822 L 19318,21806 L 19357,21898 L 19397,21990 z"
             id="path4299" />
          <path
             d="M 19321,21914 L 19361,22005 L 19352,22009 L 19321,21914 z"
             id="path4301" />
          <path
             d="M 19352,22009 L 19315,22021 L 19285,21925 L 19254,21830 L 19291,21818 L 19321,21914 L 19352,22009 z"
             id="path4303" />
          <path
             d="M 19285,21925 L 19315,22021 L 19304,22023 L 19285,21925 z"
             id="path4305" />
          <path
             d="M 19304,22023 L 19267,22031 L 19248,21933 L 19228,21834 L 19265,21827 L 19285,21925 L 19304,22023 z"
             id="path4307" />
          <path
             d="M 19248,21933 L 19267,22031 L 19255,22032 L 19248,21933 z"
             id="path4309" />
          <path
             d="M 19255,22032 L 19218,22035 L 19211,21935 L 19204,21835 L 19241,21833 L 19248,21933 L 19255,22032 z"
             id="path4311" />
          <path
             d="M 19211,21935 L 19218,22035 L 19211,22035 L 19211,21935 z"
             id="path4313" />
          <path
             d="M 19211,22035 L 2346,22035 L 2346,21935 L 2346,21835 L 19211,21835 L 19211,21935 L 19211,22035 z"
             id="path4315" />
          <path
             d="M 2346,21935 L 2346,22035 L 2339,22035 L 2346,21935 z"
             id="path4317" />
          <path
             d="M 2339,22035 L 2303,22032 L 2310,21933 L 2317,21833 L 2353,21835 L 2346,21935 L 2339,22035 z"
             id="path4319" />
          <path
             d="M 2310,21933 L 2303,22032 L 2291,22031 L 2310,21933 z"
             id="path4321" />
          <path
             d="M 2291,22031 L 2255,22024 L 2274,21925 L 2294,21827 L 2330,21834 L 2310,21933 L 2291,22031 z"
             id="path4323" />
          <path
             d="M 2274,21925 L 2255,22024 L 2244,22021 L 2274,21925 z"
             id="path4325" />
          <path
             d="M 2244,22021 L 2208,22009 L 2238,21914 L 2268,21819 L 2304,21830 L 2274,21925 L 2244,22021 z"
             id="path4327" />
          <path
             d="M 2238,21914 L 2208,22009 L 2198,22006 L 2238,21914 z"
             id="path4329" />
          <path
             d="M 2198,22006 L 2163,21990 L 2202,21899 L 2242,21807 L 2278,21822 L 2238,21914 L 2198,22006 z"
             id="path4331" />
          <path
             d="M 2202,21899 L 2163,21990 L 2154,21986 L 2202,21899 z"
             id="path4333" />
          <path
             d="M 2154,21986 L 2119,21967 L 2167,21879 L 2215,21792 L 2250,21811 L 2202,21899 L 2154,21986 z"
             id="path4335" />
          <path
             d="M 2167,21879 L 2119,21967 L 2112,21963 L 2167,21879 z"
             id="path4337" />
          <path
             d="M 2112,21963 L 2078,21940 L 2134,21857 L 2189,21774 L 2223,21796 L 2167,21879 L 2112,21963 z"
             id="path4339" />
          <path
             d="M 2134,21857 L 2078,21940 L 2072,21936 L 2134,21857 z"
             id="path4341" />
          <path
             d="M 2072,21936 L 2039,21910 L 2101,21832 L 2163,21753 L 2195,21778 L 2134,21857 L 2072,21936 z"
             id="path4343" />
          <path
             d="M 2101,21832 L 2039,21910 L 2034,21905 L 2101,21832 z"
             id="path4345" />
          <path
             d="M 2034,21905 L 2003,21877 L 2071,21804 L 2138,21730 L 2169,21758 L 2101,21832 L 2034,21905 z"
             id="path4347" />
          <path
             d="M 2071,21804 L 2003,21877 L 1998,21872 L 2071,21804 z"
             id="path4349" />
          <path
             d="M 1998,21872 L 1969,21842 L 2042,21773 L 2115,21705 L 2144,21735 L 2071,21804 L 1998,21872 z"
             id="path4351" />
          <path
             d="M 2042,21773 L 1969,21842 L 1964,21836 L 2042,21773 z"
             id="path4353" />
          <path
             d="M 1964,21836 L 1938,21803 L 2017,21741 L 2095,21679 L 2120,21711 L 2042,21773 L 1964,21836 z"
             id="path4355" />
          <path
             d="M 2017,21741 L 1938,21803 L 1934,21797 L 2017,21741 z"
             id="path4357" />
          <path
             d="M 1934,21797 L 1911,21763 L 1994,21707 L 2077,21651 L 2100,21685 L 2017,21741 L 1934,21797 z"
             id="path4359" />
          <path
             d="M 1994,21707 L 1911,21763 L 1906,21756 L 1994,21707 z"
             id="path4361" />
          <path
             d="M 1906,21756 L 1887,21721 L 1974,21672 L 2062,21624 L 2081,21659 L 1994,21707 L 1906,21756 z"
             id="path4363" />
          <path
             d="M 1974,21672 L 1887,21721 L 1883,21712 L 1974,21672 z"
             id="path4365" />
          <path
             d="M 1883,21712 L 1867,21676 L 1959,21636 L 2050,21596 L 2066,21632 L 1974,21672 L 1883,21712 z"
             id="path4367" />
          <path
             d="M 1959,21636 L 1867,21676 L 1863,21667 L 1959,21636 z"
             id="path4369" />
          <path
             d="M 1863,21667 L 1852,21630 L 1947,21600 L 2042,21569 L 2054,21606 L 1959,21636 L 1863,21667 z"
             id="path4371" />
          <path
             d="M 1947,21600 L 1852,21630 L 1849,21619 L 1947,21600 z"
             id="path4373" />
          <path
             d="M 1849,21619 L 1841,21582 L 1940,21563 L 2038,21543 L 2045,21580 L 1947,21600 L 1849,21619 z"
             id="path4375" />
          <path
             d="M 1940,21563 L 1841,21582 L 1840,21570 L 1940,21563 z"
             id="path4377" />
          <path
             d="M 1840,21570 L 1837,21533 L 1937,21526 L 2037,21519 L 2039,21556 L 1940,21563 L 1840,21570 z"
             id="path4379" />
          <path
             d="M 1937,21526 L 1837,21533 L 1837,21526 L 1937,21526 z"
             id="path4381" />
          <path
             d="M 1837,21526 L 1837,4708 L 1937,4708 L 2037,4708 L 2037,21526 L 1937,21526 L 1837,21526 z"
             id="path4383" />
          <path
             d="M 1937,4708 L 1837,4708 L 1837,4701 L 1937,4708 z"
             id="path4385" />
          <path
             d="M 1837,4701 L 1840,4665 L 1939,4672 L 2039,4679 L 2037,4715 L 1937,4708 L 1837,4701 z"
             id="path4387" />
          <path
             d="M 1939,4672 L 1840,4665 L 1841,4653 L 1939,4672 z"
             id="path4389" />
          <path
             d="M 1841,4653 L 1848,4617 L 1947,4636 L 2045,4655 L 2038,4691 L 1939,4672 L 1841,4653 z"
             id="path4391" />
          <path
             d="M 1947,4636 L 1848,4617 L 1851,4606 L 1947,4636 z"
             id="path4393" />
          <path
             d="M 1851,4606 L 1863,4569 L 1958,4600 L 2053,4630 L 2042,4666 L 1947,4636 L 1851,4606 z"
             id="path4395" />
          <path
             d="M 1958,4600 L 1863,4569 L 1866,4560 L 1958,4600 z"
             id="path4397" />
          <path
             d="M 1866,4560 L 1882,4524 L 1973,4564 L 2065,4603 L 2050,4639 L 1958,4600 L 1866,4560 z"
             id="path4399" />
          <path
             d="M 1973,4564 L 1882,4524 L 1886,4516 L 1973,4564 z"
             id="path4401" />
          <path
             d="M 1886,4516 L 1905,4481 L 1993,4529 L 2080,4577 L 2061,4612 L 1973,4564 L 1886,4516 z"
             id="path4403" />
          <path
             d="M 1993,4529 L 1905,4481 L 1909,4474 L 1993,4529 z"
             id="path4405" />
          <path
             d="M 1909,4474 L 1932,4440 L 2015,4495 L 2098,4550 L 2076,4584 L 1993,4529 L 1909,4474 z"
             id="path4407" />
          <path
             d="M 2015,4495 L 1932,4440 L 1936,4433 L 2015,4495 z"
             id="path4409" />
          <path
             d="M 1936,4433 L 1962,4401 L 2040,4462 L 2119,4524 L 2094,4556 L 2015,4495 L 1936,4433 z"
             id="path4411" />
          <path
             d="M 2040,4462 L 1962,4401 L 1967,4395 L 2040,4462 z"
             id="path4413" />
          <path
             d="M 1967,4395 L 1995,4364 L 2068,4432 L 2142,4499 L 2114,4530 L 2040,4462 L 1967,4395 z"
             id="path4415" />
          <path
             d="M 2068,4432 L 1995,4364 L 2000,4359 L 2068,4432 z"
             id="path4417" />
          <path
             d="M 2000,4359 L 2030,4330 L 2099,4403 L 2167,4476 L 2137,4505 L 2068,4432 L 2000,4359 z"
             id="path4419" />
          <path
             d="M 2099,4403 L 2030,4330 L 2036,4325 L 2099,4403 z"
             id="path4421" />
          <path
             d="M 2036,4325 L 2068,4300 L 2131,4378 L 2193,4456 L 2161,4482 L 2099,4403 L 2036,4325 z"
             id="path4423" />
          <path
             d="M 2131,4378 L 2068,4300 L 2075,4295 L 2131,4378 z"
             id="path4425" />
          <path
             d="M 2075,4295 L 2109,4272 L 2165,4355 L 2221,4438 L 2187,4461 L 2131,4378 L 2075,4295 z"
             id="path4427" />
          <path
             d="M 2165,4355 L 2109,4272 L 2116,4267 L 2165,4355 z"
             id="path4429" />
          <path
             d="M 2116,4267 L 2151,4248 L 2200,4335 L 2248,4423 L 2213,4442 L 2165,4355 L 2116,4267 z"
             id="path4431" />
          <path
             d="M 2200,4335 L 2151,4248 L 2160,4244 L 2200,4335 z"
             id="path4433" />
          <path
             d="M 2160,4244 L 2196,4228 L 2236,4320 L 2276,4411 L 2240,4427 L 2200,4335 L 2160,4244 z"
             id="path4435" />
          <path
             d="M 2236,4320 L 2196,4228 L 2205,4224 L 2236,4320 z"
             id="path4437" />
          <path
             d="M 2205,4224 L 2242,4213 L 2272,4308 L 2303,4403 L 2266,4415 L 2236,4320 L 2205,4224 z"
             id="path4439" />
          <path
             d="M 2272,4308 L 2242,4213 L 2253,4210 L 2272,4308 z"
             id="path4441" />
          <path
             d="M 2253,4210 L 2290,4202 L 2309,4301 L 2329,4399 L 2292,4406 L 2272,4308 L 2253,4210 z"
             id="path4443" />
          <path
             d="M 2309,4301 L 2290,4202 L 2302,4201 L 2309,4301 z"
             id="path4445" />
          <path
             d="M 2302,4201 L 2339,4198 L 2346,4298 L 2353,4398 L 2316,4400 L 2309,4301 L 2302,4201 z"
             id="path4447" />
          <path
             d="M 2346,4298 L 2339,4198 L 2346,4198 L 2346,4298 z"
             id="path4449" />
        </g>
        <g
           id="g4451" />
      </g>
    </g>
    <g
       id="g4453">
      <desc
         id="desc4455">Drawing</desc>
      <g
         id="g4457">
        <g
           style="fill:#ff0000;stroke:none"
           id="g4459">
          <path
             d="M 2910,3885 L 5241,4610 L 7646,5465 L 9671,6242 L 10860,6735 L 11418,6966 L 11656,7071 L 11766,7129 L 11871,7194 L 11972,7268 L 12068,7354 L 12160,7453 L 12249,7568 L 12334,7702 L 12417,7856 L 12498,8033 L 12577,8235 L 12641,8440 L 12679,8625 L 12693,8792 L 12685,8941 L 12672,9010 L 12655,9076 L 12633,9138 L 12607,9197 L 12542,9305 L 12462,9404 L 12369,9493 L 12265,9576 L 12152,9653 L 12031,9726 L 11510,10010 L 11335,10062 L 11218,10093 L 11169,10102 L 11121,10105 L 11070,10104 L 11010,10098 L 9685,9910 L 8910,9793 L 7907,9606 L 5598,9114 L 3526,8613 L 2819,8416 L 2590,8341 L 2512,8310 L 2460,8285 L 2312,8221 L 2212,8171 L 2180,8150 L 2158,8133 L 2152,8125 L 2147,8118 L 2146,8112 L 2146,8109 L 2147,8106 L 2151,8101 L 2157,8097 L 2165,8093 L 2176,8090 L 2205,8085 L 2243,8082 L 2344,8082 L 2477,8089 L 4373,8230 L 5857,8348 L 7696,8451 L 9538,8507 L 10352,8508 L 11035,8485 L 10788,8318 L 10437,8102 L 9485,7559 L 7018,6231 L 3310,4298 L 3185,4193 L 3063,4098 L 2867,3949 L 2834,3923 L 2809,3900 L 2801,3891 L 2795,3883 L 2793,3880 L 2792,3877 L 2791,3874 L 2792,3872 L 2793,3870 L 2794,3868 L 2797,3867 L 2800,3866 L 2810,3865 L 2822,3866 L 2858,3872 L 2910,3885 z"
             id="path4461" />
        </g>
        <g
           style="fill:none;stroke:#ff0000"
           id="g4463">
          <path
             style="fill:none"
             d="M 2910,3885 L 5241,4610 L 7646,5465 L 9671,6242 L 10860,6735 L 11418,6966 L 11656,7071 L 11766,7129 L 11871,7194 L 11972,7268 L 12068,7354 L 12160,7453 L 12249,7568 L 12334,7702 L 12417,7856 L 12498,8033 L 12577,8235 L 12641,8440 L 12679,8625 L 12693,8792 L 12685,8941 L 12672,9010 L 12655,9076 L 12633,9138 L 12607,9197 L 12542,9305 L 12462,9404 L 12369,9493 L 12265,9576 L 12152,9653 L 12031,9726 L 11510,10010 L 11335,10062 L 11218,10093 L 11169,10102 L 11121,10105 L 11070,10104 L 11010,10098 L 9685,9910 L 8910,9793 L 7907,9606 L 5598,9114 L 3526,8613 L 2819,8416 L 2590,8341 L 2512,8310 L 2460,8285 L 2312,8221 L 2212,8171 L 2180,8150 L 2158,8133 L 2152,8125 L 2147,8118 L 2146,8112 L 2146,8109 L 2147,8106 L 2151,8101 L 2157,8097 L 2165,8093 L 2176,8090 L 2205,8085 L 2243,8082 L 2344,8082 L 2477,8089 L 4373,8230 L 5857,8348 L 7696,8451 L 9538,8507 L 10352,8508 L 11035,8485 L 10788,8318 L 10437,8102 L 9485,7559 L 7018,6231 L 3310,4298 L 3185,4193 L 3063,4098 L 2867,3949 L 2834,3923 L 2809,3900 L 2801,3891 L 2795,3883 L 2793,3880 L 2792,3877 L 2791,3874 L 2792,3872 L 2793,3870 L 2794,3868 L 2797,3867 L 2800,3866 L 2810,3865 L 2822,3866 L 2858,3872 L 2910,3885"
             id="path4465" />
        </g>
        <g
           id="g4467" />
      </g>
    </g>
    <g
       id="g4469">
      <desc
         id="desc4471">Drawing</desc>
      <g
         id="g4473">
        <g
           style="fill:#000000;stroke:none"
           id="g4475">
          <path
             d="M 14273,7586 L 14272,7559 L 14270,7532 L 14267,7505 L 14262,7479 L 14256,7453 L 14249,7427 L 14240,7401 L 14230,7376 L 14219,7352 L 14206,7328 L 14192,7305 L 14178,7282 L 14162,7260 L 14145,7239 L 14127,7219 L 14108,7200 L 14088,7182 L 14067,7165 L 14045,7149 L 14022,7135 L 13999,7121 L 13975,7108 L 13951,7097 L 13926,7087 L 13900,7078 L 13874,7071 L 13848,7065 L 13822,7060 L 13795,7057 L 13768,7055 L 13741,7054 L 13741,7054 L 13714,7055 L 13687,7057 L 13660,7060 L 13634,7065 L 13608,7071 L 13582,7078 L 13556,7087 L 13531,7097 L 13507,7108 L 13483,7121 L 13460,7135 L 13437,7149 L 13415,7165 L 13394,7182 L 13374,7200 L 13355,7219 L 13337,7239 L 13320,7260 L 13304,7282 L 13290,7305 L 13276,7328 L 13263,7352 L 13252,7376 L 13242,7401 L 13233,7427 L 13226,7453 L 13220,7479 L 13215,7505 L 13212,7532 L 13210,7559 L 13209,7586 L 13209,7586 L 13210,7613 L 13212,7640 L 13215,7667 L 13220,7693 L 13226,7719 L 13233,7745 L 13242,7771 L 13252,7796 L 13263,7820 L 13276,7844 L 13290,7867 L 13304,7890 L 13320,7912 L 13337,7933 L 13355,7953 L 13374,7972 L 13394,7990 L 13415,8007 L 13437,8023 L 13460,8037 L 13483,8051 L 13507,8064 L 13531,8075 L 13556,8085 L 13582,8094 L 13608,8101 L 13634,8107 L 13660,8112 L 13687,8115 L 13714,8117 L 13741,8118 L 13741,8118 L 13768,8117 L 13795,8115 L 13822,8112 L 13848,8107 L 13874,8101 L 13900,8094 L 13926,8085 L 13951,8075 L 13975,8064 L 13999,8051 L 14022,8037 L 14045,8023 L 14067,8007 L 14088,7990 L 14108,7972 L 14127,7953 L 14145,7933 L 14162,7912 L 14178,7890 L 14192,7867 L 14206,7844 L 14219,7820 L 14230,7796 L 14240,7771 L 14249,7745 L 14256,7719 L 14262,7693 L 14267,7667 L 14270,7640 L 14272,7613 L 14273,7586 z"
             id="path4477" />
        </g>
        <g
           style="fill:none;stroke:#000000"
           id="g4479">
          <path
             style="fill:none"
             d="M 13742,8118 L 13687,8115 L 13634,8107 L 13583,8094 L 13535,8076 L 13488,8054 L 13444,8027 L 13403,7997 L 13366,7962 L 13331,7925 L 13301,7884 L 13274,7840 L 13252,7793 L 13234,7745 L 13221,7694 L 13213,7641 L 13210,7587 L 13213,7532 L 13221,7479 L 13234,7428 L 13252,7380 L 13274,7333 L 13301,7289 L 13331,7248 L 13366,7211 L 13403,7176 L 13444,7146 L 13488,7119 L 13535,7097 L 13583,7079 L 13634,7066 L 13687,7058 L 13742,7055 L 13796,7058 L 13849,7066 L 13900,7079 L 13948,7097 L 13995,7119 L 14039,7146 L 14080,7176 L 14117,7211 L 14152,7248 L 14182,7289 L 14209,7333 L 14231,7380 L 14249,7428 L 14262,7479 L 14270,7532 L 14273,7587 L 14270,7641 L 14262,7694 L 14249,7745 L 14231,7793 L 14209,7840 L 14182,7884 L 14152,7925 L 14117,7962 L 14080,7997 L 14039,8027 L 13995,8054 L 13948,8076 L 13900,8094 L 13849,8107 L 13796,8115 L 13742,8118"
             id="path4481" />
        </g>
        <g
           id="g4483" />
      </g>
    </g>
    <g
       id="g4485">
      <desc
         id="desc4487">Drawing</desc>
      <g
         id="g4489">
        <g
           style="fill:#000000;stroke:none"
           id="g4491">
          <path
             d="M 14119,21838 L 14119,15565 L 14219,15565 L 14219,21838 L 14119,21838 z"
             id="path4493" />
        </g>
        <g
           id="g4495" />
      </g>
    </g>
    <g
       id="g4497">
      <desc
         id="desc4499">Drawing</desc>
      <g
         id="g4501">
        <g
           style="fill:#000000;stroke:none"
           id="g4503">
          <path
             d="M 12385,18991 L 12385,21838 L 12285,21838 L 12285,18991 L 12385,18991 z"
             id="path4505" />
        </g>
        <g
           id="g4507" />
      </g>
    </g>
    <g
       id="g4509">
      <desc
         id="desc4511">Drawing</desc>
      <g
         id="g4513">
        <g
           style="fill:#000000;stroke:none"
           id="g4515">
          <path
             d="M 10552,19426 L 10552,21935 L 10452,21935 L 10452,19426 L 10552,19426 z"
             id="path4517" />
        </g>
        <g
           id="g4519" />
      </g>
    </g>
    <g
       id="g4521">
      <desc
         id="desc4523">Drawing</desc>
      <g
         id="g4525">
        <g
           style="fill:#000000;stroke:none"
           id="g4527">
          <path
             d="M 8718,19329 L 8718,21935 L 8618,21935 L 8618,19329 L 8718,19329 z"
             id="path4529" />
        </g>
        <g
           id="g4531" />
      </g>
    </g>
    <g
       id="g4533">
      <desc
         id="desc4535">Drawing</desc>
      <g
         id="g4537">
        <g
           style="fill:#000000;stroke:none"
           id="g4539">
          <path
             d="M 5050,19233 L 5050,21935 L 4950,21935 L 4950,19233 L 5050,19233 z"
             id="path4541" />
        </g>
        <g
           id="g4543" />
      </g>
    </g>
    <g
       id="g4545">
      <desc
         id="desc4547">Drawing</desc>
      <g
         id="g4549">
        <g
           style="fill:#000000;stroke:none"
           id="g4551">
          <path
             d="M 3217,19522 L 3217,21935 L 3117,21935 L 3117,19522 L 3217,19522 z"
             id="path4553" />
        </g>
        <g
           id="g4555" />
      </g>
    </g>
    <g
       id="g4557">
      <desc
         id="desc4559">Drawing</desc>
      <g
         id="g4561">
        <g
           style="fill:#000000;stroke:none"
           id="g4563">
          <path
             d="M 6884,15517 L 6884,21935 L 6784,21935 L 6784,15517 L 6884,15517 z"
             id="path4565" />
        </g>
        <g
           id="g4567" />
      </g>
    </g>
    <g
       id="g4569">
      <desc
         id="desc4571">Drawing</desc>
      <g
         id="g4573">
        <g
           style="fill:#000000;stroke:none"
           id="g4575">
          <path
             d="M 15953,21935 L 15953,18895 L 16053,18895 L 16053,21935 L 15953,21935 z"
             id="path4577" />
        </g>
        <g
           id="g4579" />
      </g>
    </g>
    <g
       id="g4581">
      <desc
         id="desc4583">Drawing</desc>
      <g
         id="g4585">
        <g
           style="fill:#000000;stroke:none"
           id="g4587">
          <path
             d="M 17787,21838 L 17787,18943 L 17887,18943 L 17887,21838 L 17787,21838 z"
             id="path4589" />
        </g>
        <g
           id="g4591" />
      </g>
    </g>
  </g>
</svg>
