<?xml version="1.0" encoding="UTF-8" standalone="no"?>
<!-- Created with Inkscape (http://www.inkscape.org/) -->
<svg
   xmlns:svg="http://www.w3.org/2000/svg"
   xmlns="http://www.w3.org/2000/svg"
   version="1.0"
   width="714.55548"
   height="766.24188"
   viewBox="0 0 20989 29701"
   id="svg3593"
   style="fill-rule:evenodd">
  <defs
     id="defs4594">
    <desc
       id="desc3599">Slide</desc>
    <marker
       refX="0"
       refY="0"
       orient="auto"
       id="Arrow1Lend"
       style="overflow:visible">
      <path
         d="M 0,0 L 5,-5 L -12.5,0 L 5,5 L 0,0 z"
         transform="matrix(-0.8,0,0,-0.8,-10,0)"
         id="path3289"
         style="fill-rule:evenodd;stroke:#000000;stroke-width:1pt;marker-start:none" />
    </marker>
    <marker
       refX="0"
       refY="0"
       orient="auto"
       id="Arrow1Sstart"
       style="overflow:visible">
      <path
         d="M 0,0 L 5,-5 L -12.5,0 L 5,5 L 0,0 z"
         transform="matrix(0.2,0,0,0.2,1.2,0)"
         id="path3298"
         style="fill-rule:evenodd;stroke:#000000;stroke-width:1pt;marker-start:none" />
    </marker>
  </defs>
  <g
     transform="matrix(1.0045388,0,0,1.0045388,15.223835,3.8380676e-8)"
     id="g7579">
    <g
       transform="matrix(0.9296174,0,0,0.9296174,608.86193,-5856.4295)"
       id="Standard"
       style="visibility:visible">
      <desc
         id="desc3596">Master slide</desc>
    </g>
    <g
       transform="matrix(1.5414899,0,0,1.5414899,-6185.9839,-4402.9752)"
       id="g4139"
       style="visibility:visible">
      <desc
         id="desc4141">Drawing</desc>
      <g
         id="g4143">
        <g
           id="g4145"
           style="fill:#ffffff;stroke:none">
          <path
             d="M 1984,14890 L 19622,14890 L 19622,21838 L 1984,21838 L 1984,14890 z"
             id="path4147" />
        </g>
        <g
           id="g4149"
           style="fill:none;stroke:#000000">
          <path
             d="M 10803,21838 L 1984,21838 L 1984,14890 L 19622,14890 L 19622,21838 L 10803,21838"
             id="path4151"
             style="fill:none" />
        </g>
        <g
           id="g4153" />
      </g>
    </g>
    <g
       transform="matrix(1.5414899,0,0,1.5414899,-6185.9839,-4402.9752)"
       id="g4171"
       style="visibility:visible">
      <desc
         id="desc4173">Drawing</desc>
      <g
         id="g4175">
        <g
           id="g4177"
           style="fill:#000000;stroke:none">
          <path
             d="M 2346,4198 L 19211,4198 L 19211,4298 L 19211,4398 L 2346,4398 L 2346,4298 L 2346,4198 z"
             id="path4179" />
          <path
             d="M 19211,4298 L 19211,4198 L 19218,4198 L 19211,4298 z"
             id="path4181" />
          <path
             d="M 19218,4198 L 19254,4201 L 19247,4300 L 19240,4400 L 19204,4398 L 19211,4298 L 19218,4198 z"
             id="path4183" />
          <path
             d="M 19247,4300 L 19254,4201 L 19266,4202 L 19247,4300 z"
             id="path4185" />
          <path
             d="M 19266,4202 L 19303,4209 L 19283,4308 L 19264,4406 L 19228,4399 L 19247,4300 L 19266,4202 z"
             id="path4187" />
          <path
             d="M 19283,4308 L 19303,4209 L 19314,4212 L 19283,4308 z"
             id="path4189" />
          <path
             d="M 19314,4212 L 19350,4224 L 19320,4319 L 19290,4414 L 19253,4403 L 19283,4308 L 19314,4212 z"
             id="path4191" />
          <path
             d="M 19320,4319 L 19350,4224 L 19359,4227 L 19320,4319 z"
             id="path4193" />
          <path
             d="M 19359,4227 L 19395,4243 L 19356,4335 L 19316,4426 L 19280,4411 L 19320,4319 L 19359,4227 z"
             id="path4195" />
          <path
             d="M 19356,4335 L 19395,4243 L 19404,4247 L 19356,4335 z"
             id="path4197" />
          <path
             d="M 19404,4247 L 19439,4266 L 19391,4354 L 19343,4442 L 19308,4422 L 19356,4335 L 19404,4247 z"
             id="path4199" />
          <path
             d="M 19391,4354 L 19439,4266 L 19446,4270 L 19391,4354 z"
             id="path4201" />
          <path
             d="M 19446,4270 L 19480,4293 L 19425,4376 L 19370,4460 L 19336,4437 L 19391,4354 L 19446,4270 z"
             id="path4203" />
          <path
             d="M 19425,4376 L 19480,4293 L 19487,4298 L 19425,4376 z"
             id="path4205" />
          <path
             d="M 19487,4298 L 19519,4323 L 19457,4402 L 19396,4480 L 19363,4455 L 19425,4376 L 19487,4298 z"
             id="path4207" />
          <path
             d="M 19457,4402 L 19519,4323 L 19525,4328 L 19457,4402 z"
             id="path4209" />
          <path
             d="M 19525,4328 L 19556,4356 L 19488,4430 L 19421,4504 L 19390,4475 L 19457,4402 L 19525,4328 z"
             id="path4211" />
          <path
             d="M 19488,4430 L 19556,4356 L 19561,4362 L 19488,4430 z"
             id="path4213" />
          <path
             d="M 19561,4362 L 19590,4392 L 19517,4460 L 19443,4529 L 19415,4498 L 19488,4430 L 19561,4362 z"
             id="path4215" />
          <path
             d="M 19517,4460 L 19590,4392 L 19595,4398 L 19517,4460 z"
             id="path4217" />
          <path
             d="M 19595,4398 L 19620,4430 L 19542,4493 L 19464,4555 L 19438,4523 L 19517,4460 L 19595,4398 z"
             id="path4219" />
          <path
             d="M 19542,4493 L 19620,4430 L 19625,4437 L 19542,4493 z"
             id="path4221" />
          <path
             d="M 19625,4437 L 19648,4471 L 19565,4526 L 19482,4582 L 19459,4548 L 19542,4493 L 19625,4437 z"
             id="path4223" />
          <path
             d="M 19565,4526 L 19648,4471 L 19653,4478 L 19565,4526 z"
             id="path4225" />
          <path
             d="M 19653,4478 L 19672,4513 L 19585,4562 L 19497,4610 L 19478,4575 L 19565,4526 L 19653,4478 z"
             id="path4227" />
          <path
             d="M 19585,4562 L 19672,4513 L 19676,4522 L 19585,4562 z"
             id="path4229" />
          <path
             d="M 19676,4522 L 19692,4558 L 19600,4598 L 19509,4638 L 19493,4602 L 19585,4562 L 19676,4522 z"
             id="path4231" />
          <path
             d="M 19600,4598 L 19692,4558 L 19696,4567 L 19600,4598 z"
             id="path4233" />
          <path
             d="M 19696,4567 L 19707,4604 L 19612,4634 L 19517,4665 L 19505,4628 L 19600,4598 L 19696,4567 z"
             id="path4235" />
          <path
             d="M 19612,4634 L 19707,4604 L 19710,4615 L 19612,4634 z"
             id="path4237" />
          <path
             d="M 19710,4615 L 19718,4652 L 19619,4671 L 19521,4691 L 19514,4654 L 19612,4634 L 19710,4615 z"
             id="path4239" />
          <path
             d="M 19619,4671 L 19718,4652 L 19719,4664 L 19619,4671 z"
             id="path4241" />
          <path
             d="M 19719,4664 L 19722,4701 L 19622,4708 L 19522,4715 L 19520,4678 L 19619,4671 L 19719,4664 z"
             id="path4243" />
          <path
             d="M 19622,4708 L 19722,4701 L 19722,4708 L 19622,4708 z"
             id="path4245" />
          <path
             d="M 19722,4708 L 19722,21526 L 19622,21526 L 19522,21526 L 19522,4708 L 19622,4708 L 19722,4708 z"
             id="path4247" />
          <path
             d="M 19622,21526 L 19722,21526 L 19722,21533 L 19622,21526 z"
             id="path4249" />
          <path
             d="M 19722,21533 L 19719,21569 L 19620,21562 L 19520,21555 L 19522,21519 L 19622,21526 L 19722,21533 z"
             id="path4251" />
          <path
             d="M 19620,21562 L 19719,21569 L 19718,21581 L 19620,21562 z"
             id="path4253" />
          <path
             d="M 19718,21581 L 19710,21618 L 19612,21598 L 19514,21579 L 19521,21543 L 19620,21562 L 19718,21581 z"
             id="path4255" />
          <path
             d="M 19612,21598 L 19710,21618 L 19708,21629 L 19612,21598 z"
             id="path4257" />
          <path
             d="M 19708,21629 L 19696,21665 L 19601,21635 L 19506,21604 L 19517,21568 L 19612,21598 L 19708,21629 z"
             id="path4259" />
          <path
             d="M 19601,21635 L 19696,21665 L 19692,21675 L 19601,21635 z"
             id="path4261" />
          <path
             d="M 19692,21675 L 19677,21710 L 19585,21670 L 19494,21631 L 19509,21595 L 19601,21635 L 19692,21675 z"
             id="path4263" />
          <path
             d="M 19585,21670 L 19677,21710 L 19673,21719 L 19585,21670 z"
             id="path4265" />
          <path
             d="M 19673,21719 L 19654,21754 L 19566,21705 L 19478,21657 L 19498,21622 L 19585,21670 L 19673,21719 z"
             id="path4267" />
          <path
             d="M 19566,21705 L 19654,21754 L 19649,21761 L 19566,21705 z"
             id="path4269" />
          <path
             d="M 19649,21761 L 19627,21795 L 19543,21739 L 19460,21684 L 19483,21650 L 19566,21705 L 19649,21761 z"
             id="path4271" />
          <path
             d="M 19543,21739 L 19627,21795 L 19622,21801 L 19543,21739 z"
             id="path4273" />
          <path
             d="M 19622,21801 L 19596,21834 L 19518,21772 L 19439,21710 L 19465,21677 L 19543,21739 L 19622,21801 z"
             id="path4275" />
          <path
             d="M 19518,21772 L 19596,21834 L 19591,21840 L 19518,21772 z"
             id="path4277" />
          <path
             d="M 19591,21840 L 19563,21870 L 19490,21802 L 19416,21734 L 19444,21704 L 19518,21772 L 19591,21840 z"
             id="path4279" />
          <path
             d="M 19490,21802 L 19563,21870 L 19558,21876 L 19490,21802 z"
             id="path4281" />
          <path
             d="M 19558,21876 L 19527,21904 L 19459,21830 L 19391,21757 L 19422,21729 L 19490,21802 L 19558,21876 z"
             id="path4283" />
          <path
             d="M 19459,21830 L 19527,21904 L 19521,21909 L 19459,21830 z"
             id="path4285" />
          <path
             d="M 19521,21909 L 19489,21934 L 19427,21856 L 19365,21777 L 19397,21752 L 19459,21830 L 19521,21909 z"
             id="path4287" />
          <path
             d="M 19427,21856 L 19489,21934 L 19482,21939 L 19427,21856 z"
             id="path4289" />
          <path
             d="M 19482,21939 L 19448,21962 L 19393,21879 L 19337,21795 L 19371,21773 L 19427,21856 L 19482,21939 z"
             id="path4291" />
          <path
             d="M 19393,21879 L 19448,21962 L 19441,21966 L 19393,21879 z"
             id="path4293" />
          <path
             d="M 19441,21966 L 19406,21986 L 19357,21898 L 19309,21810 L 19345,21791 L 19393,21879 L 19441,21966 z"
             id="path4295" />
          <path
             d="M 19357,21898 L 19406,21986 L 19397,21990 L 19357,21898 z"
             id="path4297" />
          <path
             d="M 19397,21990 L 19361,22005 L 19321,21914 L 19282,21822 L 19318,21806 L 19357,21898 L 19397,21990 z"
             id="path4299" />
          <path
             d="M 19321,21914 L 19361,22005 L 19352,22009 L 19321,21914 z"
             id="path4301" />
          <path
             d="M 19352,22009 L 19315,22021 L 19285,21925 L 19254,21830 L 19291,21818 L 19321,21914 L 19352,22009 z"
             id="path4303" />
          <path
             d="M 19285,21925 L 19315,22021 L 19304,22023 L 19285,21925 z"
             id="path4305" />
          <path
             d="M 19304,22023 L 19267,22031 L 19248,21933 L 19228,21834 L 19265,21827 L 19285,21925 L 19304,22023 z"
             id="path4307" />
          <path
             d="M 19248,21933 L 19267,22031 L 19255,22032 L 19248,21933 z"
             id="path4309" />
          <path
             d="M 19255,22032 L 19218,22035 L 19211,21935 L 19204,21835 L 19241,21833 L 19248,21933 L 19255,22032 z"
             id="path4311" />
          <path
             d="M 19211,21935 L 19218,22035 L 19211,22035 L 19211,21935 z"
             id="path4313" />
          <path
             d="M 19211,22035 L 2346,22035 L 2346,21935 L 2346,21835 L 19211,21835 L 19211,21935 L 19211,22035 z"
             id="path4315" />
          <path
             d="M 2346,21935 L 2346,22035 L 2339,22035 L 2346,21935 z"
             id="path4317" />
          <path
             d="M 2339,22035 L 2303,22032 L 2310,21933 L 2317,21833 L 2353,21835 L 2346,21935 L 2339,22035 z"
             id="path4319" />
          <path
             d="M 2310,21933 L 2303,22032 L 2291,22031 L 2310,21933 z"
             id="path4321" />
          <path
             d="M 2291,22031 L 2255,22024 L 2274,21925 L 2294,21827 L 2330,21834 L 2310,21933 L 2291,22031 z"
             id="path4323" />
          <path
             d="M 2274,21925 L 2255,22024 L 2244,22021 L 2274,21925 z"
             id="path4325" />
          <path
             d="M 2244,22021 L 2208,22009 L 2238,21914 L 2268,21819 L 2304,21830 L 2274,21925 L 2244,22021 z"
             id="path4327" />
          <path
             d="M 2238,21914 L 2208,22009 L 2198,22006 L 2238,21914 z"
             id="path4329" />
          <path
             d="M 2198,22006 L 2163,21990 L 2202,21899 L 2242,21807 L 2278,21822 L 2238,21914 L 2198,22006 z"
             id="path4331" />
          <path
             d="M 2202,21899 L 2163,21990 L 2154,21986 L 2202,21899 z"
             id="path4333" />
          <path
             d="M 2154,21986 L 2119,21967 L 2167,21879 L 2215,21792 L 2250,21811 L 2202,21899 L 2154,21986 z"
             id="path4335" />
          <path
             d="M 2167,21879 L 2119,21967 L 2112,21963 L 2167,21879 z"
             id="path4337" />
          <path
             d="M 2112,21963 L 2078,21940 L 2134,21857 L 2189,21774 L 2223,21796 L 2167,21879 L 2112,21963 z"
             id="path4339" />
          <path
             d="M 2134,21857 L 2078,21940 L 2072,21936 L 2134,21857 z"
             id="path4341" />
          <path
             d="M 2072,21936 L 2039,21910 L 2101,21832 L 2163,21753 L 2195,21778 L 2134,21857 L 2072,21936 z"
             id="path4343" />
          <path
             d="M 2101,21832 L 2039,21910 L 2034,21905 L 2101,21832 z"
             id="path4345" />
          <path
             d="M 2034,21905 L 2003,21877 L 2071,21804 L 2138,21730 L 2169,21758 L 2101,21832 L 2034,21905 z"
             id="path4347" />
          <path
             d="M 2071,21804 L 2003,21877 L 1998,21872 L 2071,21804 z"
             id="path4349" />
          <path
             d="M 1998,21872 L 1969,21842 L 2042,21773 L 2115,21705 L 2144,21735 L 2071,21804 L 1998,21872 z"
             id="path4351" />
          <path
             d="M 2042,21773 L 1969,21842 L 1964,21836 L 2042,21773 z"
             id="path4353" />
          <path
             d="M 1964,21836 L 1938,21803 L 2017,21741 L 2095,21679 L 2120,21711 L 2042,21773 L 1964,21836 z"
             id="path4355" />
          <path
             d="M 2017,21741 L 1938,21803 L 1934,21797 L 2017,21741 z"
             id="path4357" />
          <path
             d="M 1934,21797 L 1911,21763 L 1994,21707 L 2077,21651 L 2100,21685 L 2017,21741 L 1934,21797 z"
             id="path4359" />
          <path
             d="M 1994,21707 L 1911,21763 L 1906,21756 L 1994,21707 z"
             id="path4361" />
          <path
             d="M 1906,21756 L 1887,21721 L 1974,21672 L 2062,21624 L 2081,21659 L 1994,21707 L 1906,21756 z"
             id="path4363" />
          <path
             d="M 1974,21672 L 1887,21721 L 1883,21712 L 1974,21672 z"
             id="path4365" />
          <path
             d="M 1883,21712 L 1867,21676 L 1959,21636 L 2050,21596 L 2066,21632 L 1974,21672 L 1883,21712 z"
             id="path4367" />
          <path
             d="M 1959,21636 L 1867,21676 L 1863,21667 L 1959,21636 z"
             id="path4369" />
          <path
             d="M 1863,21667 L 1852,21630 L 1947,21600 L 2042,21569 L 2054,21606 L 1959,21636 L 1863,21667 z"
             id="path4371" />
          <path
             d="M 1947,21600 L 1852,21630 L 1849,21619 L 1947,21600 z"
             id="path4373" />
          <path
             d="M 1849,21619 L 1841,21582 L 1940,21563 L 2038,21543 L 2045,21580 L 1947,21600 L 1849,21619 z"
             id="path4375" />
          <path
             d="M 1940,21563 L 1841,21582 L 1840,21570 L 1940,21563 z"
             id="path4377" />
          <path
             d="M 1840,21570 L 1837,21533 L 1937,21526 L 2037,21519 L 2039,21556 L 1940,21563 L 1840,21570 z"
             id="path4379" />
          <path
             d="M 1937,21526 L 1837,21533 L 1837,21526 L 1937,21526 z"
             id="path4381" />
          <path
             d="M 1837,21526 L 1837,4708 L 1937,4708 L 2037,4708 L 2037,21526 L 1937,21526 L 1837,21526 z"
             id="path4383" />
          <path
             d="M 1937,4708 L 1837,4708 L 1837,4701 L 1937,4708 z"
             id="path4385" />
          <path
             d="M 1837,4701 L 1840,4665 L 1939,4672 L 2039,4679 L 2037,4715 L 1937,4708 L 1837,4701 z"
             id="path4387" />
          <path
             d="M 1939,4672 L 1840,4665 L 1841,4653 L 1939,4672 z"
             id="path4389" />
          <path
             d="M 1841,4653 L 1848,4617 L 1947,4636 L 2045,4655 L 2038,4691 L 1939,4672 L 1841,4653 z"
             id="path4391" />
          <path
             d="M 1947,4636 L 1848,4617 L 1851,4606 L 1947,4636 z"
             id="path4393" />
          <path
             d="M 1851,4606 L 1863,4569 L 1958,4600 L 2053,4630 L 2042,4666 L 1947,4636 L 1851,4606 z"
             id="path4395" />
          <path
             d="M 1958,4600 L 1863,4569 L 1866,4560 L 1958,4600 z"
             id="path4397" />
          <path
             d="M 1866,4560 L 1882,4524 L 1973,4564 L 2065,4603 L 2050,4639 L 1958,4600 L 1866,4560 z"
             id="path4399" />
          <path
             d="M 1973,4564 L 1882,4524 L 1886,4516 L 1973,4564 z"
             id="path4401" />
          <path
             d="M 1886,4516 L 1905,4481 L 1993,4529 L 2080,4577 L 2061,4612 L 1973,4564 L 1886,4516 z"
             id="path4403" />
          <path
             d="M 1993,4529 L 1905,4481 L 1909,4474 L 1993,4529 z"
             id="path4405" />
          <path
             d="M 1909,4474 L 1932,4440 L 2015,4495 L 2098,4550 L 2076,4584 L 1993,4529 L 1909,4474 z"
             id="path4407" />
          <path
             d="M 2015,4495 L 1932,4440 L 1936,4433 L 2015,4495 z"
             id="path4409" />
          <path
             d="M 1936,4433 L 1962,4401 L 2040,4462 L 2119,4524 L 2094,4556 L 2015,4495 L 1936,4433 z"
             id="path4411" />
          <path
             d="M 2040,4462 L 1962,4401 L 1967,4395 L 2040,4462 z"
             id="path4413" />
          <path
             d="M 1967,4395 L 1995,4364 L 2068,4432 L 2142,4499 L 2114,4530 L 2040,4462 L 1967,4395 z"
             id="path4415" />
          <path
             d="M 2068,4432 L 1995,4364 L 2000,4359 L 2068,4432 z"
             id="path4417" />
          <path
             d="M 2000,4359 L 2030,4330 L 2099,4403 L 2167,4476 L 2137,4505 L 2068,4432 L 2000,4359 z"
             id="path4419" />
          <path
             d="M 2099,4403 L 2030,4330 L 2036,4325 L 2099,4403 z"
             id="path4421" />
          <path
             d="M 2036,4325 L 2068,4300 L 2131,4378 L 2193,4456 L 2161,4482 L 2099,4403 L 2036,4325 z"
             id="path4423" />
          <path
             d="M 2131,4378 L 2068,4300 L 2075,4295 L 2131,4378 z"
             id="path4425" />
          <path
             d="M 2075,4295 L 2109,4272 L 2165,4355 L 2221,4438 L 2187,4461 L 2131,4378 L 2075,4295 z"
             id="path4427" />
          <path
             d="M 2165,4355 L 2109,4272 L 2116,4267 L 2165,4355 z"
             id="path4429" />
          <path
             d="M 2116,4267 L 2151,4248 L 2200,4335 L 2248,4423 L 2213,4442 L 2165,4355 L 2116,4267 z"
             id="path4431" />
          <path
             d="M 2200,4335 L 2151,4248 L 2160,4244 L 2200,4335 z"
             id="path4433" />
          <path
             d="M 2160,4244 L 2196,4228 L 2236,4320 L 2276,4411 L 2240,4427 L 2200,4335 L 2160,4244 z"
             id="path4435" />
          <path
             d="M 2236,4320 L 2196,4228 L 2205,4224 L 2236,4320 z"
             id="path4437" />
          <path
             d="M 2205,4224 L 2242,4213 L 2272,4308 L 2303,4403 L 2266,4415 L 2236,4320 L 2205,4224 z"
             id="path4439" />
          <path
             d="M 2272,4308 L 2242,4213 L 2253,4210 L 2272,4308 z"
             id="path4441" />
          <path
             d="M 2253,4210 L 2290,4202 L 2309,4301 L 2329,4399 L 2292,4406 L 2272,4308 L 2253,4210 z"
             id="path4443" />
          <path
             d="M 2309,4301 L 2290,4202 L 2302,4201 L 2309,4301 z"
             id="path4445" />
          <path
             d="M 2302,4201 L 2339,4198 L 2346,4298 L 2353,4398 L 2316,4400 L 2309,4301 L 2302,4201 z"
             id="path4447" />
          <path
             d="M 2346,4298 L 2339,4198 L 2346,4198 L 2346,4298 z"
             id="path4449" />
        </g>
        <g
           id="g4451" />
      </g>
    </g>
    <g
       transform="matrix(58.954333,0,0,59.576316,-422.6963,-0.7796134)"
       id="g7277">
      <g
         transform="translate(-145.89739,-309.03463)"
         id="layer2"
         style="opacity:1;display:inline" />
      <g
         transform="translate(-145.89739,-309.03463)"
         id="layer1"
         style="display:inline">
        <g
           id="g5624">
          <path
             d="M 391.57008,551.93347 C 393.52199,542.60686 393.0397,518.6869 387.46256,507.98251 C 381.88542,497.27812 374.3749,487.65139 365.02099,485.52921 C 355.66709,483.40702 349.61396,465.68311 356.90535,449.44586 C 364.32111,432.93166 365.90438,425.67952 381.16805,424.03693 C 395.26992,421.49872 401.64098,420.4047 421.12202,410.92578 C 440.73689,401.38173 456.65528,398.44356 472.92828,402.63465 C 507.15119,412.48262 517.57426,442.32534 516.96603,474.93191 C 515.65042,495.34015 503.6113,516.63465 494.07844,530.41548 C 484.65438,544.03903 468.60456,563.7233 451.50029,608.59642 L 381.98491,600.84292 C 386.43831,581.10953 389.61817,561.26008 391.57008,551.93347 z"
             id="path3275"
             style="fill:#ffffff;fill-opacity:1;stroke:#000000;stroke-width:5;stroke-miterlimit:4;stroke-dasharray:none;stroke-opacity:1" />
          <path
             d="M 403.63528,483.58451 C 406.71703,480.91528 403.36892,465.23213 401.98826,460.27044 C 400.19461,453.82457 390.35259,430.23081 385.88626,427.79387 C 376.92396,422.90382 372.21319,419.24025 361.53228,412.04974 C 333.33903,393.06973 303.45548,374.64618 273.05516,358.13626 C 241.39954,339.33636 186.36057,315.21768 174.62839,313.06148 C 164.50812,311.20152 161.81235,308.99418 177.95123,320.0662 C 192.08471,329.76241 219.9846,348.59823 244.93094,365.05006 C 278.01388,386.86789 294.6089,401.84993 341.12849,446.77726 C 280.89311,437.74209 223.28153,430.71739 166.78902,427.08956 C 137.60593,425.825 147.66852,425.90024 165.86109,432.50354 C 189.99651,441.26389 224.5048,450.52198 251.21705,458.90416 C 275.86573,464.79967 299.90289,471.32145 325.14295,476.66347 C 339.61677,479.72683 360.1321,485.65054 375.87794,487.01253 C 398.3269,487.44747 400.55353,486.25374 403.63528,483.58451 z"
             id="path3273"
             style="fill:#ea0000;fill-opacity:1;stroke:#000000;stroke-width:5;stroke-linecap:round;stroke-linejoin:miter;marker-mid:none;stroke-miterlimit:30;stroke-dasharray:none;stroke-dashoffset:0;stroke-opacity:1" />
          <path
             d="M 444.10952,456.27987 C 433.28637,456.27067 433.82602,440.32193 444.21237,440.31909 C 454.59799,440.31624 454.93265,456.28907 444.10952,456.27987 z"
             id="path3271"
             style="fill:#000000;fill-opacity:1;stroke:none;stroke-opacity:1" />
          <path
             d="M 459.5813,451.33326 C 454.55085,446.31946 453.69486,441.10667 446.7588,438.65813 C 439.79996,436.20155 439.16981,441.08262 428.24252,434.21364 C 425.38784,432.41917 428.6594,429.25338 431.96366,431.3642 C 438.87602,435.77996 442.08925,431.16691 450.13867,435.22122 C 458.21667,439.28992 457.64399,442.88015 463.41565,448.7686 C 468.21061,453.66058 463.85229,455.58992 459.5813,451.33326 z"
             id="path3265"
             style="fill:#000000;fill-opacity:1;stroke:none;stroke-width:0.1;stroke-miterlimit:4;stroke-dasharray:none;stroke-opacity:1" />
        </g>
      </g>
    </g>
    <g
       transform="matrix(1.5414899,0,0,1.5414899,-6185.9839,-4402.9752)"
       id="g4155"
       style="visibility:visible">
      <desc
         id="desc4157">Drawing</desc>
      <g
         id="g4159">
        <g
           id="g4161"
           style="fill:#000000;stroke:none">
          <path
             d="M 2491,15662 L 2491,19522 L 3649,19522 L 3649,15662 L 4518,15662 L 4518,19522 L 5676,19522 L 5676,15662 L 7971,15662 L 7971,19522 L 9129,19522 L 9129,15662 L 9950,15662 L 9950,19522 L 11108,19522 L 11108,15662 L 11928,15662 L 11928,19522 L 13086,19522 L 13086,15662 L 15327,15662 L 15327,19522 L 16485,19522 L 16485,15662 L 17381,15662 L 17381,19522 L 18512,19522 L 18512,15662 L 19649,15662 L 19634,13276 L 1864,13276 L 1864,15662 L 2491,15662 z"
             id="path4163" />
        </g>
        <g
           id="g4165"
           style="fill:none;stroke:#000000">
          <path
             d="M 2491,15662 L 2491,19522 L 3649,19522 L 3649,15662 L 4518,15662 L 4518,19522 L 5676,19522 L 5676,15662 L 7971,15662 L 7971,19522 L 9129,19522 L 9129,15662 L 9950,15662 L 9950,19522 L 11108,19522 L 11108,15662 L 11928,15662 L 11928,19522 L 13086,19522 L 13086,15662 L 15327,15662 L 15327,19522 L 16485,19522 L 16485,15662 L 17381,15662 L 17381,19522 L 18512,19522 L 18512,15662 L 19649,15662 L 19634,13276 L 1864,13276 L 1864,15662 L 2491,15662"
             id="path4167"
             style="fill:none" />
        </g>
        <g
           id="g4169" />
      </g>
    </g>
    <g
       transform="matrix(1.5414899,0,0,1.5414899,-6185.9839,-4402.9752)"
       id="g4485"
       style="visibility:visible">
      <desc
         id="desc4487">Drawing</desc>
      <g
         id="g4489">
        <g
           id="g4491"
           style="fill:#000000;stroke:none">
          <path
             d="M 14119,21838 L 14119,15565 L 14219,15565 L 14219,21838 L 14119,21838 z"
             id="path4493" />
        </g>
        <g
           id="g4495" />
      </g>
    </g>
    <g
       transform="matrix(1.5414899,0,0,1.5414899,-6185.9839,-4402.9752)"
       id="g4497"
       style="visibility:visible">
      <desc
         id="desc4499">Drawing</desc>
      <g
         id="g4501">
        <g
           id="g4503"
           style="fill:#000000;stroke:none">
          <path
             d="M 12385,18991 L 12385,21838 L 12285,21838 L 12285,18991 L 12385,18991 z"
             id="path4505" />
        </g>
        <g
           id="g4507" />
      </g>
    </g>
    <g
       transform="matrix(1.5414899,0,0,1.5414899,-6185.9839,-4402.9752)"
       id="g4509"
       style="visibility:visible">
      <desc
         id="desc4511">Drawing</desc>
      <g
         id="g4513">
        <g
           id="g4515"
           style="fill:#000000;stroke:none">
          <path
             d="M 10552,19426 L 10552,21935 L 10452,21935 L 10452,19426 L 10552,19426 z"
             id="path4517" />
        </g>
        <g
           id="g4519" />
      </g>
    </g>
    <g
       transform="matrix(1.5414899,0,0,1.5414899,-6185.9839,-4402.9752)"
       id="g4521"
       style="visibility:visible">
      <desc
         id="desc4523">Drawing</desc>
      <g
         id="g4525">
        <g
           id="g4527"
           style="fill:#000000;stroke:none">
          <path
             d="M 8718,19329 L 8718,21935 L 8618,21935 L 8618,19329 L 8718,19329 z"
             id="path4529" />
        </g>
        <g
           id="g4531" />
      </g>
    </g>
    <g
       transform="matrix(1.5414899,0,0,1.5414899,-6185.9839,-4402.9752)"
       id="g4533"
       style="visibility:visible">
      <desc
         id="desc4535">Drawing</desc>
      <g
         id="g4537">
        <g
           id="g4539"
           style="fill:#000000;stroke:none">
          <path
             d="M 5050,19233 L 5050,21935 L 4950,21935 L 4950,19233 L 5050,19233 z"
             id="path4541" />
        </g>
        <g
           id="g4543" />
      </g>
    </g>
    <g
       transform="matrix(1.5414899,0,0,1.5414899,-6185.9839,-4402.9752)"
       id="g4545"
       style="visibility:visible">
      <desc
         id="desc4547">Drawing</desc>
      <g
         id="g4549">
        <g
           id="g4551"
           style="fill:#000000;stroke:none">
          <path
             d="M 3217,19522 L 3217,21935 L 3117,21935 L 3117,19522 L 3217,19522 z"
             id="path4553" />
        </g>
        <g
           id="g4555" />
      </g>
    </g>
    <g
       transform="matrix(1.5414899,0,0,1.5414899,-6185.9839,-4402.9752)"
       id="g4557"
       style="visibility:visible">
      <desc
         id="desc4559">Drawing</desc>
      <g
         id="g4561">
        <g
           id="g4563"
           style="fill:#000000;stroke:none">
          <path
             d="M 6884,15517 L 6884,21935 L 6784,21935 L 6784,15517 L 6884,15517 z"
             id="path4565" />
        </g>
        <g
           id="g4567" />
      </g>
    </g>
    <g
       transform="matrix(1.5414899,0,0,1.5414899,-6185.9839,-4402.9752)"
       id="g4569"
       style="visibility:visible">
      <desc
         id="desc4571">Drawing</desc>
      <g
         id="g4573">
        <g
           id="g4575"
           style="fill:#000000;stroke:none">
          <path
             d="M 15953,21935 L 15953,18895 L 16053,18895 L 16053,21935 L 15953,21935 z"
             id="path4577" />
        </g>
        <g
           id="g4579" />
      </g>
    </g>
    <g
       transform="matrix(1.5414899,0,0,1.5414899,-6185.9839,-4402.9752)"
       id="g4581"
       style="visibility:visible">
      <desc
         id="desc4583">Drawing</desc>
      <g
         id="g4585">
        <g
           id="g4587"
           style="fill:#000000;stroke:none">
          <path
             d="M 17787,21838 L 17787,18943 L 17887,18943 L 17887,21838 L 17787,21838 z"
             id="path4589" />
        </g>
        <g
           id="g4591" />
      </g>
    </g>
  </g>
</svg>
