<?xml version="1.0" encoding="UTF-8" standalone="no"?>
<!-- Created with Inkscape (http://www.inkscape.org/) -->

<svg
   xmlns:dc="http://purl.org/dc/elements/1.1/"
   xmlns:cc="http://creativecommons.org/ns#"
   xmlns:rdf="http://www.w3.org/1999/02/22-rdf-syntax-ns#"
   xmlns:svg="http://www.w3.org/2000/svg"
   xmlns="http://www.w3.org/2000/svg"
   xmlns:sodipodi="http://sodipodi.sourceforge.net/DTD/sodipodi-0.dtd"
   xmlns:inkscape="http://www.inkscape.org/namespaces/inkscape"
   id="svg5186"
   version="1.1"
   inkscape:version="0.47 r22583"
   width="32"
   height="32"
   sodipodi:docname="TonsystOpenIcon.svg">
  <metadata
     id="metadata5192">
    <rdf:RDF>
      <cc:Work
         rdf:about="">
        <dc:format>image/svg+xml</dc:format>
        <dc:type
           rdf:resource="http://purl.org/dc/dcmitype/StillImage" />
        <dc:title></dc:title>
      </cc:Work>
    </rdf:RDF>
  </metadata>
  <defs
     id="defs5190">
    <inkscape:perspective
       sodipodi:type="inkscape:persp3d"
       inkscape:vp_x="0 : 0.5 : 1"
       inkscape:vp_y="0 : 1000 : 0"
       inkscape:vp_z="1 : 0.5 : 1"
       inkscape:persp3d-origin="0.5 : 0.33333333 : 1"
       id="perspective5194" />
    <inkscape:perspective
       id="perspective5474"
       inkscape:persp3d-origin="0.5 : 0.33333333 : 1"
       inkscape:vp_z="1 : 0.5 : 1"
       inkscape:vp_y="0 : 1000 : 0"
       inkscape:vp_x="0 : 0.5 : 1"
       sodipodi:type="inkscape:persp3d" />
    <inkscape:perspective
       id="perspective6008"
       inkscape:persp3d-origin="0.5 : 0.33333333 : 1"
       inkscape:vp_z="1 : 0.5 : 1"
       inkscape:vp_y="0 : 1000 : 0"
       inkscape:vp_x="0 : 0.5 : 1"
       sodipodi:type="inkscape:persp3d" />
    <inkscape:perspective
       id="perspective6176"
       inkscape:persp3d-origin="10 : 6.6666667 : 1"
       inkscape:vp_z="20 : 10 : 1"
       inkscape:vp_y="0 : 1000 : 0"
       inkscape:vp_x="0 : 10 : 1"
       sodipodi:type="inkscape:persp3d" />
  </defs>
  <sodipodi:namedview
     pagecolor="#ffffff"
     bordercolor="#666666"
     borderopacity="1"
     objecttolerance="10"
     gridtolerance="10"
     guidetolerance="10"
     inkscape:pageopacity="0"
     inkscape:pageshadow="2"
     inkscape:window-width="1213"
     inkscape:window-height="785"
     id="namedview5188"
     showgrid="false"
     inkscape:zoom="10.429825"
     inkscape:cx="15.354936"
     inkscape:cy="14.221415"
     inkscape:window-x="22"
     inkscape:window-y="1"
     inkscape:window-maximized="0"
     inkscape:current-layer="svg5186" />
  <rect
     style="fill:none;stroke:#808080;stroke-width:1;stroke-linecap:butt;stroke-linejoin:miter;stroke-opacity:1;stroke-dasharray:none"
     id="rect5488-7"
     width="30"
     height="30"
     x="1.5"
     y="1.5"
     ry="1.1555772" />
  <rect
     style="fill:#ffffff;stroke:#000000;stroke-width:1;stroke-miterlimit:30;stroke-opacity:1;stroke-dasharray:none;stroke-linecap:square"
     id="rect5488"
     width="29.996704"
     height="29.996704"
     x="0.50164771"
     y="0.50164711"
     ry="1.1554502" />
  <path
     d="M 7.1927509,2.427271 C 7.5921233,2.2617809 7.7314128,2.1928583 7.9169698,2.2692995 c 0.185553,0.076453 0.4650204,0.3521255 0.6438423,0.6389453 0.1788258,0.2868178 0.3360988,0.9230485 0.4308579,1.275439 0.094755,0.3523906 0.1610184,0.5216518 0.2154299,1.0649041 0.054411,0.5432543 0.1634918,1.6085146 0,2.5533276 C 9.0435885,8.7467265 8.299441,10.736369 7.9169698,11.4177 7.5345005,12.099028 7.3144942,12.098166 7.055254,12.482606 l 0,0.425963 0.21543,1.062456 0.2154279,0.425963 c 0,0 0.616508,-0.151283 1.0747002,0 0.4581883,0.151284 1.3807618,0.604015 1.7209839,1.275439 0.335177,0.382845 0.537152,0.81861 0.646288,1.275439 0.109119,0.456831 0.08168,1.28175 0,1.701402 -0.08168,0.419649 -0.156408,0.793071 -0.430858,1.064906 0,0 -1.0088047,1.050514 -1.2901261,1.277886 -0.2813233,0.227371 -0.4985596,0.325812 -0.4985596,0.325812 0,0 0.032785,0.489541 0.1477222,0.949627 0.1149369,0.460088 0.4432578,1.634264 0.4308579,2.127365 -0.013059,0.515652 -0.041926,0.944435 -0.21543,1.277888 -0.1735034,0.333452 -0.4613678,0.660633 -0.7263181,0.849475 -0.2649503,0.188837 -0.4993214,0.341643 -0.8592683,0.425962 -0.3599468,0.08433 -1.1817978,0.05196 -1.5055561,0 -0.3237602,-0.05196 -0.3754452,-0.06725 -0.6462858,-0.21298 -0.2708426,-0.145723 -0.8710133,-0.505372 -1.0747002,-0.849476 -0.203685,-0.344107 -0.3325453,-0.849027 -0.215428,-1.277887 0.1171134,-0.428861 0.4956728,-1.129248 1.0746982,-1.275441 0.5790253,-0.146178 1.6331164,0.302813 1.8584809,0.89461 0.2253665,0.591796 -0.2120881,1.440886 -0.5659053,1.658718 -0.353819,0.21783 -0.8617157,0 -0.8617157,0 0,0 0.3104759,0.350477 0.6462878,0.425963 0.335806,0.07548 1.1286824,9e-4 1.5055541,-0.212983 0.3768699,-0.213884 0.7377328,-0.720746 0.8592703,-1.064906 0.1215255,-0.344158 0.049999,-0.53825 0,-1.064904 -0.050019,-0.526658 -0.4633109,-2.417932 -0.4633109,-2.417932 l -0.3959594,0.07758 -1.9364139,0 c -0.5448589,0 -1.0396118,-0.317431 -1.5055581,-0.636494 C 3.7936135,20.672997 3.3280767,20.246217 2.9694358,19.714174 2.6107947,19.182128 2.2513366,18.473416 2.1077199,17.79979 c -0.1436265,-0.673625 -0.1436265,-1.453739 0,-2.127363 0.1436068,-0.673625 0.5030748,-1.31175 0.8617159,-1.914383 0.3586409,-0.602633 0.7839766,-1.201013 1.2901261,-1.701401 L 5.76512,10.568222 c 0,0 -0.1323684,-0.173286 -0.215428,-0.425963 C 5.4666109,9.8895743 5.3824211,9.4397449 5.3342621,8.8643701 5.2861029,8.2889953 5.2289808,7.019771 5.3342621,6.3110445 5.4395434,5.602316 5.7687447,4.6587733 5.9805499,4.1836798 6.1923511,3.7085884 6.4281329,3.3372428 6.6469541,3.0059421 m 1.0545798,1.1777377 c -0.4202229,0 -0.5020004,0.4092734 -0.7139855,0.8843767 -0.2119853,0.4751014 -0.4759305,1.6308194 -0.5761407,2.3078941 -0.1002159,0.6770729 0,2.3403451 0,2.3403451 l 0.2129805,0 c 0,0 0.8116256,-0.6765385 1.0771457,-1.064908 0.2655182,-0.3883695 0.5298394,-0.9377356 0.6438403,-1.4884195 0.1139872,-0.5506818 0.1066861,-1.6777061 0,-2.1273627 C 8.2386882,4.585949 8.2629062,4.1836798 7.9169619,4.1836798 l -0.215428,0 z M 6.4114077,13.121545 c 0,0 -1.5238363,1.320639 -1.9364159,1.914384 -0.4125796,0.593745 -0.7486191,1.385748 -0.8617178,1.911933 -0.1130967,0.526187 0,1.490869 0,1.490869 0,0.388515 0.234941,0.768244 0.4308599,1.062458 0.1959209,0.294213 0.8592703,0.851926 0.8592703,0.851926 0.3940084,0.390641 1.0776048,0.551525 1.5080035,0.638943 0.430397,0.08741 1.2901262,0 1.2901262,0 L 7.9169619,20.779076 7.8041224,19.88202 7.1804005,16.476768 c -0.292817,-9.5e-4 -0.5003167,0.07144 -0.7690026,0.258114 -0.2686859,0.186661 -0.9414,0.593144 -0.8617158,1.064906 -0.060882,0.49864 0.063117,0.982303 0.2154279,1.275439 0.1523126,0.293135 0.4906433,0.574992 0.6462879,0.638945 0.1556367,0.06395 0.1414105,-0.02942 0.2129824,0 0.071566,0.02942 0.215428,0.122099 0.215428,0.21298 0,0.09088 -0.1139674,0.171287 -0.215428,0.212981 -0.1014824,0.04169 -0.2956325,0.03103 -0.4284103,0 C 6.0631861,20.109109 6.0084976,20.100877 5.76511,19.927152 5.5217245,19.753411 4.9152896,19.326566 4.6904138,18.862246 4.465536,18.397922 4.4749839,17.278607 4.4749839,16.947862 c 0,-0.330746 0.5804737,-1.176314 0.8592682,-1.488419 C 5.6130447,15.147337 5.856276,14.935318 6.19597,14.82295 l 0.6438383,-0.212983 0,-0.425963 -0.215428,-1.062459 -0.2129824,0 z m 1.4932236,3.232508 0.012466,0.167844 0.6438403,3.831214 0.215428,0 c 0.4377533,-0.332854 0.7382146,-0.873833 0.8617203,-1.277888 0.1235037,-0.404054 0.1516399,-0.860254 0,-1.275439 C 9.4864456,17.384598 9.1069951,16.661579 8.5609393,16.521897 L 7.9047658,16.354053 z"
     style="fill:#000000;stroke:#000000;stroke-width:0;stroke-miterlimit:4;stroke-dasharray:none;visibility:visible;display:inline"
     id="path7713" />
</svg>
