<?xml version="1.0" encoding="UTF-8" standalone="no"?>
<svg
   xmlns:dc="http://purl.org/dc/elements/1.1/"
   xmlns:cc="http://creativecommons.org/ns#"
   xmlns:rdf="http://www.w3.org/1999/02/22-rdf-syntax-ns#"
   xmlns:svg="http://www.w3.org/2000/svg"
   xmlns="http://www.w3.org/2000/svg"
   xmlns:sodipodi="http://sodipodi.sourceforge.net/DTD/sodipodi-0.dtd"
   xmlns:inkscape="http://www.inkscape.org/namespaces/inkscape"
   version="1.0"
   viewBox="0 0 20989 29701"
   preserveAspectRatio="xMidYMid"
   id="svg3593"
   sodipodi:version="0.32"
   inkscape:version="0.46"
   width="714.33008"
   height="766.30927"
   sodipodi:docname="Logo_ts-2.svg"
   inkscape:output_extension="org.inkscape.output.svg.inkscape"
   style="fill-rule:evenodd">
  <metadata
     id="metadata4596">
    <rdf:RDF>
      <cc:Work
         rdf:about="">
        <dc:format>image/svg+xml</dc:format>
        <dc:type
           rdf:resource="http://purl.org/dc/dcmitype/StillImage" />
      </cc:Work>
    </rdf:RDF>
  </metadata>
  <defs
     id="defs4594" />
  <sodipodi:namedview
     inkscape:window-height="1002"
     inkscape:window-width="1280"
     inkscape:pageshadow="2"
     inkscape:pageopacity="0.0"
     guidetolerance="10.0"
     gridtolerance="10.0"
     objecttolerance="10.0"
     borderopacity="1.0"
     bordercolor="#666666"
     pagecolor="#ffffff"
     id="base"
     showgrid="false"
     inkscape:zoom="1.0375314"
     inkscape:cx="357.27774"
     inkscape:cy="383.12094"
     inkscape:window-x="0"
     inkscape:window-y="0"
     inkscape:current-layer="svg3593" />
  <rect
     style="opacity:1;fill:none;fill-opacity:1;stroke:#000000;stroke-width:308.84515381;stroke-linecap:round;stroke-linejoin:round;stroke-miterlimit:30;stroke-dasharray:none;stroke-dashoffset:0;stroke-opacity:1"
     id="rect4436"
     width="27379.953"
     height="27379.953"
     x="-3199.8455"
     y="2169.2371" />
  <path
     sodipodi:nodetypes="czzzczcczccz"
     id="path3275"
     d="M 14142.427,14613.44 C 14258.023,14055.273 14229.461,12623.742 13899.172,11983.12 C 13568.883,11342.497 13124.096,10766.369 12570.139,10639.363 C 12016.183,10512.357 11657.705,9451.6386 12089.516,8479.8924 C 12528.691,7491.5717 12622.455,7057.5549 13526.399,6959.2512 C 14361.539,6807.3477 14738.845,6741.8742 15892.55,6174.5919 C 17054.18,5603.4118 17996.897,5427.572 18960.616,5678.395 C 20987.362,6267.7637 21604.636,8053.7526 21568.615,10005.149 C 21490.703,11226.516 20777.723,12500.922 20213.169,13325.659 C 19655.058,14140.984 18704.557,15319.023 17691.609,18004.532 L 13574.775,17540.511 C 13838.514,16359.532 14026.831,15171.607 14142.427,14613.44 z"
     style="fill:none;fill-opacity:1;stroke:#000000;stroke-width:297.66748047;stroke-miterlimit:4;stroke-dasharray:none;stroke-opacity:1" />
  <path
     sodipodi:nodetypes="cssscsssccscscz"
     id="path3273"
     d="M 14856.951,10445.455 C 15039.459,10285.711 14841.177,9347.1251 14759.412,9050.1842 C 14653.188,8664.42 14070.325,7252.4109 13805.82,7106.568 C 13275.056,6813.9145 12996.075,6594.6619 12363.531,6164.3334 C 10693.873,5028.4421 8924.1123,3925.853 7123.7472,2937.7884 C 5249.0407,1812.6761 1989.5275,369.25211 1294.7254,240.21061 C 695.38356,128.8981 535.7349,-3.2039562 1491.5103,659.42013 C 2328.5221,1239.7065 3980.807,2366.9686 5458.177,3351.5567 C 7417.4121,4657.2823 8400.2009,5553.9082 11155.18,8242.6616 C 7587.9256,7701.9363 4176.0575,7281.5311 830.46283,7064.4173 C -897.81565,6988.7376 -301.8898,6993.2404 775.50903,7388.4263 C 2204.8549,7912.7045 4248.5019,8466.7708 5830.4525,8968.4168 C 7290.1945,9321.2438 8713.7212,9711.5509 10208.485,10031.254 C 11065.653,10214.586 12280.61,10569.1 13213.109,10650.611 C 14542.579,10676.641 14674.444,10605.2 14856.951,10445.455 z"
     style="fill:#ea0000;fill-opacity:1;stroke:#000000;stroke-width:297.66748047;stroke-linecap:round;stroke-linejoin:miter;marker-mid:none;stroke-miterlimit:30;stroke-dasharray:none;stroke-dashoffset:0;stroke-opacity:1" />
  <path
     sodipodi:nodetypes="czz"
     id="path3271"
     d="M 17253.913,8811.3617 C 16612.946,8810.8111 16644.905,7856.3313 17260.004,7856.1613 C 17875.061,7855.9908 17894.88,8811.9123 17253.913,8811.3617 z"
     style="fill:#000000;fill-opacity:1;stroke:none;stroke-opacity:1" />
  <path
     sodipodi:nodetypes="czsszss"
     id="path3265"
     d="M 18170.182,8515.3233 C 17872.269,8215.2638 17821.576,7903.2954 17410.809,7756.7583 C 16998.693,7609.7401 16961.374,7901.8561 16314.239,7490.7702 C 16145.18,7383.377 16338.928,7193.9149 16534.612,7320.2405 C 16943.976,7584.5093 17134.269,7308.4334 17610.971,7551.0705 C 18089.366,7794.5689 18055.451,8009.4324 18397.259,8361.8368 C 18681.226,8654.6058 18423.118,8770.0704 18170.182,8515.3233 z"
     style="fill:#000000;fill-opacity:1;stroke:none;stroke-width:0.1;stroke-miterlimit:4;stroke-dasharray:none;stroke-opacity:1" />
  <path
     style="fill:#000000;visibility:visible"
     d="M -2338.9459,19829.435 L -2338.9459,25806.592 L -545.79867,25806.592 L -545.79867,19829.435 L 799.83602,19829.435 L 799.83602,25806.592 L 2592.9833,25806.592 L 2592.9833,19829.435 L 6146.7596,19829.435 L 6146.7596,25806.592 L 7939.9068,25806.592 L 7939.9068,19829.435 L 9211.2142,19829.435 L 9211.2142,25806.592 L 11004.361,25806.592 L 11004.361,19829.435 L 12274.12,19829.435 L 12274.12,25806.592 L 14067.267,25806.592 L 14067.267,19829.435 L 17537.425,19829.435 L 17537.425,25806.592 L 19330.572,25806.592 L 19330.572,19829.435 L 20718.016,19829.435 L 20718.016,25806.592 L 22469.354,25806.592 L 22469.354,19829.435 L 24229.983,19829.435 L 24206.756,16134.746 L -3309.8469,16134.746 L -3309.8469,19829.435 L -2338.9459,19829.435 z"
     id="path4163" />
  <path
     style="fill:none;stroke:#000000;stroke-width:1.54848635;visibility:visible"
     d="M -2338.9459,19829.435 L -2338.9459,25806.592 L -545.79867,25806.592 L -545.79867,19829.435 L 799.83602,19829.435 L 799.83602,25806.592 L 2592.9833,25806.592 L 2592.9833,19829.435 L 6146.7596,19829.435 L 6146.7596,25806.592 L 7939.9068,25806.592 L 7939.9068,19829.435 L 9211.2142,19829.435 L 9211.2142,25806.592 L 11004.361,25806.592 L 11004.361,19829.435 L 12274.12,19829.435 L 12274.12,25806.592 L 14067.267,25806.592 L 14067.267,19829.435 L 17537.425,19829.435 L 17537.425,25806.592 L 19330.572,25806.592 L 19330.572,19829.435 L 20718.016,19829.435 L 20718.016,25806.592 L 22469.354,25806.592 L 22469.354,19829.435 L 24229.983,19829.435 L 24206.756,16134.746 L -3309.8469,16134.746 L -3309.8469,19829.435 L -2338.9459,19829.435"
     id="path4167" />
  <path
     style="fill:#000000;visibility:visible"
     d="M 15666.853,29392.887 L 15666.853,19679.231 L 15821.702,19679.231 L 15821.702,29392.887 L 15666.853,29392.887 z"
     id="path4493" />
  <path
     style="fill:#000000;visibility:visible"
     d="M 12981.778,24984.346 L 12981.778,29392.887 L 12826.929,29392.887 L 12826.929,24984.346 L 12981.778,24984.346 z"
     id="path4505" />
  <path
     style="fill:#000000;visibility:visible"
     d="M 10143.402,25657.937 L 10143.402,29543.09 L 9988.5544,29543.09 L 9988.5544,25657.937 L 10143.402,25657.937 z"
     id="path4517" />
  <path
     style="fill:#000000;visibility:visible"
     d="M 7303.4789,25507.734 L 7303.4789,29543.09 L 7148.6303,29543.09 L 7148.6303,25507.734 L 7303.4789,25507.734 z"
     id="path4529" />
  <path
     style="fill:#000000;visibility:visible"
     d="M 1623.6308,25359.08 L 1623.6308,29543.09 L 1468.7822,29543.09 L 1468.7822,25359.08 L 1623.6308,25359.08 z"
     id="path4541" />
  <path
     style="fill:#000000;visibility:visible"
     d="M -1214.7448,25806.592 L -1214.7448,29543.09 L -1369.5934,29543.09 L -1369.5934,25806.592 L -1214.7448,25806.592 z"
     id="path4553" />
  <path
     style="fill:#000000;visibility:visible"
     d="M 4463.5549,19604.904 L 4463.5549,29543.09 L 4308.7062,29543.09 L 4308.7062,19604.904 L 4463.5549,19604.904 z"
     id="path4565" />
  <path
     style="fill:#000000;visibility:visible"
     d="M 18506.778,29543.09 L 18506.778,24835.691 L 18661.626,24835.691 L 18661.626,29543.09 L 18506.778,29543.09 z"
     id="path4577" />
  <path
     style="fill:#000000;visibility:visible"
     d="M 21346.702,29392.887 L 21346.702,24910.018 L 21501.55,24910.018 L 21501.55,29392.887 L 21346.702,29392.887 z"
     id="path4589" />
</svg>
