<?xml version="1.0" encoding="UTF-8" standalone="no"?>
<svg
   xmlns:dc="http://purl.org/dc/elements/1.1/"
   xmlns:cc="http://creativecommons.org/ns#"
   xmlns:rdf="http://www.w3.org/1999/02/22-rdf-syntax-ns#"
   xmlns:svg="http://www.w3.org/2000/svg"
   xmlns="http://www.w3.org/2000/svg"
   xmlns:sodipodi="http://sodipodi.sourceforge.net/DTD/sodipodi-0.dtd"
   xmlns:inkscape="http://www.inkscape.org/namespaces/inkscape"
   version="1.0"
   viewBox="0 0 20989 29701"
   preserveAspectRatio="xMidYMid"
   id="svg3593"
   sodipodi:version="0.32"
   inkscape:version="0.47 r22583"
   width="714.56"
   height="766.38"
   sodipodi:docname="Logo_ts-hks16N.svg"
   inkscape:output_extension="org.inkscape.output.svg.inkscape"
   style="fill-rule:evenodd">
  <metadata
     id="metadata4596">
    <rdf:RDF>
      <cc:Work
         rdf:about="">
        <dc:format>image/svg+xml</dc:format>
        <dc:type
           rdf:resource="http://purl.org/dc/dcmitype/StillImage" />
        <dc:title></dc:title>
      </cc:Work>
    </rdf:RDF>
  </metadata>
  <defs
     id="defs4594">
    <inkscape:perspective
       sodipodi:type="inkscape:persp3d"
       inkscape:vp_x="0 : 383.19 : 1"
       inkscape:vp_y="0 : 1000 : 0"
       inkscape:vp_z="714.56 : 383.19 : 1"
       inkscape:persp3d-origin="357.28 : 255.46 : 1"
       id="perspective3463" />
  </defs>
  <sodipodi:namedview
     inkscape:window-height="1002"
     inkscape:window-width="1280"
     inkscape:pageshadow="2"
     inkscape:pageopacity="0.0"
     guidetolerance="10.0"
     gridtolerance="10.0"
     objecttolerance="10.0"
     borderopacity="1.0"
     bordercolor="#666666"
     pagecolor="#ffffff"
     id="base"
     showgrid="false"
     inkscape:zoom="0.99167514"
     inkscape:cx="127.366"
     inkscape:cy="383.19"
     inkscape:window-x="-1"
     inkscape:window-y="0"
     inkscape:current-layer="svg3593"
     showborder="true"
     inkscape:window-maximized="1" />
  <rect
     style="opacity:1;fill:#ffffff;fill-opacity:1;stroke:#505954;stroke-width:308.83800137;stroke-linecap:round;stroke-linejoin:round;stroke-miterlimit:30;stroke-dasharray:none;stroke-dashoffset:0;stroke-opacity:1"
     id="rect4436"
     width="27379.953"
     height="27379.953"
     x="-3192.9807"
     y="2166.6243" />
  <path
     sodipodi:nodetypes="czzzczcczccz"
     id="path3275"
     d="M 14149.292,14610.827 C 14264.888,14052.66 14236.326,12621.129 13906.037,11980.507 C 13575.748,11339.884 13130.961,10763.756 12577.004,10636.75 C 12023.048,10509.744 11664.57,9449.0258 12096.381,8477.2796 C 12535.556,7488.9589 12629.32,7054.9421 13533.264,6956.6384 C 14368.404,6804.7349 14745.71,6739.2614 15899.415,6171.9791 C 17061.045,5600.799 18003.762,5424.9592 18967.481,5675.7822 C 20994.227,6265.1509 21611.501,8051.1398 21575.48,10002.536 C 21497.568,11223.903 20784.588,12498.309 20220.034,13323.046 C 19661.923,14138.371 18711.422,15316.41 17698.474,18001.919 L 13581.64,17537.898 C 13845.379,16356.919 14033.696,15168.994 14149.292,14610.827 z"
     style="fill:none;fill-opacity:1;stroke:#505954;stroke-width:297.66748047000004362;stroke-miterlimit:4;stroke-dasharray:none;stroke-opacity:1" />
  <path
     sodipodi:nodetypes="cssscsssccscscz"
     id="path3273"
     d="M 14863.816,10442.842 C 15046.324,10283.098 14848.042,9344.5123 14766.277,9047.5714 C 14660.053,8661.8072 14077.19,7249.7981 13812.685,7103.9552 C 13281.921,6811.3017 13002.94,6592.0491 12370.396,6161.7206 C 10700.738,5025.8293 8930.977,3923.2402 7130.6119,2935.1756 C 5255.9054,1810.0633 1996.3922,366.63935 1301.5901,237.59785 C 702.2483,126.28534 542.59964,-5.8167187 1498.375,656.80737 C 2335.3868,1237.0937 3987.6717,2364.3558 5465.0417,3348.9439 C 7424.2768,4654.6695 8407.0656,5551.2954 11162.045,8240.0488 C 7594.7903,7699.3235 4182.9222,7278.9183 837.32757,7061.8045 C -890.95091,6986.1248 -295.02506,6990.6276 782.37377,7385.8135 C 2211.7196,7910.0917 4255.3666,8464.158 5837.3172,8965.804 C 7297.0592,9318.631 8720.5859,9708.9381 10215.35,10028.641 C 11072.518,10211.973 12287.475,10566.487 13219.974,10647.998 C 14549.444,10674.028 14681.309,10602.587 14863.816,10442.842 z"
     style="fill-opacity:1;stroke:#505954;stroke-width:297.66748047000004362;stroke-linecap:round;stroke-linejoin:miter;marker-mid:none;stroke-miterlimit:30;stroke-dasharray:none;stroke-dashoffset:0;stroke-opacity:1;fill:#e60033" />
  <path
     sodipodi:nodetypes="czz"
     id="path3271"
     d="M 17260.778,8808.7489 C 16619.811,8808.1983 16651.77,7853.7185 17266.869,7853.5485 C 17881.926,7853.378 17901.745,8809.2995 17260.778,8808.7489 z"
     style="fill:#505954;fill-opacity:1;stroke:none;stroke-opacity:1" />
  <path
     sodipodi:nodetypes="czsszss"
     id="path3265"
     d="M 18177.047,8512.7105 C 17879.134,8212.651 17828.441,7900.6826 17417.674,7754.1455 C 17005.558,7607.1273 16968.239,7899.2433 16321.104,7488.1574 C 16152.045,7380.7642 16345.793,7191.3021 16541.477,7317.6277 C 16950.841,7581.8965 17141.134,7305.8206 17617.836,7548.4577 C 18096.231,7791.9561 18062.316,8006.8196 18404.124,8359.224 C 18688.091,8651.993 18429.983,8767.4576 18177.047,8512.7105 z"
     style="fill:#505954;fill-opacity:1;stroke:#505954;stroke-width:0.10000000000000001;stroke-miterlimit:4;stroke-dasharray:none;stroke-opacity:1" />
  <path
     style="fill:#505954;visibility:visible;fill-opacity:1;stroke:none;stroke-opacity:1"
     d="M -2332.0812,19826.822 L -2332.0812,25803.979 L -538.93393,25803.979 L -538.93393,19826.822 L 806.70076,19826.822 L 806.70076,25803.979 L 2599.848,25803.979 L 2599.848,19826.822 L 6153.6243,19826.822 L 6153.6243,25803.979 L 7946.7715,25803.979 L 7946.7715,19826.822 L 9218.0789,19826.822 L 9218.0789,25803.979 L 11011.226,25803.979 L 11011.226,19826.822 L 12280.985,19826.822 L 12280.985,25803.979 L 14074.132,25803.979 L 14074.132,19826.822 L 17544.29,19826.822 L 17544.29,25803.979 L 19337.437,25803.979 L 19337.437,19826.822 L 20724.881,19826.822 L 20724.881,25803.979 L 22476.219,25803.979 L 22476.219,19826.822 L 24236.848,19826.822 L 24213.621,16132.133 L -3302.9822,16132.133 L -3302.9822,19826.822 L -2332.0812,19826.822 z"
     id="path4163" />
  <path
     style="fill:#505954;visibility:visible;stroke:none;stroke-opacity:1;fill-opacity:1"
     d="M 15673.718,29390.274 L 15673.718,19676.618 L 15828.567,19676.618 L 15828.567,29390.274 L 15673.718,29390.274 z"
     id="path4493" />
  <path
     style="fill:#505954;visibility:visible;stroke:none;stroke-opacity:1;fill-opacity:1"
     d="M 12988.643,24981.733 L 12988.643,29390.274 L 12833.794,29390.274 L 12833.794,24981.733 L 12988.643,24981.733 z"
     id="path4505" />
  <path
     style="fill:#505954;visibility:visible;stroke:none;stroke-opacity:1;fill-opacity:1"
     d="M 10150.267,25655.324 L 10150.267,29540.477 L 9995.4191,29540.477 L 9995.4191,25655.324 L 10150.267,25655.324 z"
     id="path4517" />
  <path
     style="fill:#505954;visibility:visible;stroke:none;stroke-opacity:1;fill-opacity:1"
     d="M 7310.3436,25505.121 L 7310.3436,29540.477 L 7155.495,29540.477 L 7155.495,25505.121 L 7310.3436,25505.121 z"
     id="path4529" />
  <path
     style="fill:#505954;visibility:visible;stroke:none;stroke-opacity:1;fill-opacity:1"
     d="M 1630.4955,25356.467 L 1630.4955,29540.477 L 1475.6469,29540.477 L 1475.6469,25356.467 L 1630.4955,25356.467 z"
     id="path4541" />
  <path
     style="fill:#505954;visibility:visible;stroke:none;stroke-opacity:1;fill-opacity:1"
     d="M -1207.8801,25803.979 L -1207.8801,29540.477 L -1362.7287,29540.477 L -1362.7287,25803.979 L -1207.8801,25803.979 z"
     id="path4553" />
  <path
     style="fill:#505954;visibility:visible;stroke:none;stroke-opacity:1;fill-opacity:1"
     d="M 4470.4196,19602.291 L 4470.4196,29540.477 L 4315.5709,29540.477 L 4315.5709,19602.291 L 4470.4196,19602.291 z"
     id="path4565" />
  <path
     style="fill:#505954;visibility:visible;stroke:none;stroke-opacity:1;fill-opacity:1"
     d="M 18513.643,29540.477 L 18513.643,24833.078 L 18668.491,24833.078 L 18668.491,29540.477 L 18513.643,29540.477 z"
     id="path4577" />
  <path
     style="fill:#505954;visibility:visible;stroke:none;stroke-opacity:1;fill-opacity:1"
     d="M 21353.567,29390.274 L 21353.567,24907.405 L 21508.415,24907.405 L 21508.415,29390.274 L 21353.567,29390.274 z"
     id="path4589" />
</svg>
