<?xml version="1.0" encoding="UTF-8" standalone="no"?>
<!-- Created with Inkscape (http://www.inkscape.org/) -->

<svg
   xmlns:osb="http://www.openswatchbook.org/uri/2009/osb"
   xmlns:dc="http://purl.org/dc/elements/1.1/"
   xmlns:cc="http://creativecommons.org/ns#"
   xmlns:rdf="http://www.w3.org/1999/02/22-rdf-syntax-ns#"
   xmlns:svg="http://www.w3.org/2000/svg"
   xmlns="http://www.w3.org/2000/svg"
   xmlns:sodipodi="http://sodipodi.sourceforge.net/DTD/sodipodi-0.dtd"
   xmlns:inkscape="http://www.inkscape.org/namespaces/inkscape"
   width="48px"
   height="48px"
   id="svg3862"
   version="1.1"
   inkscape:version="0.48.4 r9939"
   sodipodi:docname="Panic.svg">
  <defs
     id="defs3864">
    <linearGradient
       id="linearGradient4946"
       osb:paint="solid">
      <stop
         style="stop-color:#0000ff;stop-opacity:1;"
         offset="0"
         id="stop4948" />
    </linearGradient>
  </defs>
  <sodipodi:namedview
     id="base"
     pagecolor="#ffffff"
     bordercolor="#666666"
     borderopacity="1.0"
     inkscape:pageopacity="0.0"
     inkscape:pageshadow="2"
     inkscape:zoom="17.386364"
     inkscape:cx="22"
     inkscape:cy="21.39684"
     inkscape:current-layer="layer1"
     showgrid="true"
     inkscape:grid-bbox="true"
     inkscape:document-units="px"
     inkscape:window-width="1359"
     inkscape:window-height="995"
     inkscape:window-x="207"
     inkscape:window-y="46"
     inkscape:window-maximized="0">
    <inkscape:grid
       type="xygrid"
       id="grid3870"
       empspacing="5"
       visible="true"
       enabled="true"
       snapvisiblegridlinesonly="true" />
  </sodipodi:namedview>
  <metadata
     id="metadata3867">
    <rdf:RDF>
      <cc:Work
         rdf:about="">
        <dc:format>image/svg+xml</dc:format>
        <dc:type
           rdf:resource="http://purl.org/dc/dcmitype/StillImage" />
        <dc:title></dc:title>
      </cc:Work>
    </rdf:RDF>
  </metadata>
  <g
     id="layer1"
     inkscape:label="Layer 1"
     inkscape:groupmode="layer">
    <rect
       style="opacity:1;fill:#ffffff;fill-opacity:1;fill-rule:evenodd;stroke:#888a85;stroke-width:2;stroke-linecap:butt;stroke-linejoin:miter;stroke-miterlimit:4;stroke-opacity:1;stroke-dasharray:none"
       id="rect4176"
       width="28"
       height="28"
       x="1"
       y="1" />
    <path
       style="fill:none;stroke:#cc0000;stroke-width:6;stroke-linecap:square;stroke-linejoin:miter;stroke-miterlimit:4;stroke-opacity:1;stroke-dasharray:none"
       d="m 15,10 0,10"
       id="path4952"
       inkscape:connector-curvature="0"
       sodipodi:nodetypes="cc" />
    <path
       style="fill:none;stroke:#cc0000;stroke-width:6;stroke-linecap:square;stroke-linejoin:miter;stroke-miterlimit:4;stroke-opacity:1;stroke-dasharray:none"
       d="M 20,15 10,15"
       id="path4952-3"
       inkscape:connector-curvature="0"
       sodipodi:nodetypes="cc" />
    <path
       inkscape:connector-curvature="0"
       id="path2796"
       d="m 32,18 5,0 2,22 -27.654068,1.17196 C 12.031647,38.927352 12.07199,33.901313 10,32 5.841942,28.191333 2.2000712,34.234363 4.3675763,39.100086 5.6024924,41.867979 7,45.031748 12.172549,44.747712 L 44,43 42,15 30,15 m -2,3 -2,6.5 -2,7.5 C 23.5,31 23,30 22.125,29.25 21.25,28.5 20,28 18,28 16,28 14.529275,29.4453 14.043912,31.16795 13.558549,32.890599 14.058549,34.890599 16,36 c 1.565247,0.894427 3.815247,1.394427 5.798936,1.29582 C 23.782624,37.197214 25.5,36.5 26,35 27,32.5 28,28.75 28.75,25.625 29.5,22.5 30,22 30,22"
       sodipodi:nodetypes="ccccccsccccccscsssccc"
       style="fill:#000000;fill-opacity:1;stroke:none" />
  </g>
</svg>
