<?xml version="1.0" encoding="UTF-8" standalone="no"?>
<!-- Created with Inkscape (http://www.inkscape.org/) -->

<svg
   xmlns:dc="http://purl.org/dc/elements/1.1/"
   xmlns:cc="http://creativecommons.org/ns#"
   xmlns:rdf="http://www.w3.org/1999/02/22-rdf-syntax-ns#"
   xmlns:svg="http://www.w3.org/2000/svg"
   xmlns="http://www.w3.org/2000/svg"
   xmlns:xlink="http://www.w3.org/1999/xlink"
   xmlns:sodipodi="http://sodipodi.sourceforge.net/DTD/sodipodi-0.dtd"
   xmlns:inkscape="http://www.inkscape.org/namespaces/inkscape"
   width="48.000000px"
   height="48.000000px"
   id="svg97"
   sodipodi:version="0.32"
   inkscape:version="0.48.4 r9939"
   sodipodi:docname="RouteLoad.svg"
   inkscape:export-filename="/home/jimmac/ximian_art/icons/nautilus/snowdunes/gnome-fs-directory-accept.png"
   inkscape:export-xdpi="90.000000"
   inkscape:export-ydpi="90.000000"
   inkscape:output_extension="org.inkscape.output.svg.inkscape"
   version="1.1">
  <defs
     id="defs3">
    <inkscape:path-effect
       effect="bend_path"
       id="path-effect5753"
       is_visible="true"
       bendpath="m -3302.9822,14846.399 27539.8302,0"
       prop_scale="1"
       scale_y_rel="false"
       vertical="false" />
    <inkscape:perspective
       sodipodi:type="inkscape:persp3d"
       inkscape:vp_x="0 : 24 : 1"
       inkscape:vp_y="0 : 1000 : 0"
       inkscape:vp_z="48 : 24 : 1"
       inkscape:persp3d-origin="24 : 16 : 1"
       id="perspective90" />
    <radialGradient
       inkscape:collect="always"
       xlink:href="#linearGradient5060"
       id="radialGradient5031"
       gradientUnits="userSpaceOnUse"
       gradientTransform="matrix(-2.774389,0,0,1.969706,112.7623,-872.8854)"
       cx="605.71429"
       cy="486.64789"
       fx="605.71429"
       fy="486.64789"
       r="117.14286" />
    <linearGradient
       inkscape:collect="always"
       id="linearGradient5060">
      <stop
         style="stop-color:black;stop-opacity:1;"
         offset="0"
         id="stop5062" />
      <stop
         style="stop-color:black;stop-opacity:0;"
         offset="1"
         id="stop5064" />
    </linearGradient>
    <radialGradient
       inkscape:collect="always"
       xlink:href="#linearGradient5060"
       id="radialGradient5029"
       gradientUnits="userSpaceOnUse"
       gradientTransform="matrix(2.774389,0,0,1.969706,-1891.633,-872.8854)"
       cx="605.71429"
       cy="486.64789"
       fx="605.71429"
       fy="486.64789"
       r="117.14286" />
    <linearGradient
       id="linearGradient5048">
      <stop
         style="stop-color:black;stop-opacity:0;"
         offset="0"
         id="stop5050" />
      <stop
         id="stop5056"
         offset="0.5"
         style="stop-color:black;stop-opacity:1;" />
      <stop
         style="stop-color:black;stop-opacity:0;"
         offset="1"
         id="stop5052" />
    </linearGradient>
    <linearGradient
       inkscape:collect="always"
       xlink:href="#linearGradient5048"
       id="linearGradient5027"
       gradientUnits="userSpaceOnUse"
       gradientTransform="matrix(2.774389,0,0,1.969706,-1892.179,-872.8854)"
       x1="302.85715"
       y1="366.64789"
       x2="302.85715"
       y2="609.50507" />
    <linearGradient
       id="linearGradient269">
      <stop
         id="stop270"
         offset="0.0000000"
         style="stop-color:#a3a3a3;stop-opacity:1.0000000;" />
      <stop
         id="stop271"
         offset="1.0000000"
         style="stop-color:#4c4c4c;stop-opacity:1.0000000;" />
    </linearGradient>
    <radialGradient
       inkscape:collect="always"
       xlink:href="#linearGradient269"
       id="radialGradient8234"
       gradientUnits="userSpaceOnUse"
       gradientTransform="matrix(0.968273,0.000000,0.000000,1.046686,44.36453,-17.00717)"
       cx="8.8244190"
       cy="3.7561285"
       fx="8.8244190"
       fy="3.7561285"
       r="37.751713" />
    <linearGradient
       id="linearGradient259">
      <stop
         id="stop260"
         offset="0.0000000"
         style="stop-color:#fafafa;stop-opacity:1.0000000;" />
      <stop
         style="stop-color:#a8a8a8;stop-opacity:1;"
         offset="0.5"
         id="stop8238" />
      <stop
         id="stop261"
         offset="1"
         style="stop-color:#cdcdcd;stop-opacity:1;" />
    </linearGradient>
    <linearGradient
       inkscape:collect="always"
       xlink:href="#linearGradient259"
       id="linearGradient8236"
       x1="25.875"
       y1="10.625"
       x2="25.25"
       y2="30.875"
       gradientUnits="userSpaceOnUse"
       gradientTransform="matrix(1.000000,0.000000,0.000000,1.238806,0.000000,-7.880597)" />
    <linearGradient
       inkscape:collect="always"
       id="linearGradient13842">
      <stop
         style="stop-color:#000000;stop-opacity:1;"
         offset="0"
         id="stop13844" />
      <stop
         style="stop-color:#000000;stop-opacity:0;"
         offset="1"
         id="stop13846" />
    </linearGradient>
    <linearGradient
       id="linearGradient9766">
      <stop
         style="stop-color:#6194cb;stop-opacity:1;"
         offset="0"
         id="stop9768" />
      <stop
         style="stop-color:#729fcf;stop-opacity:1;"
         offset="1"
         id="stop9770" />
    </linearGradient>
    <linearGradient
       id="linearGradient148">
      <stop
         style="stop-color:#ffffff;stop-opacity:0.13402061;"
         offset="0.0000000"
         id="stop149" />
      <stop
         style="stop-color:#ffffff;stop-opacity:0.051546391;"
         offset="1.0000000"
         id="stop150" />
    </linearGradient>
    <linearGradient
       id="linearGradient335">
      <stop
         style="stop-color:#ffffff;stop-opacity:1.0000000;"
         offset="0.0000000"
         id="stop336" />
      <stop
         style="stop-color:#ffffff;stop-opacity:0.0000000;"
         offset="1.0000000"
         id="stop337" />
    </linearGradient>
    <linearGradient
       id="linearGradient1789">
      <stop
         style="stop-color:#a0a0a0;stop-opacity:1;"
         offset="0"
         id="stop1790" />
      <stop
         style="stop-color:#a8a8a8;stop-opacity:1;"
         offset="1"
         id="stop1791" />
    </linearGradient>
    <linearGradient
       id="linearGradient137">
      <stop
         style="stop-color:#ffffff;stop-opacity:0.70059878;"
         offset="0.0000000"
         id="stop138" />
      <stop
         style="stop-color:#ffffff;stop-opacity:0.0000000;"
         offset="1.0000000"
         id="stop139" />
    </linearGradient>
    <linearGradient
       inkscape:collect="always"
       xlink:href="#linearGradient335"
       id="linearGradient155"
       gradientUnits="userSpaceOnUse"
       gradientTransform="scale(1.421537,0.703464)"
       x1="19.116116"
       y1="28.946041"
       x2="19.426924"
       y2="51.912693" />
    <linearGradient
       inkscape:collect="always"
       xlink:href="#linearGradient148"
       id="linearGradient156"
       gradientUnits="userSpaceOnUse"
       gradientTransform="matrix(1.535299,0.000000,0.000000,0.651339,3.451418,2.448000)"
       x1="14.899379"
       y1="27.059643"
       x2="22.715446"
       y2="41.836895" />
    <linearGradient
       inkscape:collect="always"
       xlink:href="#linearGradient137"
       id="linearGradient158"
       gradientUnits="userSpaceOnUse"
       gradientTransform="matrix(1.462696,0.000000,6.907908e-2,0.683669,0.000000,0.000000)"
       x1="5.2657914"
       y1="18.725863"
       x2="8.2122240"
       y2="52.625851" />
    <radialGradient
       inkscape:collect="always"
       xlink:href="#linearGradient1789"
       id="radialGradient159"
       gradientUnits="userSpaceOnUse"
       gradientTransform="matrix(1.015635,0.000000,0.103105,1.000512,0.000000,-8.369458e-2)"
       cx="26.106777"
       cy="38.195114"
       fx="26.106777"
       fy="38.195114"
       r="32.259769" />
    <linearGradient
       inkscape:collect="always"
       xlink:href="#linearGradient9766"
       id="linearGradient13162"
       gradientUnits="userSpaceOnUse"
       gradientTransform="matrix(1.000000,0.000000,0.000000,1.022118,52.05694,-1.323026)"
       x1="22.175976"
       y1="36.987999"
       x2="22.065331"
       y2="32.050499" />
    <linearGradient
       inkscape:collect="always"
       xlink:href="#linearGradient13842"
       id="linearGradient13848"
       x1="22.25"
       y1="37.625"
       x2="19.75"
       y2="14.875"
       gradientUnits="userSpaceOnUse" />
    <inkscape:perspective
       sodipodi:type="inkscape:persp3d"
       inkscape:vp_x="0 : 383.19 : 1"
       inkscape:vp_y="0 : 1000 : 0"
       inkscape:vp_z="714.56 : 383.19 : 1"
       inkscape:persp3d-origin="357.28 : 255.46 : 1"
       id="perspective3463" />
    <inkscape:perspective
       id="perspective6745"
       inkscape:persp3d-origin="0.5 : 0.33333333 : 1"
       inkscape:vp_z="1 : 0.5 : 1"
       inkscape:vp_y="0 : 1000 : 0"
       inkscape:vp_x="0 : 0.5 : 1"
       sodipodi:type="inkscape:persp3d" />
    <marker
       style="overflow:visible"
       id="Arrow1Lstart"
       refX="0.0"
       refY="0.0"
       orient="auto"
       inkscape:stockid="Arrow1Lstart">
      <path
         transform="scale(0.8) translate(12.5,0)"
         style="fill-rule:evenodd;stroke:#000000;stroke-width:1.0pt;marker-start:none"
         d="M 0.0,0.0 L 5.0,-5.0 L -12.5,0.0 L 5.0,5.0 L 0.0,0.0 z "
         id="path7276" />
    </marker>
    <marker
       style="overflow:visible;"
       id="Arrow1Lend"
       refX="0.0"
       refY="0.0"
       orient="auto"
       inkscape:stockid="Arrow1Lend">
      <path
         transform="scale(0.8) rotate(180) translate(12.5,0)"
         style="fill-rule:evenodd;stroke:#000000;stroke-width:1.0pt;marker-start:none;"
         d="M 0.0,0.0 L 5.0,-5.0 L -12.5,0.0 L 5.0,5.0 L 0.0,0.0 z "
         id="path7279" />
    </marker>
  </defs>
  <sodipodi:namedview
     id="base"
     pagecolor="#ffffff"
     bordercolor="#666666"
     borderopacity="1.0"
     inkscape:pageopacity="0.0"
     inkscape:pageshadow="2"
     inkscape:zoom="13.145833"
     inkscape:cx="17.566473"
     inkscape:cy="24"
     inkscape:current-layer="layer3"
     showgrid="false"
     inkscape:grid-bbox="true"
     inkscape:document-units="px"
     inkscape:window-width="1168"
     inkscape:window-height="855"
     inkscape:window-x="266"
     inkscape:window-y="41"
     inkscape:showpageshadow="false"
     inkscape:window-maximized="0" />
  <metadata
     id="metadata4">
    <rdf:RDF>
      <cc:Work
         rdf:about="">
        <dc:format>image/svg+xml</dc:format>
        <dc:type
           rdf:resource="http://purl.org/dc/dcmitype/StillImage" />
        <dc:title></dc:title>
        <dc:date>2005-01-31</dc:date>
        <dc:creator>
          <cc:Agent>
            <dc:title>Jakub Steiner</dc:title>
          </cc:Agent>
        </dc:creator>
        <cc:license
           rdf:resource="http://creativecommons.org/licenses/publicdomain/" />
        <dc:source>http://jimmac.musichall.cz</dc:source>
        <dc:description>Active state - when files are being dragged to.</dc:description>
        <dc:publisher>
          <cc:Agent>
            <dc:title>Novell, Inc.</dc:title>
          </cc:Agent>
        </dc:publisher>
      </cc:Work>
      <cc:License
         rdf:about="http://creativecommons.org/licenses/publicdomain/">
        <cc:permits
           rdf:resource="http://creativecommons.org/ns#Reproduction" />
        <cc:permits
           rdf:resource="http://creativecommons.org/ns#Distribution" />
        <cc:permits
           rdf:resource="http://creativecommons.org/ns#DerivativeWorks" />
      </cc:License>
    </rdf:RDF>
  </metadata>
  <g
     id="layer1"
     inkscape:label="Folder"
     inkscape:groupmode="layer" />
  <g
     inkscape:label="Open"
     id="layer3"
     inkscape:groupmode="layer">
    <path
       sodipodi:nodetypes="ccccccssssccc"
       style="color:#000000;fill:url(#radialGradient159);fill-opacity:1;fill-rule:nonzero;stroke:#5a5a5a;stroke-width:1;stroke-linecap:round;stroke-linejoin:round;marker:none;marker-start:none;marker-mid:none;marker-end:none;stroke-miterlimit:4;stroke-dashoffset:0;stroke-opacity:1;visibility:visible;display:inline;overflow:visible"
       id="path2375"
       d="M 4.6200285,38.651015 C 4.6618365,39.07147 5.1174141,39.491924 5.5311838,39.491924 L 36.667346,39.491924 C 37.081116,39.491924 37.453078,39.07147 37.41127,38.651015 L 34.714653,11.531728 C 34.672845,11.111274 34.217267,10.69082 33.803498,10.69082 L 21.080082,10.69082 C 20.489536,10.69082 19.870999,10.311268 19.677221,9.7304849 L 18.574219,6.4246085 C 18.404967,5.9173308 18.027069,5.6888138 17.259746,5.6888138 L 2.3224188,5.6888138 C 1.9086492,5.6888138 1.5366876,6.109268 1.5784956,6.529722 L 4.6200285,38.651015 z " />
    <path
       style="opacity:0.11363633;color:#000000;fill:#729fcf;fill-opacity:1;fill-rule:nonzero;stroke:#000000;stroke-width:1.00000036;stroke-linecap:round;stroke-linejoin:round;marker:none;marker-start:none;marker-mid:none;marker-end:none;stroke-miterlimit:4;stroke-dasharray:none;stroke-dashoffset:0;stroke-opacity:1;visibility:visible;display:inline;overflow:visible"
       d="M 3.3386019,17.533487 L 34.488461,17.533487"
       id="path13113"
       sodipodi:nodetypes="cc" />
    <path
       style="opacity:0.11363633;color:#000000;fill:#729fcf;fill-opacity:1;fill-rule:nonzero;stroke:#000000;stroke-width:1.00000024;stroke-linecap:round;stroke-linejoin:round;marker:none;marker-start:none;marker-mid:none;marker-end:none;stroke-miterlimit:4;stroke-dasharray:none;stroke-dashoffset:0;stroke-opacity:1;visibility:visible;display:inline;overflow:visible"
       d="M 5.3301525,37.533487 L 35.317907,37.533487"
       id="path13160"
       sodipodi:nodetypes="cc" />
    <path
       sodipodi:nodetypes="cc"
       id="path13139"
       d="M 5.3301525,35.533487 L 35.317907,35.533487"
       style="opacity:0.11363633;color:#000000;fill:#729fcf;fill-opacity:1;fill-rule:nonzero;stroke:#000000;stroke-width:1.00000024;stroke-linecap:round;stroke-linejoin:round;marker:none;marker-start:none;marker-mid:none;marker-end:none;stroke-miterlimit:4;stroke-dasharray:none;stroke-dashoffset:0;stroke-opacity:1;visibility:visible;display:inline;overflow:visible" />
    <g
       style="display:inline"
       id="g5022"
       transform="matrix(2.165152e-2,0,0,1.903841e-2,42.41538,36.93372)">
      <rect
         y="-150.69685"
         x="-1559.2523"
         height="478.35718"
         width="1339.6335"
         id="rect4173"
         style="opacity:0.40206185;color:black;fill:url(#linearGradient5027);fill-opacity:1;fill-rule:nonzero;stroke:none;stroke-width:1;stroke-linecap:round;stroke-linejoin:miter;marker:none;marker-start:none;marker-mid:none;marker-end:none;stroke-miterlimit:4;stroke-dasharray:none;stroke-dashoffset:0;stroke-opacity:1;visibility:visible;display:inline;overflow:visible" />
      <path
         sodipodi:nodetypes="cccc"
         id="path5058"
         d="M -219.61876,-150.68038 C -219.61876,-150.68038 -219.61876,327.65041 -219.61876,327.65041 C -76.744594,328.55086 125.78146,220.48075 125.78138,88.454235 C 125.78138,-43.572302 -33.655436,-150.68036 -219.61876,-150.68038 z "
         style="opacity:0.40206185;color:black;fill:url(#radialGradient5029);fill-opacity:1;fill-rule:nonzero;stroke:none;stroke-width:1;stroke-linecap:round;stroke-linejoin:miter;marker:none;marker-start:none;marker-mid:none;marker-end:none;stroke-miterlimit:4;stroke-dasharray:none;stroke-dashoffset:0;stroke-opacity:1;visibility:visible;display:inline;overflow:visible" />
      <path
         style="opacity:0.40206185;color:black;fill:url(#radialGradient5031);fill-opacity:1;fill-rule:nonzero;stroke:none;stroke-width:1;stroke-linecap:round;stroke-linejoin:miter;marker:none;marker-start:none;marker-mid:none;marker-end:none;stroke-miterlimit:4;stroke-dasharray:none;stroke-dashoffset:0;stroke-opacity:1;visibility:visible;display:inline;overflow:visible"
         d="M -1559.2523,-150.68038 C -1559.2523,-150.68038 -1559.2523,327.65041 -1559.2523,327.65041 C -1702.1265,328.55086 -1904.6525,220.48075 -1904.6525,88.454235 C -1904.6525,-43.572302 -1745.2157,-150.68036 -1559.2523,-150.68038 z "
         id="path5018"
         sodipodi:nodetypes="cccc" />
    </g>
    <path
       sodipodi:nodetypes="ccccccsscsscccc"
       id="path2380"
       d="M 6.1717518,38.418674 C 6.2031078,38.729001 6.0171270,38.935886 5.6963478,38.832443 L 5.6963478,38.832443 C 5.3755686,38.729001 5.1477798,38.522116 5.1164238,38.211789 L 2.0868572,6.8445942 C 2.0555012,6.5342670 2.2434512,6.3468711 2.5537784,6.3468711 L 17.303531,6.2554251 C 17.834815,6.2521313 18.042960,6.3087310 18.183330,6.7726371 C 18.183330,6.7726371 19.268704,9.8854350 19.429564,10.470742 L 17.873968,7.5537061 C 17.608788,7.0564434 17.275224,7.1399365 16.901178,7.1399365 L 3.7717775,7.1399365 C 3.4614503,7.1399365 3.2754695,7.3468213 3.3068255,7.6571485 L 6.2856462,38.522116 L 6.1717518,38.418674 z "
       style="color:#000000;fill:url(#linearGradient158);fill-opacity:1.0000000;fill-rule:nonzero;stroke:none;stroke-width:1.1734115;stroke-linecap:butt;stroke-linejoin:miter;stroke-miterlimit:4.0000000;stroke-dashoffset:0.0000000;stroke-opacity:1.0000000;marker:none;marker-start:none;marker-mid:none;marker-end:none;visibility:visible;display:block;overflow:visible" />
    <path
       sodipodi:nodetypes="cc"
       id="path13145"
       d="M 2.3052333,7.533487 L 17.088967,7.533487"
       style="opacity:0.11363633;color:#000000;fill:#729fcf;fill-opacity:1;fill-rule:nonzero;stroke:#000000;stroke-width:0.99999982;stroke-linecap:round;stroke-linejoin:round;marker:none;marker-start:none;marker-mid:none;marker-end:none;stroke-miterlimit:4;stroke-dasharray:none;stroke-dashoffset:0;stroke-opacity:1;visibility:visible;display:inline;overflow:visible" />
    <path
       sodipodi:nodetypes="cc"
       id="path13115"
       d="M 2.7573333,11.533487 L 33.496214,11.533487"
       style="opacity:0.11363633;color:#000000;fill:#729fcf;fill-opacity:1;fill-rule:nonzero;stroke:#000000;stroke-width:1.00000012;stroke-linecap:round;stroke-linejoin:round;marker:none;marker-start:none;marker-mid:none;marker-end:none;stroke-miterlimit:4;stroke-dasharray:none;stroke-dashoffset:0;stroke-opacity:1;visibility:visible;display:inline;overflow:visible" />
    <g
       inkscape:export-ydpi="74.800003"
       inkscape:export-xdpi="74.800003"
       inkscape:export-filename="/home/jimmac/ximian_art/icons/nautilus/suse93/gnome-fs-directory.png"
       transform="matrix(1.034424,0.000000,0.104520,1.034424,-10.03248,2.631914)"
       id="g2381"
       style="fill:#ffffff;fill-opacity:0.58031088;fill-rule:nonzero;stroke:#000000;stroke-miterlimit:4.0000000;display:block">
      <path
         sodipodi:nodetypes="cscscs"
         id="path2382"
         d="M 41.785743,9.0363862 C 41.795369,8.5618034 41.800932,8.3118806 41.362350,8.3121830 L 28.806530,8.3208402 C 28.506530,8.3208402 28.481916,8.1776341 28.806530,8.3208402 C 29.131144,8.4640463 30.053628,8.9791114 30.989227,9.0218349 C 30.989227,9.0218349 41.785704,9.0382983 41.785743,9.0363862 z "
         style="stroke:none" />
    </g>
    <path
       sodipodi:nodetypes="cc"
       id="path13123"
       d="M 3.1628954,15.533487 L 33.993452,15.533487"
       style="opacity:0.11363633;color:#000000;fill:#729fcf;fill-opacity:1;fill-rule:nonzero;stroke:#000000;stroke-width:0.99999994;stroke-linecap:round;stroke-linejoin:round;marker:none;marker-start:none;marker-mid:none;marker-end:none;stroke-miterlimit:4;stroke-dasharray:none;stroke-dashoffset:0;stroke-opacity:1;visibility:visible;display:inline;overflow:visible" />
    <path
       style="opacity:0.11363633;color:#000000;fill:#729fcf;fill-opacity:1;fill-rule:nonzero;stroke:#000000;stroke-width:1.00000024;stroke-linecap:round;stroke-linejoin:round;marker:none;marker-start:none;marker-mid:none;marker-end:none;stroke-miterlimit:4;stroke-dasharray:none;stroke-dashoffset:0;stroke-opacity:1;visibility:visible;display:inline;overflow:visible"
       d="M 5.1594716,33.533487 L 35.147226,33.533487"
       id="path13121"
       sodipodi:nodetypes="cc" />
    <path
       sodipodi:nodetypes="cc"
       id="path13119"
       d="M 4.8658086,31.533487 L 34.974533,31.533487"
       style="opacity:0.11363633;color:#000000;fill:#729fcf;fill-opacity:1;fill-rule:nonzero;stroke:#000000;stroke-width:1.00000036;stroke-linecap:round;stroke-linejoin:round;marker:none;marker-start:none;marker-mid:none;marker-end:none;stroke-miterlimit:4;stroke-dasharray:none;stroke-dashoffset:0;stroke-opacity:1;visibility:visible;display:inline;overflow:visible" />
    <path
       style="opacity:0.11363633;color:#000000;fill:#729fcf;fill-opacity:1;fill-rule:nonzero;stroke:#000000;stroke-width:1.00000036;stroke-linecap:round;stroke-linejoin:round;marker:none;marker-start:none;marker-mid:none;marker-end:none;stroke-miterlimit:4;stroke-dasharray:none;stroke-dashoffset:0;stroke-opacity:1;visibility:visible;display:inline;overflow:visible"
       d="M 4.6336367,29.533487 L 34.802847,29.533487"
       id="path13135"
       sodipodi:nodetypes="cc" />
    <path
       sodipodi:nodetypes="cc"
       id="path13137"
       d="M 4.4629557,27.533487 L 34.632166,27.533487"
       style="opacity:0.11363633;color:#000000;fill:#729fcf;fill-opacity:1;fill-rule:nonzero;stroke:#000000;stroke-width:1.00000036;stroke-linecap:round;stroke-linejoin:round;marker:none;marker-start:none;marker-mid:none;marker-end:none;stroke-miterlimit:4;stroke-dasharray:none;stroke-dashoffset:0;stroke-opacity:1;visibility:visible;display:inline;overflow:visible" />
    <path
       style="opacity:0.11363633;color:#000000;fill:#729fcf;fill-opacity:1;fill-rule:nonzero;stroke:#000000;stroke-width:1;stroke-linecap:round;stroke-linejoin:round;marker:none;marker-start:none;marker-mid:none;marker-end:none;stroke-miterlimit:4;stroke-dasharray:none;stroke-dashoffset:0;stroke-opacity:1;visibility:visible;display:inline;overflow:visible"
       d="M 4.2556718,25.533487 L 34.460793,25.533487"
       id="path13143"
       sodipodi:nodetypes="cc" />
    <path
       sodipodi:nodetypes="cc"
       id="path13133"
       d="M 4.0235198,23.533487 L 34.289101,23.533487"
       style="opacity:0.11363633;color:#000000;fill:#729fcf;fill-opacity:1;fill-rule:nonzero;stroke:#000000;stroke-width:1.00000024;stroke-linecap:round;stroke-linejoin:round;marker:none;marker-start:none;marker-mid:none;marker-end:none;stroke-miterlimit:4;stroke-dasharray:none;stroke-dashoffset:0;stroke-opacity:1;visibility:visible;display:inline;overflow:visible" />
    <path
       style="opacity:0.11363633;color:#000000;fill:#729fcf;fill-opacity:1;fill-rule:nonzero;stroke:#000000;stroke-width:1.00000024;stroke-linecap:round;stroke-linejoin:round;marker:none;marker-start:none;marker-mid:none;marker-end:none;stroke-miterlimit:4;stroke-dasharray:none;stroke-dashoffset:0;stroke-opacity:1;visibility:visible;display:inline;overflow:visible"
       d="M 3.8528389,21.533487 L 34.11842,21.533487"
       id="path13117"
       sodipodi:nodetypes="cc" />
    <g
       inkscape:export-ydpi="74.800003"
       inkscape:export-xdpi="74.800003"
       inkscape:export-filename="/home/jimmac/ximian_art/icons/nautilus/suse93/gnome-fs-directory.png"
       transform="matrix(1.034424,0,0.10452,1.034424,-10.03248,2.631914)"
       id="g1853"
       style="fill:#ffffff;fill-opacity:0.5803109;fill-rule:nonzero;stroke:#000000;stroke-miterlimit:4;display:block">
      <path
         sodipodi:nodetypes="cscscs"
         id="path1855"
         d="M 41.785743,9.0363862 C 41.795369,8.5618034 41.800932,8.3118806 41.36235,8.312183 L 28.80653,8.3208402 C 28.50653,8.3208402 28.481916,8.1776341 28.80653,8.3208402 C 29.131144,8.4640463 30.053628,8.9791114 30.989227,9.0218349 C 30.989227,9.0218349 41.785704,9.0382983 41.785743,9.0363862 z "
         style="stroke:none" />
    </g>
    <path
       style="opacity:0.11363633;color:#000000;fill:#729fcf;fill-opacity:1;fill-rule:nonzero;stroke:#000000;stroke-width:1.00000036;stroke-linecap:round;stroke-linejoin:round;marker:none;marker-start:none;marker-mid:none;marker-end:none;stroke-miterlimit:4;stroke-dasharray:none;stroke-dashoffset:0;stroke-opacity:1;visibility:visible;display:inline;overflow:visible"
       d="M 2.9642313,13.533487 L 33.990735,13.533487"
       id="path13127"
       sodipodi:nodetypes="cc" />
    <path
       sodipodi:nodetypes="cc"
       id="path13125"
       d="M 3.6514189,19.533487 L 33.947215,19.533487"
       style="opacity:0.11363633;color:#000000;fill:#729fcf;fill-opacity:1;fill-rule:nonzero;stroke:#000000;stroke-width:1.00000012;stroke-linecap:round;stroke-linejoin:round;marker:none;marker-start:none;marker-mid:none;marker-end:none;stroke-miterlimit:4;stroke-dasharray:none;stroke-dashoffset:0;stroke-opacity:1;visibility:visible;display:inline;overflow:visible" />
    <path
       style="opacity:0.11363633;color:#000000;fill:#729fcf;fill-opacity:1;fill-rule:nonzero;stroke:#000000;stroke-width:1.00000024;stroke-linecap:round;stroke-linejoin:round;marker:none;marker-start:none;marker-mid:none;marker-end:none;stroke-miterlimit:4;stroke-dasharray:none;stroke-dashoffset:0;stroke-opacity:1;visibility:visible;display:inline;overflow:visible"
       d="M 2.5242572,9.5334871 L 17.805073,9.5334871"
       id="path13147"
       sodipodi:nodetypes="cc" />
    <path
       style="opacity:0.39204545;color:#000000;fill:url(#linearGradient13848);fill-opacity:1.0;fill-rule:nonzero;stroke:none;stroke-width:1;stroke-linecap:butt;stroke-linejoin:round;marker:none;marker-start:none;marker-mid:none;marker-end:none;stroke-miterlimit:4;stroke-dasharray:none;stroke-dashoffset:0;stroke-opacity:1;visibility:visible;display:block;overflow:visible"
       d="M 34.375,14.125 L 37,38.75 L 6,38.875 C 6,38.875 4.125,14.125 4.125,14.125 C 4.125,14.125 34.5,14.125 34.375,14.125 z "
       id="path13840"
       sodipodi:nodetypes="cccsc" />
    <path
       style="opacity:1;color:#000000;fill:url(#linearGradient8236);fill-opacity:1;fill-rule:nonzero;stroke:url(#radialGradient8234);stroke-width:1;stroke-linecap:butt;stroke-linejoin:miter;marker:none;marker-start:none;marker-mid:none;marker-end:none;stroke-miterlimit:4;stroke-dasharray:none;stroke-dashoffset:0;stroke-opacity:1;visibility:visible;display:block;overflow:visible"
       d="M 43.375,2.4944033 C 43.875,19.373135 34.299937,21.022879 37.362437,31.494661 C 37.362437,31.494661 5.875,32.380598 5.875,32.380598 C 4,19.527986 14.25,11.166045 11.25,2.649254 L 43.375,2.4944033 z "
       id="path8230"
       sodipodi:nodetypes="ccccc" />
    <g
       style="fill-rule:evenodd"
       id="g8366"
       transform="matrix(5.7552236e-4,0,-2.0947017e-4,5.7551698e-4,25.523704,11.641436)">
      <rect
         y="2166.6243"
         x="-3192.9807"
         height="27379.953"
         width="27379.953"
         id="rect4436"
         style="fill:#ffffff;fill-opacity:1;stroke:#505954;stroke-width:542.05731201;stroke-linecap:round;stroke-linejoin:round;stroke-miterlimit:30;stroke-opacity:1;stroke-dasharray:none;stroke-dashoffset:0"
         d="m -3192.9807,2166.6241 27379.9527,0 0,27379.9529 -27379.9527,0 z" />
      <path
         inkscape:connector-curvature="0"
         style="fill:none;stroke:#505954;stroke-width:522.45135498;stroke-miterlimit:4;stroke-opacity:1;stroke-dasharray:none"
         d="m 14149.292,14610.827 c 115.596,-558.167 87.034,-1989.698 -243.255,-2630.32 -330.289,-640.623 -775.076,-1216.751 -1329.033,-1343.757 -553.956,-127.006 -912.434,-1187.7242 -480.623,-2159.4704 439.175,-988.3207 532.939,-1422.3375 1436.883,-1520.6412 835.14,-151.9035 1212.446,-217.377 2366.151,-784.6593 1161.63,-571.1801 2104.347,-747.0199 3068.066,-496.1969 2026.746,589.3687 2644.02,2375.3576 2607.999,4326.7538 -77.912,1221.367 -790.892,2495.773 -1355.446,3320.51 -558.111,815.325 -1508.612,1993.364 -2521.56,4678.873 l -4116.834,-464.021 c 263.739,-1180.979 452.056,-2368.904 567.652,-2927.071 z"
         id="path3275"
         sodipodi:nodetypes="czzzczcczccz" />
      <path
         inkscape:connector-curvature="0"
         style="fill:#e60033;fill-opacity:1;stroke:#505954;stroke-width:522.45135498;stroke-linecap:round;stroke-linejoin:miter;stroke-miterlimit:30;stroke-opacity:1;stroke-dasharray:none;stroke-dashoffset:0;marker-mid:none"
         d="m 14863.816,10442.842 c 182.508,-159.744 -15.774,-1098.3297 -97.539,-1395.2706 -106.224,-385.7642 -689.087,-1797.7733 -953.592,-1943.6162 -530.764,-292.6535 -809.745,-511.9061 -1442.289,-942.2346 C 10700.738,5025.8293 8930.977,3923.2402 7130.6119,2935.1756 5255.9054,1810.0633 1996.3922,366.63935 1301.5901,237.59785 702.2483,126.28534 542.59964,-5.8167187 1498.375,656.80737 2335.3868,1237.0937 3987.6717,2364.3558 5465.0417,3348.9439 7424.2768,4654.6695 8407.0656,5551.2954 11162.045,8240.0488 7594.7903,7699.3235 4182.9222,7278.9183 837.32757,7061.8045 -890.95091,6986.1248 -295.02506,6990.6276 782.37377,7385.8135 2211.7196,7910.0917 4255.3666,8464.158 5837.3172,8965.804 c 1459.742,352.827 2883.2687,743.1341 4378.0328,1062.837 857.168,183.332 2072.125,537.846 3004.624,619.357 1329.47,26.03 1461.335,-45.411 1643.842,-205.156 z"
         id="path3273"
         sodipodi:nodetypes="cssscsssccscscz" />
      <path
         inkscape:connector-curvature="0"
         style="fill:#505954;fill-opacity:1;stroke:none"
         d="m 17260.778,8808.7489 c -640.967,-0.5506 -609.008,-955.0304 6.091,-955.2004 615.057,-0.1705 634.876,955.751 -6.091,955.2004 z"
         id="path3271"
         sodipodi:nodetypes="czz" />
      <path
         inkscape:connector-curvature="0"
         style="fill:#505954;fill-opacity:1;stroke:#505954;stroke-width:0.17551509;stroke-miterlimit:4;stroke-opacity:1;stroke-dasharray:none"
         d="m 18177.047,8512.7105 c -297.913,-300.0595 -348.606,-612.0279 -759.373,-758.565 -412.116,-147.0182 -449.435,145.0978 -1096.57,-265.9881 -169.059,-107.3932 24.689,-296.8553 220.373,-170.5297 409.364,264.2688 599.657,-11.8071 1076.359,230.83 478.395,243.4984 444.48,458.3619 786.288,810.7663 283.967,292.769 25.859,408.2336 -227.077,153.4865 z"
         id="path3265"
         sodipodi:nodetypes="czsszss" />
      <path
         inkscape:connector-curvature="0"
         id="path4163"
         d="m -2332.0812,19826.822 0,5977.157 1793.14727,0 0,-5977.157 1345.63469,0 0,5977.157 1793.14724,0 0,-5977.157 3553.7763,0 0,5977.157 1793.1472,0 0,-5977.157 1271.3074,0 0,5977.157 1793.1471,0 0,-5977.157 1269.759,0 0,5977.157 1793.147,0 0,-5977.157 3470.158,0 0,5977.157 1793.147,0 0,-5977.157 1387.444,0 0,5977.157 1751.338,0 0,-5977.157 1760.629,0 -23.227,-3694.689 -27516.6032,0 0,3694.689 970.901,0 z"
         style="fill:#505954;fill-opacity:1;stroke:none;visibility:visible" />
      <path
         inkscape:connector-curvature="0"
         id="path4493"
         d="m 15673.718,29390.274 0,-9713.656 154.849,0 0,9713.656 -154.849,0 z"
         style="fill:#505954;fill-opacity:1;stroke:none;visibility:visible" />
      <path
         inkscape:connector-curvature="0"
         id="path4505"
         d="m 12988.643,24981.733 0,4408.541 -154.849,0 0,-4408.541 154.849,0 z"
         style="fill:#505954;fill-opacity:1;stroke:none;visibility:visible" />
      <path
         inkscape:connector-curvature="0"
         id="path4517"
         d="m 10150.267,25655.324 0,3885.153 -154.8479,0 0,-3885.153 154.8479,0 z"
         style="fill:#505954;fill-opacity:1;stroke:none;visibility:visible" />
      <path
         inkscape:connector-curvature="0"
         id="path4529"
         d="m 7310.3436,25505.121 0,4035.356 -154.8486,0 0,-4035.356 154.8486,0 z"
         style="fill:#505954;fill-opacity:1;stroke:none;visibility:visible" />
      <path
         inkscape:connector-curvature="0"
         id="path4541"
         d="m 1630.4955,25356.467 0,4184.01 -154.8486,0 0,-4184.01 154.8486,0 z"
         style="fill:#505954;fill-opacity:1;stroke:none;visibility:visible" />
      <path
         inkscape:connector-curvature="0"
         id="path4553"
         d="m -1207.8801,25803.979 0,3736.498 -154.8486,0 0,-3736.498 154.8486,0 z"
         style="fill:#505954;fill-opacity:1;stroke:none;visibility:visible" />
      <path
         inkscape:connector-curvature="0"
         id="path4565"
         d="m 4470.4196,19602.291 0,9938.186 -154.8487,0 0,-9938.186 154.8487,0 z"
         style="fill:#505954;fill-opacity:1;stroke:none;visibility:visible" />
      <path
         inkscape:connector-curvature="0"
         id="path4577"
         d="m 18513.643,29540.477 0,-4707.399 154.848,0 0,4707.399 -154.848,0 z"
         style="fill:#505954;fill-opacity:1;stroke:none;visibility:visible" />
      <path
         inkscape:connector-curvature="0"
         id="path4589"
         d="m 21353.567,29390.274 0,-4482.869 154.848,0 0,4482.869 -154.848,0 z"
         style="fill:#505954;fill-opacity:1;stroke:none;visibility:visible" />
    </g>
    <path
       inkscape:connector-curvature="0"
       style="fill:#c4a000;fill-opacity:1;stroke:#c17d11;stroke-width:1;stroke-linecap:butt;stroke-linejoin:round;stroke-miterlimit:4;stroke-opacity:1;stroke-dasharray:none"
       d="m 13.266224,21.582157 17.573025,-7.853823 -0.468264,1.435077 6.485908,-5.3503086 -8.312434,1.2634366 1.381528,0.608358 -12.172951,5.440396 c 5.892508,-4.295608 2.067238,-4.822907 10.803056,-8.5055501 L 28.087829,10.054822 34.573734,4.7045106 26.261303,5.967949 27.642831,6.5763072 23.018348,8.6431036 C 15.21486,12.130678 19.964429,14.610645 11.744119,18.176431 l 1.522105,3.405726 z"
       id="path8281-0"
       sodipodi:nodetypes="ccccccccccccccc" />
    <path
       inkscape:export-ydpi="74.800003"
       inkscape:export-xdpi="74.800003"
       inkscape:export-filename="/home/jimmac/ximian_art/icons/nautilus/suse93/gnome-fs-directory.png"
       sodipodi:nodetypes="cccsscccscc"
       id="path2401"
       d="M 5.7785654,39.065997 C 5.8820074,39.277466 6.0888914,39.488925 6.3992173,39.488925 L 39.70767,39.488925 C 39.914562,39.488925 40.228834,39.36262 40.415844,39.224574 C 40.946246,38.833039 41.070704,38.612189 41.308626,38.251107 C 43.756752,34.535647 47.113767,18.974214 47.113767,18.974214 C 47.217209,18.762754 47.010326,18.551294 46.7,18.551294 L 11.776358,18.551294 C 11.466032,18.551294 10.120393,34.658624 6.9133592,37.838317 L 5.6751235,39.065997 L 5.7785654,39.065997 z "
       style="opacity:1;color:#000000;fill:url(#linearGradient13162);fill-opacity:1;fill-rule:nonzero;stroke:#3465a4;stroke-width:0.99999982;stroke-linecap:butt;stroke-linejoin:round;marker:none;marker-start:none;marker-mid:none;marker-end:none;stroke-miterlimit:4;stroke-dasharray:none;stroke-dashoffset:0;stroke-opacity:1;visibility:visible;display:block;overflow:visible" />
    <path
       id="path323"
       d="M 13.134476,20.138641 C 12.361729,25.129398 11.633175,29.147884 10.418486,33.652505 C 12.804971,32.945398 17.534602,30.448000 27.534602,30.448000 C 37.534602,30.448000 44.258175,21.199301 45.186253,20.094447 L 13.134476,20.138641 z "
       style="fill:url(#linearGradient156);fill-opacity:1.0000000;fill-rule:evenodd;stroke:none;stroke-width:1.0000000px;stroke-linecap:butt;stroke-linejoin:miter;stroke-opacity:1.0000000"
       sodipodi:nodetypes="ccccc" />
    <path
       style="color:#000000;fill:none;fill-opacity:1.0000000;fill-rule:evenodd;stroke:url(#linearGradient155);stroke-width:1.0000000px;stroke-linecap:round;stroke-linejoin:miter;stroke-miterlimit:4.0000000;stroke-dashoffset:0.0000000;stroke-opacity:1.0000000;marker:none;marker-start:none;marker-mid:none;marker-end:none;visibility:visible;display:inline;overflow:visible;opacity:0.52272727"
       d="M 45.820083,19.687500 L 12.661612,19.687500 C 12.661612,19.687500 10.513864,35.707107 7.9393398,37.928078 C 16.060417,37.928078 39.510511,37.879442 39.530330,37.879442 C 41.281989,37.879442 44.437971,25.243248 45.820083,19.687500 z "
       id="path324"
       sodipodi:nodetypes="cccsc" />
    <path
       style="opacity:1;color:#000000;fill:#ffffff;fill-opacity:1;fill-rule:nonzero;stroke:none;stroke-width:1;stroke-linecap:butt;stroke-linejoin:miter;marker:none;marker-start:none;marker-mid:none;marker-end:none;stroke-miterlimit:4;stroke-dasharray:none;stroke-dashoffset:0;stroke-opacity:1;visibility:visible;display:block;overflow:visible"
       d="M 6.375,31.75 C 5.1336344,19.511961 13.5625,12.6875 12,2.9999999 L 42.875,2.9999999 L 12.875,3.6249999 C 14.125,13.1875 6.6786165,18.271447 6.375,31.75 z "
       id="path8289"
       sodipodi:nodetypes="ccccc" />
  </g>
  <g
     inkscape:groupmode="layer"
     id="layer2"
     inkscape:label="pattern" />
</svg>
