<?xml version="1.0" encoding="UTF-8" standalone="no"?>
<!-- Created with Inkscape (http://www.inkscape.org/) -->

<svg
   xmlns:dc="http://purl.org/dc/elements/1.1/"
   xmlns:cc="http://creativecommons.org/ns#"
   xmlns:rdf="http://www.w3.org/1999/02/22-rdf-syntax-ns#"
   xmlns:svg="http://www.w3.org/2000/svg"
   xmlns="http://www.w3.org/2000/svg"
   xmlns:sodipodi="http://sodipodi.sourceforge.net/DTD/sodipodi-0.dtd"
   xmlns:inkscape="http://www.inkscape.org/namespaces/inkscape"
   id="svg6737"
   version="1.1"
   inkscape:version="0.47 r22583"
   width="32"
   height="32"
   sodipodi:docname="RouteIcon.png">
  <metadata
     id="metadata6743">
    <rdf:RDF>
      <cc:Work
         rdf:about="">
        <dc:format>image/svg+xml</dc:format>
        <dc:type
           rdf:resource="http://purl.org/dc/dcmitype/StillImage" />
        <dc:title></dc:title>
      </cc:Work>
    </rdf:RDF>
  </metadata>
  <defs
     id="defs6741">
    <marker
       inkscape:stockid="Arrow1Lend"
       orient="auto"
       refY="0.0"
       refX="0.0"
       id="Arrow1Lend"
       style="overflow:visible;">
      <path
         id="path7279"
         d="M 0.0,0.0 L 5.0,-5.0 L -12.5,0.0 L 5.0,5.0 L 0.0,0.0 z "
         style="fill-rule:evenodd;stroke:#000000;stroke-width:1.0pt;marker-start:none;"
         transform="scale(0.8) rotate(180) translate(12.5,0)" />
    </marker>
    <marker
       inkscape:stockid="Arrow1Lstart"
       orient="auto"
       refY="0.0"
       refX="0.0"
       id="Arrow1Lstart"
       style="overflow:visible">
      <path
         id="path7276"
         d="M 0.0,0.0 L 5.0,-5.0 L -12.5,0.0 L 5.0,5.0 L 0.0,0.0 z "
         style="fill-rule:evenodd;stroke:#000000;stroke-width:1.0pt;marker-start:none"
         transform="scale(0.8) translate(12.5,0)" />
    </marker>
    <inkscape:perspective
       sodipodi:type="inkscape:persp3d"
       inkscape:vp_x="0 : 0.5 : 1"
       inkscape:vp_y="0 : 1000 : 0"
       inkscape:vp_z="1 : 0.5 : 1"
       inkscape:persp3d-origin="0.5 : 0.33333333 : 1"
       id="perspective6745" />
    <inkscape:perspective
       id="perspective3463"
       inkscape:persp3d-origin="357.28 : 255.46 : 1"
       inkscape:vp_z="714.56 : 383.19 : 1"
       inkscape:vp_y="0 : 1000 : 0"
       inkscape:vp_x="0 : 383.19 : 1"
       sodipodi:type="inkscape:persp3d" />
  </defs>
  <sodipodi:namedview
     pagecolor="#ffffff"
     bordercolor="#666666"
     borderopacity="1"
     objecttolerance="10"
     gridtolerance="10"
     guidetolerance="10"
     inkscape:pageopacity="0"
     inkscape:pageshadow="2"
     inkscape:window-width="1126"
     inkscape:window-height="735"
     id="namedview6739"
     showgrid="false"
     inkscape:zoom="14.75"
     inkscape:cx="16.894432"
     inkscape:cy="15.513226"
     inkscape:window-x="0"
     inkscape:window-y="1"
     inkscape:window-maximized="0"
     inkscape:current-layer="svg6737" />
  <g
     style="fill-rule:evenodd"
     id="g8366"
     transform="matrix(0.00106908,0,0,0.00106907,4.7033201,0.1228919)">
    <rect
       y="2166.6243"
       x="-3192.9807"
       height="27379.953"
       width="27379.953"
       id="rect4436"
       style="fill:#ffffff;fill-opacity:1;stroke:#505954;stroke-width:542.05731201;stroke-linecap:round;stroke-linejoin:round;stroke-miterlimit:30;stroke-opacity:1;stroke-dasharray:none;stroke-dashoffset:0" />
    <path
       style="fill:none;stroke:#505954;stroke-width:522.45135498;stroke-miterlimit:4;stroke-opacity:1;stroke-dasharray:none"
       d="m 14149.292,14610.827 c 115.596,-558.167 87.034,-1989.698 -243.255,-2630.32 -330.289,-640.623 -775.076,-1216.751 -1329.033,-1343.757 -553.956,-127.006 -912.434,-1187.7242 -480.623,-2159.4704 439.175,-988.3207 532.939,-1422.3375 1436.883,-1520.6412 835.14,-151.9035 1212.446,-217.377 2366.151,-784.6593 1161.63,-571.1801 2104.347,-747.0199 3068.066,-496.1969 2026.746,589.3687 2644.02,2375.3576 2607.999,4326.7538 -77.912,1221.367 -790.892,2495.773 -1355.446,3320.51 -558.111,815.325 -1508.612,1993.364 -2521.56,4678.873 l -4116.834,-464.021 c 263.739,-1180.979 452.056,-2368.904 567.652,-2927.071 z"
       id="path3275"
       sodipodi:nodetypes="czzzczcczccz" />
    <path
       style="fill:#e60033;fill-opacity:1;stroke:#505954;stroke-width:522.45135498;stroke-linecap:round;stroke-linejoin:miter;stroke-miterlimit:30;stroke-opacity:1;stroke-dasharray:none;stroke-dashoffset:0;marker-mid:none"
       d="m 14863.816,10442.842 c 182.508,-159.744 -15.774,-1098.3297 -97.539,-1395.2706 -106.224,-385.7642 -689.087,-1797.7733 -953.592,-1943.6162 -530.764,-292.6535 -809.745,-511.9061 -1442.289,-942.2346 C 10700.738,5025.8293 8930.977,3923.2402 7130.6119,2935.1756 5255.9054,1810.0633 1996.3922,366.63935 1301.5901,237.59785 702.2483,126.28534 542.59964,-5.8167187 1498.375,656.80737 2335.3868,1237.0937 3987.6717,2364.3558 5465.0417,3348.9439 7424.2768,4654.6695 8407.0656,5551.2954 11162.045,8240.0488 7594.7903,7699.3235 4182.9222,7278.9183 837.32757,7061.8045 -890.95091,6986.1248 -295.02506,6990.6276 782.37377,7385.8135 2211.7196,7910.0917 4255.3666,8464.158 5837.3172,8965.804 c 1459.742,352.827 2883.2687,743.1341 4378.0328,1062.837 857.168,183.332 2072.125,537.846 3004.624,619.357 1329.47,26.03 1461.335,-45.411 1643.842,-205.156 z"
       id="path3273"
       sodipodi:nodetypes="cssscsssccscscz" />
    <path
       style="fill:#505954;fill-opacity:1;stroke:none"
       d="m 17260.778,8808.7489 c -640.967,-0.5506 -609.008,-955.0304 6.091,-955.2004 615.057,-0.1705 634.876,955.751 -6.091,955.2004 z"
       id="path3271"
       sodipodi:nodetypes="czz" />
    <path
       style="fill:#505954;fill-opacity:1;stroke:#505954;stroke-width:0.17551509;stroke-miterlimit:4;stroke-opacity:1;stroke-dasharray:none"
       d="m 18177.047,8512.7105 c -297.913,-300.0595 -348.606,-612.0279 -759.373,-758.565 -412.116,-147.0182 -449.435,145.0978 -1096.57,-265.9881 -169.059,-107.3932 24.689,-296.8553 220.373,-170.5297 409.364,264.2688 599.657,-11.8071 1076.359,230.83 478.395,243.4984 444.48,458.3619 786.288,810.7663 283.967,292.769 25.859,408.2336 -227.077,153.4865 z"
       id="path3265"
       sodipodi:nodetypes="czsszss" />
    <path
       id="path4163"
       d="m -2332.0812,19826.822 0,5977.157 1793.14727,0 0,-5977.157 1345.63469,0 0,5977.157 1793.14724,0 0,-5977.157 3553.7763,0 0,5977.157 1793.1472,0 0,-5977.157 1271.3074,0 0,5977.157 1793.1471,0 0,-5977.157 1269.759,0 0,5977.157 1793.147,0 0,-5977.157 3470.158,0 0,5977.157 1793.147,0 0,-5977.157 1387.444,0 0,5977.157 1751.338,0 0,-5977.157 1760.629,0 -23.227,-3694.689 -27516.6032,0 0,3694.689 970.901,0 z"
       style="fill:#505954;fill-opacity:1;stroke:none;visibility:visible" />
    <path
       id="path4493"
       d="m 15673.718,29390.274 0,-9713.656 154.849,0 0,9713.656 -154.849,0 z"
       style="fill:#505954;fill-opacity:1;stroke:none;visibility:visible" />
    <path
       id="path4505"
       d="m 12988.643,24981.733 0,4408.541 -154.849,0 0,-4408.541 154.849,0 z"
       style="fill:#505954;fill-opacity:1;stroke:none;visibility:visible" />
    <path
       id="path4517"
       d="m 10150.267,25655.324 0,3885.153 -154.8479,0 0,-3885.153 154.8479,0 z"
       style="fill:#505954;fill-opacity:1;stroke:none;visibility:visible" />
    <path
       id="path4529"
       d="m 7310.3436,25505.121 0,4035.356 -154.8486,0 0,-4035.356 154.8486,0 z"
       style="fill:#505954;fill-opacity:1;stroke:none;visibility:visible" />
    <path
       id="path4541"
       d="m 1630.4955,25356.467 0,4184.01 -154.8486,0 0,-4184.01 154.8486,0 z"
       style="fill:#505954;fill-opacity:1;stroke:none;visibility:visible" />
    <path
       id="path4553"
       d="m -1207.8801,25803.979 0,3736.498 -154.8486,0 0,-3736.498 154.8486,0 z"
       style="fill:#505954;fill-opacity:1;stroke:none;visibility:visible" />
    <path
       id="path4565"
       d="m 4470.4196,19602.291 0,9938.186 -154.8487,0 0,-9938.186 154.8487,0 z"
       style="fill:#505954;fill-opacity:1;stroke:none;visibility:visible" />
    <path
       id="path4577"
       d="m 18513.643,29540.477 0,-4707.399 154.848,0 0,4707.399 -154.848,0 z"
       style="fill:#505954;fill-opacity:1;stroke:none;visibility:visible" />
    <path
       id="path4589"
       d="m 21353.567,29390.274 0,-4482.869 154.848,0 0,4482.869 -154.848,0 z"
       style="fill:#505954;fill-opacity:1;stroke:none;visibility:visible" />
  </g>
  <path
     style="fill:#008000;fill-opacity:1;stroke:#008000;stroke-width:0.1;stroke-linecap:butt;stroke-linejoin:bevel;stroke-opacity:1;stroke-miterlimit:4;stroke-dasharray:none"
     d="m 2.2033899,16.227872 11.8161671,0 -0.621904,0.551789 4.975229,-1.103578 -4.975229,-1.103578 0.621904,0.551789 -8.1851371,0 c 4.3784691,-0.748189 2.3666498,-1.755126 8.1851371,-1.655368 l -0.621904,0.55179 4.975229,-1.103579 -4.975229,-1.103578 0.621904,0.551789 -3.109518,0 c -5.2470958,0 -3.2063543,2.071877 -8.7066491,2.023227 l 0,1.839297 z"
     id="path8281"
     sodipodi:nodetypes="ccccccccccccccc" />
</svg>
