<?xml version="1.0" encoding="UTF-8" standalone="no"?>
<!-- Created with Inkscape (http://www.inkscape.org/) -->

<svg
   xmlns:dc="http://purl.org/dc/elements/1.1/"
   xmlns:cc="http://creativecommons.org/ns#"
   xmlns:rdf="http://www.w3.org/1999/02/22-rdf-syntax-ns#"
   xmlns:svg="http://www.w3.org/2000/svg"
   xmlns="http://www.w3.org/2000/svg"
   xmlns:sodipodi="http://sodipodi.sourceforge.net/DTD/sodipodi-0.dtd"
   xmlns:inkscape="http://www.inkscape.org/namespaces/inkscape"
   width="20"
   height="20"
   id="svg2"
   version="1.1"
   inkscape:version="0.48.4 r9939"
   sodipodi:docname="ToolbareLogicActive.svg"
   inkscape:export-filename="/home/tobias/macbookbackup/Entwicklung/mutabor/mutabor-git/Images/Icons/png/ToolbarLogicActive.png"
   inkscape:export-xdpi="90"
   inkscape:export-ydpi="90">
  <defs
     id="defs4" />
  <sodipodi:namedview
     id="base"
     pagecolor="#ffffff"
     bordercolor="#666666"
     borderopacity="1.0"
     inkscape:pageopacity="0.0"
     inkscape:pageshadow="2"
     inkscape:zoom="35.612453"
     inkscape:cx="14.804731"
     inkscape:cy="9.7821483"
     inkscape:document-units="px"
     inkscape:current-layer="layer1"
     showgrid="true"
     inkscape:window-width="1920"
     inkscape:window-height="1017"
     inkscape:window-x="0"
     inkscape:window-y="41"
     inkscape:window-maximized="1">
    <inkscape:grid
       type="xygrid"
       id="grid4274"
       empspacing="5"
       visible="true"
       enabled="true"
       snapvisiblegridlinesonly="true" />
  </sodipodi:namedview>
  <metadata
     id="metadata7">
    <rdf:RDF>
      <cc:Work
         rdf:about="">
        <dc:format>image/svg+xml</dc:format>
        <dc:type
           rdf:resource="http://purl.org/dc/dcmitype/StillImage" />
        <dc:title></dc:title>
      </cc:Work>
    </rdf:RDF>
  </metadata>
  <g
     inkscape:label="Ebene 1"
     inkscape:groupmode="layer"
     id="layer1"
     transform="translate(0,-1032.3622)">
    <path
       inkscape:connector-curvature="0"
       id="path2796"
       d="m 11,1036.3622 7,-1 0,10 c -0.726255,-0.2228 -2.203225,0.1317 -3,1 -1.596082,1.7425 0.173044,2.9722 2,2 1.039425,-0.5538 2.003759,-1.6598 2,-3 l 0,-12 -9,1 0,13 c -0.7262534,-0.225 -2.2032201,0.1284 -3,1 -1.5960798,1.7431 0.1730309,2.9724 2,2 1.039427,-0.5533 2,-1.6595 2,-3 z"
       sodipodi:nodetypes="cccccscccccsc" />
    <path
       inkscape:connector-curvature="0"
       id="path1981"
       d="m 4,1049.3622 c 1.8975697,-2.1114 -2.1261124,-3.2356 -1,0 0.2458297,0.7065 2.6435994,3.1527 2.6435994,-2.0152 0,-3.8838 -1.6603731,-8.8147 -1.6603731,-10.7736 0,-1.9587 1.0911025,-3.0057 1.0911025,-0.4051 0,2.6004 -4.0743288,5.4919 -4.0743288,8.1939 0,4.4602 6,3.3118 6,0 0,-3.0734 -2.3513633,-2.77 -3,-2 -0.9257293,1.0989 -0.5596205,3.3909 0.5287767,3.5326 -1.5966149,-2.9119 1.2672348,-3.9919 1.4712233,-1.5326 0.2243871,2.704 -3.9497775,3.2863 -4,0 -0.039382,-2.577 3.5499378,-5.2537 3.7147582,-7.9914 -0.1897562,-3.6939 -1.8909755,-4.8361 -2.087326,-0.3376 -0.1380461,3.1288 1.6523077,7.0937 1.7315319,11.5166 0.050764,2.8238 -1.0894142,3.0855 -1.3589641,1.8124 z"
       sodipodi:nodetypes="ccssssscccsccccc" />
  </g>
</svg>
